<svg width="24" height="24" viewBox="0 0 24 24" fill="none" xmlns="http://www.w3.org/2000/svg">
<path fill-rule="evenodd" clip-rule="evenodd" d="M19.4999 12.0001C19.4999 12.2487 19.4011 12.4871 19.2253 12.663C19.0495 12.8388 18.811 12.9375 18.5624 12.9375H7.70076L11.7263 16.9612C11.8135 17.0484 11.8826 17.1518 11.9298 17.2657C11.977 17.3796 12.0012 17.5017 12.0012 17.6249C12.0012 17.7482 11.977 17.8703 11.9298 17.9841C11.8826 18.098 11.8135 18.2015 11.7263 18.2887C11.6391 18.3758 11.5357 18.445 11.4218 18.4922C11.3079 18.5393 11.1858 18.5636 11.0626 18.5636C10.9393 18.5636 10.8172 18.5393 10.7034 18.4922C10.5895 18.445 10.486 18.3758 10.3988 18.2887L4.77395 12.6638C4.68665 12.5767 4.61738 12.4733 4.57012 12.3594C4.52286 12.2455 4.49854 12.1234 4.49854 12.0001C4.49854 11.8768 4.52286 11.7547 4.57012 11.6408C4.61738 11.5269 4.68665 11.4234 4.77395 11.3363L10.3988 5.71145C10.5749 5.53542 10.8136 5.43652 11.0626 5.43652C11.3115 5.43652 11.5503 5.53542 11.7263 5.71145C11.9023 5.88749 12.0012 6.12624 12.0012 6.37519C12.0012 6.62414 11.9023 6.86289 11.7263 7.03892L7.70076 11.0626H18.5624C18.811 11.0626 19.0495 11.1614 19.2253 11.3372C19.4011 11.513 19.4999 11.7514 19.4999 12.0001Z" fill="#FEB800"/>
</svg>
