<svg width="12" height="12" viewBox="0 0 12 12" fill="none" xmlns="http://www.w3.org/2000/svg">
<path fill-rule="evenodd" clip-rule="evenodd" d="M10.4245 2.99998C10.673 2.99998 10.8745 2.79851 10.8745 2.54998C10.8745 2.30145 10.673 2.09998 10.4245 2.09998L1.72448 2.09998C1.47595 2.09998 1.27448 2.30145 1.27448 2.54998C1.27448 2.7985 1.47595 2.99998 1.72448 2.99998L10.4245 2.99998ZM3.70982 4.78992C3.79796 4.55754 3.68104 4.29771 3.44866 4.20957C3.21629 4.12143 2.95646 4.23835 2.86832 4.47073L2.68745 4.94758C2.59931 5.17995 2.71623 5.43978 2.9486 5.52792C3.18098 5.61606 3.4408 5.49914 3.52895 5.26676L3.70982 4.78992ZM2.98632 6.69731C3.07447 6.46494 2.95754 6.20511 2.72517 6.11697C2.4928 6.02883 2.23297 6.14575 2.14483 6.37812L1.78308 7.33182C1.69494 7.56419 1.81186 7.82402 2.04423 7.91216C2.27661 8.0003 2.53644 7.88338 2.62458 7.65101L2.98632 6.69731ZM2.08196 9.08155C2.1701 8.84918 2.05318 8.58935 1.8208 8.50121C1.58843 8.41307 1.3286 8.52999 1.24046 8.76237L1.05959 9.23921C0.971444 9.47159 1.08837 9.73142 1.32074 9.81956C1.55311 9.9077 1.81294 9.79078 1.90108 9.5584L2.08196 9.08155ZM6.21326 4.78992C6.3014 4.55754 6.18447 4.29771 5.9521 4.20957C5.71973 4.12143 5.4599 4.23835 5.37176 4.47073L5.19089 4.94758C5.10274 5.17995 5.21967 5.43978 5.45204 5.52792C5.68441 5.61606 5.94424 5.49914 6.03238 5.26676L6.21326 4.78992ZM5.48976 6.69731C5.5779 6.46494 5.46098 6.20511 5.22861 6.11697C4.99623 6.02883 4.73641 6.14575 4.64826 6.37812L4.28652 7.33182C4.19837 7.56419 4.3153 7.82402 4.54767 7.91216C4.78004 8.0003 5.03987 7.88338 5.12801 7.65101L5.48976 6.69731ZM4.58539 9.08155C4.67353 8.84918 4.55661 8.58935 4.32424 8.50121C4.09187 8.41307 3.83204 8.52999 3.7439 8.76237L3.56302 9.23921C3.47488 9.47159 3.5918 9.73142 3.82418 9.81956C4.05655 9.9077 4.31638 9.79078 4.40452 9.5584L4.58539 9.08155ZM8.45553 4.20957C8.6879 4.29771 8.80482 4.55754 8.71668 4.78992L8.53581 5.26676C8.44767 5.49914 8.18784 5.61606 7.95547 5.52792C7.72309 5.43978 7.60617 5.17995 7.69431 4.94758L7.87519 4.47073C7.96333 4.23835 8.22316 4.12143 8.45553 4.20957ZM7.73203 6.11697C7.96441 6.20511 8.08133 6.46494 7.99319 6.69731L7.63144 7.65101C7.5433 7.88338 7.28347 8.0003 7.0511 7.91216C6.81872 7.82402 6.7018 7.56419 6.78994 7.33182L7.15169 6.37812C7.23983 6.14575 7.49966 6.02883 7.73203 6.11697ZM6.82767 8.50121C7.06004 8.58935 7.17696 8.84918 7.08882 9.08155L6.90795 9.5584C6.81981 9.79078 6.55998 9.9077 6.3276 9.81956C6.09523 9.73142 5.97831 9.47159 6.06645 9.23921L6.24732 8.76237C6.33546 8.52999 6.59529 8.41307 6.82767 8.50121Z" fill="#3FD5FE"/>
</svg>
