<svg width="188" height="223" viewBox="0 0 188 223" fill="none" xmlns="http://www.w3.org/2000/svg">
<path d="M168.999 201.582C165.525 205.057 157.229 213.352 153.909 216.672C153.128 217.453 151.871 217.452 151.089 216.671C147.82 213.402 139.718 205.3 136.001 201.582C126.888 192.47 126.888 177.696 136.001 168.584C145.113 159.472 159.887 159.472 168.999 168.584C178.111 177.696 178.111 192.47 168.999 201.582Z" stroke="#6892B9" stroke-width="1.5" stroke-linecap="round" stroke-linejoin="round"/>
<path d="M157.874 179.25C157.044 179.25 156.222 179.412 155.458 179.726C154.693 180.04 154.001 180.5 153.422 181.078L152.505 181.997L151.578 181.078C151 180.5 150.307 180.04 149.543 179.726C148.778 179.412 147.956 179.251 147.126 179.251C146.296 179.251 145.474 179.412 144.71 179.726C143.945 180.04 143.253 180.5 142.674 181.078C141.494 182.263 140.833 183.848 140.833 185.497C140.833 187.147 141.494 188.732 142.674 189.917L152.505 199.667L162.326 189.917C163.507 188.732 164.167 187.147 164.167 185.497C164.167 183.848 163.507 182.263 162.326 181.078C161.748 180.5 161.055 180.04 160.291 179.726C159.526 179.412 158.704 179.25 157.874 179.25V179.25Z" stroke="#6892B9" stroke-width="1.5"/>
<path d="M23.9998 2.85072e-05L23.8511 6.90237L17.9055 3.34036L23.9998 2.85072e-05ZM93.5334 130.119L94.1108 129.948L93.5334 130.119ZM60.9997 154L60.4568 154.26L60.4568 154.26L60.9997 154ZM22.328 3.89605C22.1587 4.1807 21.7894 4.27582 21.5032 4.10849C21.217 3.94117 21.1223 3.57477 21.2916 3.29011L22.328 3.89605ZM17.2908 10.363C17.4472 10.0712 17.8119 9.95986 18.1054 10.1144C18.3988 10.2689 18.5099 10.6307 18.3534 10.9225L17.2908 10.363ZM14.6457 18.2722C14.5043 18.5714 14.1457 18.7009 13.8447 18.5614C13.5437 18.4219 13.4143 18.0662 13.5557 17.7669L14.6457 18.2722ZM10.2645 25.2626C10.3888 24.956 10.7396 24.8067 11.048 24.9293C11.3565 25.0518 11.5058 25.3997 11.3815 25.7063L10.2645 25.2626ZM8.58612 33.2629C8.48135 33.5765 8.14056 33.7472 7.82495 33.6441C7.50934 33.5409 7.33842 33.2031 7.44319 32.8894L8.58612 33.2629ZM5.10412 40.8043C5.18621 40.4841 5.514 40.2898 5.83626 40.3704C6.15851 40.451 6.3532 40.776 6.27111 41.0962L5.10412 40.8043ZM4.55976 49.0511C4.50342 49.3767 4.19206 49.596 3.86432 49.541C3.53658 49.486 3.31657 49.1774 3.37292 48.8519L4.55976 49.0511ZM2.32459 56.9942C2.35206 56.6651 2.643 56.4196 2.97441 56.4459C3.30582 56.4723 3.55221 56.7605 3.52473 57.0896L2.32459 56.9942ZM3.23568 65.1741C3.24002 65.5043 2.97399 65.7762 2.64147 65.7814C2.30895 65.7867 2.03587 65.5233 2.03152 65.1931L3.23568 65.1741ZM2.5608 73.3826C2.52226 73.0547 2.75879 72.7572 3.08909 72.718C3.4194 72.6788 3.71841 72.9128 3.75695 73.2406L2.5608 73.3826ZM5.13479 81.2032C5.20889 81.5249 5.00615 81.8461 4.68196 81.9206C4.35778 81.9951 4.03491 81.7947 3.96081 81.473L5.13479 81.2032ZM6.24983 89.3616C6.14015 89.0502 6.30572 88.7087 6.61966 88.5989C6.9336 88.4891 7.27701 88.6526 7.3867 88.964L6.24983 89.3616ZM10.4965 96.425C10.6405 96.7222 10.5141 97.0797 10.2143 97.2235C9.91453 97.3672 9.55483 97.2428 9.4109 96.9455L10.4965 96.425ZM13.3944 104.134C13.2188 103.854 13.3053 103.485 13.5876 103.31C13.87 103.135 14.2413 103.22 14.417 103.5L13.3944 104.134ZM19.0775 110.119C19.2817 110.379 19.2344 110.755 18.9719 110.958C18.7094 111.161 18.3311 111.116 18.1269 110.855L19.0775 110.119ZM23.5246 117.061C23.2954 116.822 23.305 116.444 23.5459 116.216C23.7869 115.987 24.168 115.996 24.3972 116.234L23.5246 117.061ZM30.301 121.821C30.5518 122.037 30.5782 122.415 30.3599 122.664C30.1416 122.914 29.7613 122.941 29.5104 122.725L30.301 121.821ZM35.994 127.815C35.7245 127.622 35.664 127.248 35.8588 126.98C36.0536 126.712 36.43 126.651 36.6995 126.844L35.994 127.815ZM43.5185 131.28C43.804 131.448 43.8972 131.815 43.7267 132.099C43.5562 132.383 43.1866 132.477 42.9011 132.308L43.5185 131.28ZM50.1621 136.176C49.8627 136.033 49.7374 135.676 49.8823 135.379C50.0271 135.081 50.3872 134.956 50.6865 135.098L50.1621 136.176ZM58.2142 138.28C58.5257 138.395 58.6838 138.739 58.5673 139.049C58.4508 139.358 58.1039 139.516 57.7924 139.401L58.2142 138.28ZM65.6747 141.861C65.3528 141.779 65.1595 141.454 65.2428 141.134C65.3262 140.814 65.6548 140.621 65.9767 140.703L65.6747 141.861ZM73.9859 142.213C74.3161 142.252 74.5513 142.549 74.5113 142.877C74.4714 143.205 74.1714 143.44 73.8412 143.401L73.9859 142.213ZM82.1659 143.603C81.8345 143.632 81.5431 143.389 81.5149 143.06C81.4867 142.731 81.7325 142.441 82.0638 142.412L82.1659 143.603ZM89.6468 140.284C89.9325 140.114 90.3021 140.206 90.4724 140.489C90.6427 140.772 90.5493 141.14 90.2637 141.309L89.6468 140.284ZM94.6944 134.217C94.678 134.547 94.3955 134.802 94.0634 134.787C93.7312 134.772 93.4752 134.492 93.4916 134.162L94.6944 134.217ZM91.3928 126.252C91.247 125.956 91.3711 125.597 91.67 125.452C91.9689 125.306 92.3293 125.428 92.4751 125.725L91.3928 126.252ZM86.7257 118.755C86.9972 118.945 87.0616 119.318 86.8696 119.588C86.6776 119.858 86.3018 119.923 86.0303 119.733L86.7257 118.755ZM78.032 117.299C77.6995 117.303 77.4277 117.038 77.425 116.708C77.4223 116.378 77.6897 116.107 78.0222 116.104L78.032 117.299ZM69.2522 118.527C69.5432 118.366 69.9096 118.47 70.0706 118.758C70.2316 119.047 70.1262 119.411 69.8352 119.571L69.2522 118.527ZM63.3087 125.145C63.1027 125.405 62.7241 125.451 62.463 125.247C62.2019 125.043 62.1572 124.667 62.3631 124.408L63.3087 125.145ZM58.1585 132.389C58.2568 132.073 58.594 131.896 58.9117 131.993C59.2294 132.089 59.4072 132.424 59.309 132.739L58.1585 132.389ZM58.2264 141.251C58.2404 141.581 57.9823 141.861 57.6501 141.875C57.3178 141.89 57.0372 141.635 57.0232 141.305L58.2264 141.251ZM58.7351 150.1C58.6278 149.788 58.7958 149.448 59.1106 149.34C59.4253 149.233 59.7675 149.399 59.8749 149.711L58.7351 150.1ZM63.7042 157.62C63.8816 157.899 63.7974 158.268 63.5161 158.445C63.2348 158.622 62.8629 158.539 62.6856 158.26L63.7042 157.62ZM68.4592 165.345C68.2219 165.115 68.2185 164.736 68.4516 164.5C68.6846 164.264 69.0659 164.259 69.3031 164.49L68.4592 165.345ZM76.3095 169.967C76.5902 170.143 76.6731 170.513 76.4947 170.792C76.3163 171.071 75.9441 171.154 75.6635 170.978L76.3095 169.967ZM83.8137 175.121C83.5062 174.996 83.3594 174.647 83.4859 174.341C83.6124 174.036 83.9642 173.889 84.2718 174.014L83.8137 175.121ZM92.8121 176.753C93.1348 176.832 93.3313 177.156 93.2509 177.476C93.1706 177.797 92.8439 177.993 92.5212 177.914L92.8121 176.753ZM101.528 179.493C101.197 179.458 100.959 179.163 100.996 178.835C101.032 178.506 101.33 178.269 101.66 178.305L101.528 179.493ZM18.3534 10.9225C17.021 13.4078 15.7863 15.8577 14.6457 18.2722L13.5557 17.7669C14.7052 15.3336 15.949 12.8656 17.2908 10.363L18.3534 10.9225ZM11.3815 25.7063C10.3434 28.2676 9.41325 30.7865 8.58612 33.2629L7.44319 32.8894C8.27845 30.3887 9.21729 27.8464 10.2645 25.2626L11.3815 25.7063ZM6.27111 41.0962C5.57725 43.8025 5.0092 46.4541 4.55976 49.0511L3.37292 48.8519C3.82788 46.223 4.40261 43.5404 5.10412 40.8043L6.27111 41.0962ZM3.52473 57.0896C3.29415 59.8519 3.20109 62.5468 3.23568 65.1741L2.03152 65.1931C1.99643 62.527 2.09088 59.794 2.32459 56.9942L3.52473 57.0896ZM3.75695 73.2406C4.0785 75.976 4.54212 78.6302 5.13479 81.2032L3.96081 81.473C3.35844 78.8579 2.88741 76.161 2.5608 73.3826L3.75695 73.2406ZM7.3867 88.964C8.29544 91.5439 9.33736 94.0309 10.4965 96.425L9.4109 96.9455C8.23276 94.5123 7.17364 91.9842 6.24983 89.3616L7.3867 88.964ZM14.417 103.5C15.8657 105.808 17.4253 108.014 19.0775 110.119L18.1269 110.855C16.4499 108.719 14.8661 106.479 13.3944 104.134L14.417 103.5ZM24.3972 116.234C26.2921 118.207 28.2669 120.069 30.301 121.821L29.5104 122.725C27.4488 120.95 25.4465 119.062 23.5246 117.061L24.3972 116.234ZM36.6995 126.844C38.9387 128.445 41.2197 129.923 43.5185 131.28L42.9011 132.308C40.5728 130.934 38.2624 129.437 35.994 127.815L36.6995 126.844ZM50.6865 135.098C53.2154 136.306 55.7351 137.367 58.2142 138.28L57.7924 139.401C55.278 138.475 52.724 137.4 50.1621 136.176L50.6865 135.098ZM65.9767 140.703C68.771 141.414 71.4582 141.917 73.9859 142.213L73.8412 143.401C71.2555 143.098 68.5156 142.584 65.6747 141.861L65.9767 140.703ZM82.0638 142.412C85.1613 142.142 87.7353 141.422 89.6468 140.284L90.2637 141.309C88.1452 142.57 85.3765 143.323 82.1659 143.603L82.0638 142.412ZM93.4916 134.162C93.5488 133.011 93.3828 131.722 92.956 130.291L94.1108 129.948C94.5689 131.484 94.7594 132.909 94.6944 134.217L93.4916 134.162ZM92.956 130.291C92.5128 128.804 91.9872 127.46 91.3928 126.252L92.4751 125.725C93.1011 126.997 93.6502 128.403 94.1108 129.948L92.956 130.291ZM86.0303 119.733C83.604 118.036 80.8488 117.269 78.032 117.299L78.0222 116.104C81.0747 116.07 84.08 116.905 86.7257 118.755L86.0303 119.733ZM69.8352 119.571C67.4144 120.908 65.1687 122.798 63.3087 125.145L62.3631 124.408C64.3195 121.939 66.6874 119.943 69.2522 118.527L69.8352 119.571ZM59.309 132.739C58.4999 135.339 58.0974 138.195 58.2264 141.251L57.0232 141.305C56.8885 138.112 57.3087 135.119 58.1585 132.389L59.309 132.739ZM59.8749 149.711C60.3291 151.031 60.8824 152.375 61.5426 153.74L60.4568 154.26C59.7767 152.855 59.2052 151.467 58.7351 150.1L59.8749 149.711ZM61.5426 153.74C62.2043 155.107 62.9278 156.399 63.7042 157.62L62.6856 158.26C61.8847 157.001 61.1387 155.669 60.4568 154.26L61.5426 153.74ZM69.3031 164.49C71.4934 166.62 73.8631 168.43 76.3095 169.967L75.6635 170.978C73.1535 169.401 70.7159 167.54 68.4592 165.345L69.3031 164.49ZM84.2718 174.014C87.2274 175.212 90.1323 176.098 92.8121 176.753L92.5212 177.914C89.7937 177.248 86.8318 176.345 83.8137 175.121L84.2718 174.014ZM101.66 178.305C103.045 178.453 104.16 178.527 104.928 178.564C105.312 178.583 105.609 178.592 105.808 178.597C105.908 178.599 105.984 178.6 106.034 178.601C106.059 178.601 106.078 178.601 106.09 178.601C106.096 178.601 106.1 178.601 106.103 178.601C106.104 178.601 106.105 178.601 106.106 178.601C106.106 178.601 106.106 178.601 106.106 178.601C106.106 178.601 106.106 178.601 106.106 178.601C106.106 178.601 106.106 178.601 106.106 178.601C106.106 178.601 106.106 178.601 106.105 179.199C106.103 179.797 106.103 179.797 106.103 179.797C106.103 179.797 106.103 179.797 106.103 179.797C106.102 179.797 106.102 179.797 106.102 179.797C106.102 179.797 106.101 179.797 106.101 179.797C106.1 179.797 106.098 179.797 106.096 179.797C106.092 179.797 106.087 179.797 106.08 179.797C106.065 179.797 106.044 179.797 106.017 179.796C105.962 179.796 105.882 179.795 105.777 179.792C105.568 179.787 105.261 179.778 104.866 179.759C104.077 179.721 102.938 179.645 101.528 179.493L101.66 178.305Z" fill="#6892B9"/>
</svg>
