<svg width="44" height="44" viewBox="0 0 44 44" fill="none" xmlns="http://www.w3.org/2000/svg">
<g clip-path="url(#clip0_507_1262)">
<g filter="url(#filter0_d_507_1262)">
<path d="M13.9252 21.9925C13.9252 26.4448 17.5488 30.0667 22.0032 30.0667C26.4576 30.0667 30.0812 26.4448 30.0812 21.9925C30.0812 17.5402 26.4576 13.9183 22.0032 13.9183C17.5488 13.9183 13.9252 17.5402 13.9252 21.9925ZM20.3866 7.48003C20.3866 6.58901 21.109 5.8667 22 5.8667V5.8667C22.891 5.8667 23.6133 6.58901 23.6133 7.48003V9.09111C23.6133 9.98213 22.891 10.7044 22 10.7044V10.7044C21.109 10.7044 20.3866 9.98213 20.3866 9.09111V7.48003ZM5.86664 21.9925C5.86664 21.1019 6.58861 20.3799 7.47922 20.3799H9.09406C9.98466 20.3799 10.7066 21.1019 10.7066 21.9925V21.9925C10.7066 22.8831 9.98466 23.6051 9.09406 23.6051H7.47922C6.58862 23.6051 5.86664 22.8831 5.86664 21.9925V21.9925ZM33.2933 21.9925C33.2933 21.1019 34.0153 20.3799 34.9059 20.3799H36.5207C37.4113 20.3799 38.1333 21.1019 38.1333 21.9925V21.9925C38.1333 22.8831 37.4113 23.6051 36.5207 23.6051H34.9059C34.0153 23.6051 33.2933 22.8831 33.2933 21.9925V21.9925ZM29.9849 14.0124C29.3547 13.3825 29.3547 12.361 29.9849 11.7311L31.1271 10.5894C31.7569 9.95997 32.7776 9.95997 33.4073 10.5894V10.5894C34.0375 11.2193 34.0375 12.2408 33.4073 12.8707L32.2651 14.0124C31.6353 14.6418 30.6146 14.6418 29.9849 14.0124V14.0124ZM14.0155 14.0136C13.3855 14.6432 12.3645 14.6431 11.7347 14.0133L10.5944 12.873C9.96416 12.2427 9.96446 11.2209 10.595 10.591V10.591C11.2252 9.9616 12.2463 9.96202 12.8759 10.592L14.016 11.7326C14.6457 12.3626 14.6455 13.3839 14.0155 14.0136V14.0136Z" fill="#F7D056"/>
<path d="M13.9252 22.0076C13.9252 17.5553 17.5488 13.9334 22.0032 13.9334C26.4576 13.9334 30.0812 17.5553 30.0812 22.0076C30.0812 26.4599 26.4576 30.0818 22.0032 30.0818C17.5488 30.0818 13.9252 26.4599 13.9252 22.0076ZM20.3866 36.5201C20.3866 37.4111 21.109 38.1334 22 38.1334V38.1334C22.891 38.1334 23.6133 37.4111 23.6133 36.5201V34.909C23.6133 34.018 22.891 33.2957 22 33.2957V33.2957C21.109 33.2957 20.3866 34.018 20.3866 34.909V36.5201ZM5.86664 22.0076C5.86664 22.8982 6.58861 23.6202 7.47922 23.6202H9.09406C9.98466 23.6202 10.7066 22.8982 10.7066 22.0076V22.0076C10.7066 21.117 9.98466 20.395 9.09406 20.395H7.47922C6.58862 20.395 5.86664 21.117 5.86664 22.0076V22.0076ZM33.2933 22.0076C33.2933 22.8982 34.0153 23.6202 34.9059 23.6202H36.5207C37.4113 23.6202 38.1333 22.8982 38.1333 22.0076V22.0076C38.1333 21.117 37.4113 20.395 36.5207 20.395H34.9059C34.0153 20.395 33.2933 21.117 33.2933 22.0076V22.0076ZM29.9849 29.9877C29.3547 30.6176 29.3547 31.6391 29.9849 32.269L31.1271 33.4107C31.7569 34.0402 32.7776 34.0402 33.4073 33.4107V33.4107C34.0375 32.7808 34.0375 31.7593 33.4073 31.1295L32.2651 29.9877C31.6353 29.3583 30.6146 29.3583 29.9849 29.9877V29.9877ZM14.0155 29.9865C13.3855 29.3569 12.3645 29.357 11.7347 29.9868L10.5944 31.1272C9.96416 31.7574 9.96446 32.7792 10.595 33.4091V33.4091C11.2252 34.0385 12.2463 34.0381 12.8759 33.4082L14.016 32.2675C14.6457 31.6375 14.6455 30.6163 14.0155 29.9865V29.9865Z" fill="#F7D056"/>
<circle cx="22" cy="22" r="8.43333" fill="#FFFA50"/>
<path fill-rule="evenodd" clip-rule="evenodd" d="M22 26.0333C23.1298 26.0333 24.1179 25.5497 24.744 24.8218L25.856 25.7782C24.9457 26.8365 23.5485 27.5 22 27.5C20.4515 27.5 19.0543 26.8365 18.144 25.7782L19.256 24.8218C19.8821 25.5497 20.8702 26.0333 22 26.0333Z" fill="#F7D056"/>
<path fill-rule="evenodd" clip-rule="evenodd" d="M12.1 18.7C12.1 17.6875 12.9208 16.8667 13.9333 16.8667H18.3333C19.0851 16.8667 19.7312 17.3192 20.0141 17.9667H23.6192C23.9021 17.3192 24.5482 16.8667 25.3 16.8667H29.7C30.7125 16.8667 31.5333 17.6875 31.5333 18.7V21.2667C31.5333 22.2792 30.7125 23.1 29.7 23.1H25.3C24.2875 23.1 23.4666 22.2792 23.4666 21.2667V20.1667H20.1666V21.2667C20.1666 22.2792 19.3458 23.1 18.3333 23.1H13.9333C12.9208 23.1 12.1 22.2792 12.1 21.2667V18.7Z" fill="#F7D056"/>
<path fill-rule="evenodd" clip-rule="evenodd" d="M30.3781 22.9705C30.4146 22.6521 30.4333 22.3283 30.4333 22C30.4333 20.0684 29.7839 18.2885 28.6916 16.8667H25.3C24.5482 16.8667 23.9021 17.3192 23.6192 17.9667H20.0141C19.7312 17.3192 19.0851 16.8667 18.3333 16.8667H15.3084C14.216 18.2885 13.5667 20.0684 13.5667 22C13.5667 22.3645 13.5898 22.7235 13.6346 23.0758C13.7318 23.0917 13.8316 23.1 13.9333 23.1H18.3333C19.3458 23.1 20.1666 22.2792 20.1666 21.2667V20.1667H23.4666V21.2667C23.4666 22.2792 24.2875 23.1 25.3 23.1H29.7C29.9395 23.1 30.1683 23.0541 30.3781 22.9705Z" fill="#FEB800"/>
</g>
</g>
<defs>
<filter id="filter0_d_507_1262" x="-9.13336" y="-5.1333" width="62.2667" height="62.2667" filterUnits="userSpaceOnUse" color-interpolation-filters="sRGB">
<feFlood flood-opacity="0" result="BackgroundImageFix"/>
<feColorMatrix in="SourceAlpha" type="matrix" values="0 0 0 0 0 0 0 0 0 0 0 0 0 0 0 0 0 0 127 0" result="hardAlpha"/>
<feOffset dy="4"/>
<feGaussianBlur stdDeviation="7.5"/>
<feComposite in2="hardAlpha" operator="out"/>
<feColorMatrix type="matrix" values="0 0 0 0 1 0 0 0 0 0.980392 0 0 0 0 0.313725 0 0 0 0.36 0"/>
<feBlend mode="normal" in2="BackgroundImageFix" result="effect1_dropShadow_507_1262"/>
<feBlend mode="normal" in="SourceGraphic" in2="effect1_dropShadow_507_1262" result="shape"/>
</filter>
<clipPath id="clip0_507_1262">
<rect width="44" height="44" fill="white"/>
</clipPath>
</defs>
</svg>
