<svg width="24" height="24" viewBox="0 0 24 24" fill="none" xmlns="http://www.w3.org/2000/svg">
<path d="M10.752 20C10.9509 20 11.1417 20.079 11.2823 20.2197C11.423 20.3603 11.502 20.5511 11.502 20.75C11.502 20.9489 11.423 21.1397 11.2823 21.2803C11.1417 21.421 10.9509 21.5 10.752 21.5C10.5531 21.5 10.3623 21.421 10.2217 21.2803C10.081 21.1397 10.002 20.9489 10.002 20.75C10.002 20.5511 10.081 20.3603 10.2217 20.2197C10.3623 20.079 10.5531 20 10.752 20ZM15.252 20C15.4509 20 15.6417 20.079 15.7823 20.2197C15.923 20.3603 16.002 20.5511 16.002 20.75C16.002 20.9489 15.923 21.1397 15.7823 21.2803C15.6417 21.421 15.4509 21.5 15.252 21.5C15.0531 21.5 14.8623 21.421 14.7217 21.2803C14.581 21.1397 14.502 20.9489 14.502 20.75C14.502 20.5511 14.581 20.3603 14.7217 20.2197C14.8623 20.079 15.0531 20 15.252 20ZM8.50201 19C8.70093 19 8.89169 19.079 9.03234 19.2197C9.173 19.3603 9.25201 19.5511 9.25201 19.75C9.25201 19.9489 9.173 20.1397 9.03234 20.2803C8.89169 20.421 8.70093 20.5 8.50201 20.5C8.3031 20.5 8.11234 20.421 7.97168 20.2803C7.83103 20.1397 7.75201 19.9489 7.75201 19.75C7.75201 19.5511 7.83103 19.3603 7.97168 19.2197C8.11234 19.079 8.3031 19 8.50201 19ZM13.002 19C13.2009 19 13.3917 19.079 13.5323 19.2197C13.673 19.3603 13.752 19.5511 13.752 19.75C13.752 19.9489 13.673 20.1397 13.5323 20.2803C13.3917 20.421 13.2009 20.5 13.002 20.5C12.8031 20.5 12.6123 20.421 12.4717 20.2803C12.331 20.1397 12.252 19.9489 12.252 19.75C12.252 19.5511 12.331 19.3603 12.4717 19.2197C12.6123 19.079 12.8031 19 13.002 19ZM17.502 19C17.7009 19 17.8917 19.079 18.0323 19.2197C18.173 19.3603 18.252 19.5511 18.252 19.75C18.252 19.9489 18.173 20.1397 18.0323 20.2803C17.8917 20.421 17.7009 20.5 17.502 20.5C17.3031 20.5 17.1123 20.421 16.9717 20.2803C16.831 20.1397 16.752 19.9489 16.752 19.75C16.752 19.5511 16.831 19.3603 16.9717 19.2197C17.1123 19.079 17.3031 19 17.502 19Z" fill="white"/>
<path d="M13.0024 6.00909C16.1714 6.00909 17.9684 8.10609 18.2304 10.6391H18.3104C18.7946 10.6384 19.2743 10.7332 19.7219 10.9179C20.1696 11.1027 20.5765 11.3738 20.9193 11.7158C21.2621 12.0578 21.5343 12.464 21.7201 12.9112C21.9059 13.3584 22.0019 13.8378 22.0024 14.3221C22.0017 14.8063 21.9057 15.2856 21.7198 15.7327C21.5339 16.1797 21.2618 16.5858 20.9189 16.9277C20.5761 17.2696 20.1693 17.5407 19.7217 17.7254C19.2741 17.91 18.7946 18.0048 18.3104 18.0041H7.69438C7.2102 18.0048 6.73062 17.91 6.28305 17.7254C5.83547 17.5407 5.42865 17.2696 5.08581 16.9277C4.74298 16.5858 4.47084 16.1797 4.28495 15.7327C4.09905 15.2856 4.00304 14.8063 4.00238 14.3221C4.00291 13.8378 4.09883 13.3584 4.28466 12.9112C4.4705 12.464 4.74261 12.0578 5.08546 11.7158C5.42831 11.3738 5.83517 11.1027 6.28281 10.9179C6.73046 10.7332 7.21011 10.6384 7.69438 10.6391H7.77438C8.03738 8.08909 9.83438 6.00909 13.0024 6.00909Z" fill="url(#paint0_radial_4_172)"/>
<path d="M4.36837 10.1641C4.43783 10.3317 4.44418 10.5188 4.38627 10.6907C4.32835 10.8626 4.21008 11.0077 4.05337 11.0991L3.96237 11.1441L3.03637 11.5281C2.86086 11.6006 2.66438 11.6038 2.48658 11.5371C2.30878 11.4704 2.1629 11.3388 2.07838 11.1687C1.99386 10.9987 1.977 10.8029 2.03119 10.6209C2.08538 10.4389 2.2066 10.2842 2.37037 10.1881L2.46237 10.1421L3.38837 9.7591C3.57204 9.68291 3.77845 9.68277 3.96222 9.75871C4.14599 9.83466 4.29208 9.98047 4.36837 10.1641ZM10.8554 5.3311L10.6834 5.3891C8.89937 6.0191 7.62137 7.3941 7.06837 9.2121L6.99837 9.4621L6.94037 9.7001L6.73438 9.7391C6.13611 9.86477 5.56857 10.1074 5.06437 10.4531C4.60604 9.66533 4.43484 8.74308 4.57991 7.8433C4.72497 6.94351 5.17733 6.1218 5.86002 5.51798C6.5427 4.91416 7.41352 4.56555 8.32429 4.53148C9.23505 4.49741 10.1295 4.77998 10.8554 5.3311ZM2.94037 5.3621L3.04637 5.3971L3.97237 5.7811C4.1465 5.85409 4.28669 5.99007 4.36495 6.16189C4.44322 6.33371 4.4538 6.52873 4.39459 6.708C4.33538 6.88728 4.21073 7.03763 4.04552 7.12904C3.88032 7.22044 3.68672 7.24618 3.50337 7.2011L3.40037 7.1681L2.47437 6.7841C2.30071 6.7109 2.16097 6.57499 2.08297 6.40343C2.00496 6.23187 1.9944 6.03723 2.0534 5.85824C2.11239 5.67924 2.2366 5.52902 2.40133 5.43746C2.56606 5.3459 2.75922 5.31971 2.94237 5.3641L2.94037 5.3621ZM6.75537 2.3761L6.80137 2.4671L7.18437 3.3941C7.25585 3.56946 7.25834 3.76536 7.19136 3.94248C7.12438 4.1196 6.99288 4.26483 6.82325 4.349C6.65363 4.43318 6.45844 4.45008 6.27688 4.39631C6.09531 4.34254 5.9408 4.22207 5.84437 4.0591L5.79837 3.9681L5.41537 3.0411C5.3439 2.86575 5.34141 2.66985 5.40839 2.49273C5.47537 2.31561 5.60687 2.17038 5.7765 2.0862C5.94612 2.00202 6.14131 1.98512 6.32287 2.0389C6.50444 2.09267 6.65895 2.21313 6.75537 2.3761ZM11.1094 2.0571C11.2754 2.12601 11.4112 2.25227 11.4919 2.41287C11.5727 2.57347 11.5931 2.75773 11.5494 2.9321L11.5144 3.0371L11.1314 3.9641C11.0584 4.13823 10.9224 4.27842 10.7506 4.35668C10.5788 4.43495 10.3838 4.44553 10.2045 4.38632C10.0252 4.32711 9.87484 4.20245 9.78344 4.03725C9.69203 3.87205 9.6663 3.67845 9.71138 3.4951L9.74537 3.3891L10.1294 2.4631C10.1671 2.37209 10.2223 2.28939 10.2919 2.21973C10.3616 2.15007 10.4443 2.09481 10.5353 2.05711C10.6263 2.01941 10.7238 2 10.8223 2C10.9208 2 11.0184 2.0194 11.1094 2.0571Z" fill="#FFFA50"/>
<defs>
<radialGradient id="paint0_radial_4_172" cx="0" cy="0" r="1" gradientUnits="userSpaceOnUse" gradientTransform="translate(13.4581 18.3713) rotate(-91.3671) scale(14.3246 21.4978)">
<stop stop-color="white"/>
<stop offset="1" stop-color="#FFFA50"/>
</radialGradient>
</defs>
</svg>
