<svg width="24" height="24" viewBox="0 0 24 24" fill="none" xmlns="http://www.w3.org/2000/svg">
<path d="M13.002 8.007C16.171 8.007 17.968 10.104 18.23 12.637H18.31C18.7943 12.6363 19.2739 12.7311 19.7216 12.9158C20.1692 13.1006 20.5761 13.3717 20.9189 13.7137C21.2618 14.0557 21.5339 14.4619 21.7197 14.9091C21.9056 15.3563 22.0015 15.8357 22.002 16.32C22.0014 16.8042 21.9053 17.2835 21.7194 17.7306C21.5336 18.1776 21.2614 18.5837 20.9186 18.9256C20.5757 19.2675 20.1689 19.5386 19.7213 19.7233C19.2738 19.9079 18.7942 20.0027 18.31 20.002H7.69401C7.20983 20.0027 6.73026 19.9079 6.28268 19.7233C5.8351 19.5386 5.42828 19.2675 5.08545 18.9256C4.74261 18.5837 4.47048 18.1776 4.28458 17.7306C4.09869 17.2835 4.00267 16.8042 4.00201 16.32C4.00254 15.8357 4.09846 15.3563 4.2843 14.9091C4.47013 14.4619 4.74225 14.0557 5.08509 13.7137C5.42794 13.3717 5.8348 13.1006 6.28245 12.9158C6.73009 12.7311 7.20975 12.6363 7.69401 12.637H7.77401C8.03701 10.087 9.83401 8.007 13.002 8.007Z" fill="url(#paint0_radial_4_158)"/>
<path d="M4.36801 12.162C4.43746 12.3296 4.44382 12.5167 4.3859 12.6886C4.32798 12.8605 4.20971 13.0056 4.05301 13.097L3.96201 13.142L3.03601 13.526C2.8605 13.5985 2.66402 13.6017 2.48621 13.535C2.30841 13.4683 2.16253 13.3367 2.07801 13.1666C1.9935 12.9966 1.97663 12.8008 2.03082 12.6188C2.08502 12.4368 2.20623 12.2821 2.37001 12.186L2.46201 12.14L3.38801 11.757C3.57168 11.6808 3.77809 11.6807 3.96186 11.7566C4.14563 11.8326 4.29172 11.9784 4.36801 12.162ZM10.855 7.329L10.683 7.387C8.89901 8.017 7.62101 9.392 7.06801 11.21L6.99801 11.46L6.94001 11.698L6.73401 11.737C6.13574 11.8627 5.56821 12.1053 5.06401 12.451C4.60568 11.6632 4.43448 10.741 4.57954 9.84119C4.7246 8.94141 5.17697 8.11969 5.85965 7.51587C6.54234 6.91205 7.41316 6.56345 8.32392 6.52938C9.23469 6.49531 10.1291 6.77787 10.855 7.329ZM2.94001 7.36L3.04601 7.395L3.97201 7.779C4.14613 7.85199 4.28632 7.98797 4.36459 8.15979C4.44285 8.3316 4.45344 8.52662 4.39422 8.7059C4.33501 8.88518 4.21036 9.03553 4.04516 9.12693C3.87995 9.21834 3.68635 9.24407 3.50301 9.199L3.40001 9.166L2.47401 8.782C2.30035 8.70879 2.16061 8.57289 2.0826 8.40132C2.0046 8.22976 1.99404 8.03512 2.05303 7.85613C2.11202 7.67714 2.23624 7.52692 2.40096 7.43535C2.56569 7.34379 2.75885 7.3176 2.94201 7.362L2.94001 7.36ZM6.75501 4.374L6.80101 4.465L7.18401 5.392C7.25548 5.56735 7.25798 5.76325 7.19099 5.94037C7.12401 6.11749 6.99251 6.26272 6.82289 6.3469C6.65326 6.43108 6.45808 6.44798 6.27651 6.3942C6.09494 6.34043 5.94044 6.21997 5.84401 6.057L5.79801 5.966L5.41501 5.039C5.34354 4.86364 5.34104 4.66774 5.40802 4.49062C5.475 4.3135 5.60651 4.16828 5.77613 4.0841C5.94575 3.99992 6.14094 3.98302 6.32251 4.03679C6.50407 4.09056 6.65858 4.21103 6.75501 4.374ZM11.109 4.055C11.275 4.12391 11.4108 4.25016 11.4916 4.41076C11.5723 4.57136 11.5927 4.75563 11.549 4.93L11.514 5.035L11.131 5.962C11.058 6.13612 10.922 6.27631 10.7502 6.35458C10.5784 6.43284 10.3834 6.44342 10.2041 6.38421C10.0248 6.325 9.87448 6.20035 9.78307 6.03514C9.69167 5.86994 9.66593 5.67634 9.71101 5.493L9.74501 5.387L10.129 4.461C10.1667 4.36998 10.2219 4.28729 10.2916 4.21762C10.3612 4.14796 10.4439 4.0927 10.5349 4.055C10.6259 4.0173 10.7235 3.9979 10.822 3.99789C10.9205 3.99789 11.018 4.0173 11.109 4.055Z" fill="#FFFA50"/>
<defs>
<radialGradient id="paint0_radial_4_158" cx="0" cy="0" r="1" gradientUnits="userSpaceOnUse" gradientTransform="translate(13.4577 20.3692) rotate(-91.3671) scale(14.3246 21.4978)">
<stop stop-color="white"/>
<stop offset="1" stop-color="#FFFA50"/>
</radialGradient>
</defs>
</svg>
