<svg width="120" height="121" viewBox="0 0 120 121" fill="none" xmlns="http://www.w3.org/2000/svg">
<g filter="url(#filter0_d_158_3839)">
<path fill-rule="evenodd" clip-rule="evenodd" d="M60 24.9693C67.9618 29.2539 73.383 37.7361 73.383 47.5C73.383 57.2639 67.9618 65.7461 60 70.0307C63.5221 71.9261 67.5414 73 71.8085 73C85.7214 73 97 61.5833 97 47.5C97 33.4167 85.7214 22 71.8085 22C67.5414 22 63.5221 23.0739 60 24.9693Z" fill="#D580FF"/>
</g>
<path d="M40.6154 83.6916C39.1385 88.6241 36 89.9572 36 93.4343C36 96.5116 38.4808 99 41.5385 99C44.5962 99 47.0769 96.5116 47.0769 93.4343C47.0769 89.9461 43.9385 88.6463 42.4615 83.6916C42.2077 82.7918 40.9038 82.7474 40.6154 83.6916ZM59.0769 83.6916C57.6 88.6241 54.4615 89.9572 54.4615 93.4343C54.4615 96.5116 56.9423 99 60 99C63.0577 99 65.5385 96.5116 65.5385 93.4343C65.5385 89.9461 62.4 88.6463 60.9231 83.6916C60.6692 82.7918 59.3654 82.7474 59.0769 83.6916ZM77.5385 83.6916C76.0615 88.6241 72.9231 89.9572 72.9231 93.4343C72.9231 96.5116 75.4038 99 78.4615 99C81.5192 99 84 96.5116 84 93.4343C84 89.9461 80.8615 88.6463 79.3846 83.6916C79.1308 82.7918 77.8269 82.7474 77.5385 83.6916Z" fill="#D580FF"/>
<path d="M40.2308 84.6484C38.8769 89.2726 36 90.5224 36 93.7822C36 96.6671 38.274 99 41.0769 99C43.8798 99 46.1538 96.6671 46.1538 93.7822C46.1538 90.5119 43.2769 89.2934 41.9231 84.6484C41.6904 83.8048 40.4952 83.7632 40.2308 84.6484Z" fill="#D580FF"/>
<path d="M59.2308 84.6484C57.8769 89.2726 55 90.5224 55 93.7822C55 96.6671 57.274 99 60.0769 99C62.8798 99 65.1538 96.6671 65.1538 93.7822C65.1538 90.5119 62.2769 89.2934 60.9231 84.6484C60.6904 83.8048 59.4952 83.7632 59.2308 84.6484Z" fill="#D580FF"/>
<path d="M78.2308 84.6484C76.8769 89.2726 74 90.5224 74 93.7822C74 96.6671 76.274 99 79.0769 99C81.8798 99 84.1538 96.6671 84.1538 93.7822C84.1538 90.5119 81.2769 89.2934 79.9231 84.6484C79.6904 83.8048 78.4952 83.7632 78.2308 84.6484Z" fill="#D580FF"/>
<path d="M87.0625 59.2C86.9629 59.2 86.8799 59.2331 86.7969 59.2331C86.9795 58.3719 87.0625 57.4775 87.0625 56.55C87.0625 49.2294 81.1191 43.3 73.7812 43.3C69.6973 43.3 66.0947 45.1716 63.6543 48.07C60.5664 42.1075 54.4072 38 47.2188 38C36.9424 38 28.625 46.2978 28.625 56.55C28.625 57.7591 28.7578 58.9184 28.9736 60.0613C22.6152 62.1481 18 68.0609 18 75.1C18 83.8781 25.1387 91 33.9375 91H87.0625C95.8613 91 103 83.8781 103 75.1C103 66.3219 95.8613 59.2 87.0625 59.2Z" fill="#FF99FF"/>
<path fill-rule="evenodd" clip-rule="evenodd" d="M83.4718 91.4085C83.1273 90.4781 82.5596 89.6535 81.928 88.7362C80.9965 87.3834 79.9262 85.8289 79.2286 83.4356C78.9763 82.5207 77.6801 82.4756 77.3933 83.4356C76.697 85.8139 75.6292 87.3692 74.6989 88.7242C74.0658 89.6463 73.4964 90.4756 73.151 91.4085H83.4718ZM65.1186 91.4085C64.7741 90.4781 64.2064 89.6535 63.5748 88.7362C62.6433 87.3834 61.573 85.8289 60.8754 83.4356C60.6231 82.5207 59.3269 82.4756 59.0401 83.4356C58.3438 85.8139 57.276 87.3692 56.3457 88.7242C55.7126 89.6463 55.1432 90.4756 54.7978 91.4085H65.1186ZM46.7654 91.4085C46.4209 90.4781 45.8532 89.6535 45.2216 88.7362C44.2901 87.3834 43.2198 85.8289 42.5222 83.4356C42.2699 82.5207 40.9737 82.4756 40.6869 83.4356C39.9906 85.8139 38.9228 87.3692 37.9925 88.7242C37.3594 89.6463 36.79 90.4756 36.4446 91.4085H46.7654Z" fill="#9966FF"/>
<path fill-rule="evenodd" clip-rule="evenodd" d="M93.6276 60.8205C91.6786 59.9862 89.5304 59.5239 87.2738 59.5239C87.2213 59.5239 87.1734 59.533 87.1276 59.5417C87.0859 59.5496 87.046 59.5571 87.006 59.5571C87.1901 58.6936 87.2738 57.7968 87.2738 56.8669C87.2738 49.5268 81.2831 43.5817 73.8869 43.5817C73.6573 43.5817 73.4291 43.5875 73.2026 43.599C73.3966 44.8663 73.4972 46.1644 73.4972 47.4859C73.4972 57.2444 68.0126 65.7219 59.9578 70.0041C63.521 71.8985 67.5873 72.9718 71.9043 72.9718C81.0913 72.9718 89.143 68.1108 93.6276 60.8205Z" fill="#9966FF"/>
<defs>
<filter id="filter0_d_158_3839" x="38" y="0" width="81" height="95" filterUnits="userSpaceOnUse" color-interpolation-filters="sRGB">
<feFlood flood-opacity="0" result="BackgroundImageFix"/>
<feColorMatrix in="SourceAlpha" type="matrix" values="0 0 0 0 0 0 0 0 0 0 0 0 0 0 0 0 0 0 127 0" result="hardAlpha"/>
<feOffset/>
<feGaussianBlur stdDeviation="11"/>
<feComposite in2="hardAlpha" operator="out"/>
<feColorMatrix type="matrix" values="0 0 0 0 0.9375 0 0 0 0 0.195312 0 0 0 0 0.81875 0 0 0 1 0"/>
<feBlend mode="color" in2="BackgroundImageFix" result="effect1_dropShadow_158_3839"/>
<feBlend mode="normal" in="SourceGraphic" in2="effect1_dropShadow_158_3839" result="shape"/>
</filter>
</defs>
</svg>
