<svg width="120" height="127" viewBox="0 0 120 127" fill="none" xmlns="http://www.w3.org/2000/svg">
<g filter="url(#filter0_d_158_3825)">
<path fill-rule="evenodd" clip-rule="evenodd" d="M58 24.7364C65.4272 28.6849 70.4844 36.5019 70.4844 45.5C70.4844 54.4981 65.4272 62.3151 58 66.2636C61.2856 68.0103 65.035 69 69.0156 69C81.9943 69 92.5156 58.4787 92.5156 45.5C92.5156 32.5213 81.9943 22 69.0156 22C65.035 22 61.2856 22.9897 58 24.7364Z" fill="#D580FF"/>
</g>
<path d="M83.1875 56.6C83.0949 56.6 83.0178 56.6306 82.9406 56.6306C83.1104 55.8344 83.1875 55.0075 83.1875 54.15C83.1875 47.3819 77.6637 41.9 70.8438 41.9C67.048 41.9 63.6998 43.6303 61.4316 46.31C58.5617 40.7975 52.8373 37 46.1562 37C36.6053 37 28.875 44.6716 28.875 54.15C28.875 55.2678 28.9984 56.3397 29.199 57.3962C23.2895 59.3256 19 64.7922 19 71.3C19 79.4156 25.6348 86 33.8125 86H83.1875C91.3652 86 98 79.4156 98 71.3C98 63.1844 91.3652 56.6 83.1875 56.6Z" fill="#FF99FF"/>
<path fill-rule="evenodd" clip-rule="evenodd" d="M89.0462 57.7956C87.2491 57.0263 85.2682 56.6 83.1875 56.6C83.1391 56.6 83.0949 56.6084 83.0528 56.6164C83.0143 56.6237 82.9774 56.6306 82.9406 56.6306C83.1103 55.8344 83.1875 55.0075 83.1875 54.15C83.1875 47.3819 77.6637 41.9 70.8438 41.9C70.632 41.9 70.4217 41.9054 70.2128 41.916C70.3916 43.0846 70.4844 44.2815 70.4844 45.5C70.4844 54.4981 65.4272 62.3151 58 66.2636C61.2856 68.0103 65.035 69 69.0156 69C77.4868 69 84.911 64.5178 89.0462 57.7956Z" fill="#9966FF"/>
<path d="M78 89.2222V77L69 92.7778H78V105L87 89.2222H78Z" fill="#D580FF"/>
<path d="M36 89.2222V77L27 92.7778H36V105L45 89.2222H36Z" fill="#D580FF"/>
<path d="M57 98.2222V86L48 101.778H57V114L66 98.2222H57Z" fill="#D580FF"/>
<path fill-rule="evenodd" clip-rule="evenodd" d="M78 86V77L72.8662 86H78ZM36 86V77L31.0512 85.6757C32.0214 85.8881 33.029 86 34.0625 86H36Z" fill="#9966FF"/>
<path d="M45.2308 107.648C43.8769 112.273 41 113.522 41 116.782C41 119.667 43.274 122 46.0769 122C48.8798 122 51.1538 119.667 51.1538 116.782C51.1538 113.512 48.2769 112.293 46.9231 107.648C46.6904 106.805 45.4952 106.763 45.2308 107.648Z" fill="#D580FF"/>
<path d="M67.2308 107.648C65.8769 112.273 63 113.522 63 116.782C63 119.667 65.274 122 68.0769 122C70.8798 122 73.1538 119.667 73.1538 116.782C73.1538 113.512 70.2769 112.293 68.9231 107.648C68.6904 106.805 67.4952 106.763 67.2308 107.648Z" fill="#D580FF"/>
<defs>
<filter id="filter0_d_158_3825" x="36" y="0" width="78.5156" height="91" filterUnits="userSpaceOnUse" color-interpolation-filters="sRGB">
<feFlood flood-opacity="0" result="BackgroundImageFix"/>
<feColorMatrix in="SourceAlpha" type="matrix" values="0 0 0 0 0 0 0 0 0 0 0 0 0 0 0 0 0 0 127 0" result="hardAlpha"/>
<feOffset/>
<feGaussianBlur stdDeviation="11"/>
<feComposite in2="hardAlpha" operator="out"/>
<feColorMatrix type="matrix" values="0 0 0 0 0.9375 0 0 0 0 0.195312 0 0 0 0 0.81875 0 0 0 1 0"/>
<feBlend mode="color" in2="BackgroundImageFix" result="effect1_dropShadow_158_3825"/>
<feBlend mode="normal" in="SourceGraphic" in2="effect1_dropShadow_158_3825" result="shape"/>
</filter>
</defs>
</svg>
