<svg width="24" height="24" viewBox="0 0 24 24" fill="none" xmlns="http://www.w3.org/2000/svg">
<path d="M13.002 6.01C16.171 6.01 17.968 8.108 18.23 10.64H18.31C18.7943 10.6393 19.2739 10.7341 19.7216 10.9188C20.1692 11.1036 20.5761 11.3747 20.9189 11.7167C21.2618 12.0587 21.5339 12.4649 21.7197 12.9121C21.9056 13.3593 22.0015 13.8387 22.002 14.323C22.0015 14.8073 21.9056 15.2867 21.7197 15.7339C21.5339 16.1811 21.2618 16.5873 20.9189 16.9293C20.5761 17.2713 20.1692 17.5424 19.7216 17.7272C19.2739 17.9119 18.7943 18.0067 18.31 18.006H17.794L16.149 20.632C16.0539 20.7964 15.9 20.9187 15.7182 20.974C15.5365 21.0294 15.3406 21.0137 15.17 20.9301C14.9994 20.8466 14.8668 20.7015 14.7991 20.524C14.7313 20.3465 14.7334 20.15 14.805 19.974L14.85 19.882L16.062 18.005H13.926L12.281 20.632C12.1859 20.7964 12.032 20.9187 11.8502 20.974C11.6685 21.0294 11.4726 21.0137 11.302 20.9301C11.1314 20.8466 10.9988 20.7015 10.9311 20.524C10.8633 20.3465 10.8654 20.15 10.937 19.974L10.982 19.882L12.194 18.005H10.058L8.41301 20.632C8.31791 20.7964 8.16396 20.9187 7.98224 20.974C7.80052 21.0294 7.60458 21.0137 7.43397 20.9301C7.26336 20.8466 7.1308 20.7015 7.06306 20.524C6.99532 20.3465 6.99744 20.15 7.06901 19.974L7.11401 19.882L8.32601 18.005H7.69501C7.21082 18.0057 6.73125 17.9109 6.28367 17.7263C5.83609 17.5416 5.42927 17.2705 5.08644 16.9286C4.74361 16.5867 4.47147 16.1806 4.28558 15.7336C4.09968 15.2865 4.00366 14.8072 4.00301 14.323C4.00353 13.8387 4.09945 13.3593 4.28529 12.9121C4.47113 12.4649 4.74324 12.0587 5.08609 11.7167C5.42893 11.3747 5.8358 11.1036 6.28344 10.9188C6.73109 10.7341 7.21074 10.6393 7.69501 10.64H7.77501C8.03801 8.091 9.83401 6.01 13.002 6.01V6.01ZM4.36801 10.166C4.43718 10.3335 4.44339 10.5203 4.38549 10.692C4.32758 10.8637 4.20948 11.0086 4.05301 11.1L3.96201 11.146L3.03601 11.529C2.8605 11.6015 2.66402 11.6047 2.48621 11.538C2.30841 11.4713 2.16253 11.3397 2.07801 11.1696C1.9935 10.9996 1.97663 10.8038 2.03082 10.6218C2.08502 10.4398 2.20623 10.2851 2.37001 10.189L2.46201 10.144L3.38801 9.76C3.47901 9.7223 3.57655 9.70289 3.67506 9.7029C3.77356 9.7029 3.8711 9.7223 3.96211 9.76C4.05311 9.79771 4.1358 9.85296 4.20544 9.92263C4.27509 9.99229 4.33033 10.075 4.36801 10.166V10.166ZM10.855 5.333L10.683 5.39C8.90001 6.02 7.62101 7.396 7.06801 9.213L6.99801 9.463L6.94001 9.702L6.73401 9.74C6.13565 9.86592 5.5681 10.1089 5.06401 10.455C4.60568 9.66723 4.43448 8.74498 4.57954 7.84519C4.7246 6.94541 5.17697 6.12369 5.85965 5.51987C6.54234 4.91606 7.41316 4.56745 8.32392 4.53338C9.23469 4.49931 10.1291 4.78188 10.855 5.333V5.333ZM2.94101 5.363L3.04701 5.399L3.97301 5.782C4.1488 5.85387 4.29078 5.98976 4.37029 6.16224C4.44979 6.33471 4.4609 6.53093 4.40138 6.71128C4.34186 6.89163 4.21613 7.04268 4.04958 7.13394C3.88302 7.22521 3.68805 7.24989 3.50401 7.203L3.40001 7.168L2.47401 6.784C2.30035 6.71079 2.16061 6.57489 2.0826 6.40333C2.0046 6.23177 1.99404 6.03712 2.05303 5.85813C2.11202 5.67914 2.23624 5.52892 2.40096 5.43736C2.56569 5.34579 2.75885 5.3196 2.94201 5.364L2.94101 5.363ZM6.75601 2.377L6.80201 2.469L7.18501 3.395C7.25648 3.57035 7.25898 3.76626 7.19199 3.94338C7.12501 4.12049 6.99351 4.26572 6.82389 4.3499C6.65426 4.43408 6.45908 4.45098 6.27751 4.39721C6.09594 4.34343 5.94144 4.22297 5.84501 4.06L5.79901 3.969L5.41601 3.043C5.3435 2.86749 5.34027 2.67101 5.40696 2.4932C5.47366 2.3154 5.60532 2.16952 5.77538 2.085C5.94543 2.00048 6.14121 1.98362 6.32322 2.03781C6.50522 2.09201 6.65989 2.21322 6.75601 2.377V2.377ZM11.11 2.059C11.2758 2.12789 11.4114 2.25398 11.4922 2.41436C11.5729 2.57474 11.5934 2.75877 11.55 2.933L11.515 3.039L11.132 3.965C11.059 4.13912 10.923 4.27931 10.7512 4.35758C10.5794 4.43584 10.3844 4.44643 10.2051 4.38721C10.0258 4.328 9.87548 4.20335 9.78407 4.03815C9.69267 3.87294 9.66693 3.67934 9.71201 3.496L9.74601 3.391L10.13 2.465C10.1677 2.37399 10.2229 2.29129 10.2926 2.22163C10.3622 2.15197 10.4449 2.09671 10.5359 2.059C10.6269 2.0213 10.7245 2.0019 10.823 2.0019C10.9215 2.0019 11.019 2.0213 11.11 2.059V2.059Z" fill="#FFFA50"/>
</svg>
