<svg width="24" height="24" viewBox="0 0 24 24" fill="none" xmlns="http://www.w3.org/2000/svg">
<path d="M10.752 20C10.9509 20 11.1417 20.079 11.2823 20.2197C11.423 20.3603 11.502 20.5511 11.502 20.75C11.502 20.9489 11.423 21.1397 11.2823 21.2803C11.1417 21.421 10.9509 21.5 10.752 21.5C10.5531 21.5 10.3623 21.421 10.2217 21.2803C10.081 21.1397 10.002 20.9489 10.002 20.75C10.002 20.5511 10.081 20.3603 10.2217 20.2197C10.3623 20.079 10.5531 20 10.752 20ZM15.252 20C15.4509 20 15.6417 20.079 15.7823 20.2197C15.923 20.3603 16.002 20.5511 16.002 20.75C16.002 20.9489 15.923 21.1397 15.7823 21.2803C15.6417 21.421 15.4509 21.5 15.252 21.5C15.0531 21.5 14.8623 21.421 14.7217 21.2803C14.581 21.1397 14.502 20.9489 14.502 20.75C14.502 20.5511 14.581 20.3603 14.7217 20.2197C14.8623 20.079 15.0531 20 15.252 20V20ZM8.50201 19C8.70092 19 8.89169 19.079 9.03234 19.2197C9.17299 19.3603 9.25201 19.5511 9.25201 19.75C9.25201 19.9489 9.17299 20.1397 9.03234 20.2803C8.89169 20.421 8.70092 20.5 8.50201 20.5C8.3031 20.5 8.11233 20.421 7.97168 20.2803C7.83103 20.1397 7.75201 19.9489 7.75201 19.75C7.75201 19.5511 7.83103 19.3603 7.97168 19.2197C8.11233 19.079 8.3031 19 8.50201 19ZM13.002 19C13.2009 19 13.3917 19.079 13.5323 19.2197C13.673 19.3603 13.752 19.5511 13.752 19.75C13.752 19.9489 13.673 20.1397 13.5323 20.2803C13.3917 20.421 13.2009 20.5 13.002 20.5C12.8031 20.5 12.6123 20.421 12.4717 20.2803C12.331 20.1397 12.252 19.9489 12.252 19.75C12.252 19.5511 12.331 19.3603 12.4717 19.2197C12.6123 19.079 12.8031 19 13.002 19V19ZM17.502 19C17.7009 19 17.8917 19.079 18.0323 19.2197C18.173 19.3603 18.252 19.5511 18.252 19.75C18.252 19.9489 18.173 20.1397 18.0323 20.2803C17.8917 20.421 17.7009 20.5 17.502 20.5C17.3031 20.5 17.1123 20.421 16.9717 20.2803C16.831 20.1397 16.752 19.9489 16.752 19.75C16.752 19.5511 16.831 19.3603 16.9717 19.2197C17.1123 19.079 17.3031 19 17.502 19V19ZM13.002 6.00999C16.171 6.00999 17.968 8.108 18.23 10.64H18.31C18.7943 10.6393 19.2739 10.7341 19.7216 10.9188C20.1692 11.1036 20.5761 11.3747 20.9189 11.7167C21.2618 12.0587 21.5339 12.4649 21.7197 12.9121C21.9056 13.3593 22.0015 13.8387 22.002 14.323C22.0015 14.8073 21.9056 15.2867 21.7197 15.7339C21.5339 16.1811 21.2618 16.5873 20.9189 16.9293C20.5761 17.2713 20.1692 17.5424 19.7216 17.7272C19.2739 17.9119 18.7943 18.0067 18.31 18.006H7.69401C7.20974 18.0067 6.73009 17.9119 6.28244 17.7272C5.8348 17.5424 5.42793 17.2713 5.08509 16.9293C4.74224 16.5873 4.47013 16.1811 4.28429 15.7339C4.09845 15.2867 4.00253 14.8073 4.00201 14.323C4.00253 13.8387 4.09845 13.3593 4.28429 12.9121C4.47013 12.4649 4.74224 12.0587 5.08509 11.7167C5.42793 11.3747 5.8348 11.1036 6.28244 10.9188C6.73009 10.7341 7.20974 10.6393 7.69401 10.64H7.77401C8.03701 8.091 9.83301 6.00999 13.001 6.00999H13.002ZM4.36801 10.166C4.43718 10.3335 4.44339 10.5203 4.38549 10.692C4.32758 10.8637 4.20948 11.0086 4.05301 11.1L3.96201 11.146L3.03601 11.529C2.8605 11.6015 2.66402 11.6047 2.48621 11.538C2.30841 11.4713 2.16253 11.3397 2.07801 11.1696C1.9935 10.9996 1.97663 10.8038 2.03082 10.6218C2.08502 10.4398 2.20623 10.2851 2.37001 10.189L2.46201 10.144L3.38801 9.75999C3.47901 9.72229 3.57655 9.70289 3.67506 9.70289C3.77356 9.70289 3.8711 9.7223 3.96211 9.76C4.05311 9.7977 4.1358 9.85296 4.20544 9.92262C4.27509 9.99228 4.33033 10.075 4.36801 10.166V10.166ZM10.855 5.33299L10.683 5.38999C8.90001 6.01999 7.62101 7.396 7.06801 9.213L6.99801 9.463L6.94001 9.70199L6.73401 9.73999C6.13565 9.86591 5.5681 10.1089 5.06401 10.455C4.60568 9.66722 4.43448 8.74497 4.57954 7.84519C4.7246 6.94541 5.17697 6.12369 5.85965 5.51987C6.54234 4.91605 7.41316 4.56745 8.32392 4.53337C9.23469 4.4993 10.1291 4.78187 10.855 5.33299V5.33299ZM2.94101 5.36299L3.04701 5.39899L3.97301 5.78199C4.1488 5.85387 4.29078 5.98976 4.37029 6.16224C4.44979 6.33471 4.4609 6.53093 4.40138 6.71128C4.34186 6.89162 4.21613 7.04268 4.04958 7.13394C3.88302 7.2252 3.68805 7.24988 3.50401 7.20299L3.40001 7.16799L2.47401 6.78399C2.30035 6.71079 2.16061 6.57488 2.0826 6.40332C2.0046 6.23176 1.99404 6.03712 2.05303 5.85813C2.11202 5.67914 2.23624 5.52891 2.40096 5.43735C2.56569 5.34579 2.75885 5.3196 2.94201 5.36399L2.94101 5.36299ZM6.75601 2.37699L6.80201 2.46899L7.18501 3.39499C7.25648 3.57035 7.25898 3.76625 7.19199 3.94337C7.12501 4.12049 6.99351 4.26572 6.82389 4.3499C6.65426 4.43407 6.45908 4.45097 6.27751 4.3972C6.09594 4.34343 5.94144 4.22297 5.84501 4.05999L5.79901 3.96899L5.41601 3.04299C5.3435 2.86748 5.34027 2.671 5.40696 2.4932C5.47366 2.3154 5.60532 2.16952 5.77538 2.085C5.94543 2.00048 6.14121 1.98362 6.32322 2.03781C6.50522 2.092 6.65989 2.21322 6.75601 2.37699V2.37699ZM11.11 2.05899C11.2758 2.12788 11.4114 2.25397 11.4922 2.41436C11.5729 2.57474 11.5934 2.75877 11.55 2.93299L11.515 3.03899L11.132 3.96499C11.059 4.13912 10.923 4.27931 10.7512 4.35757C10.5794 4.43584 10.3844 4.44642 10.2051 4.38721C10.0258 4.328 9.87548 4.20335 9.78407 4.03814C9.69267 3.87294 9.66693 3.67934 9.71201 3.49599L9.74601 3.39099L10.13 2.46499C10.1677 2.37398 10.2229 2.29128 10.2926 2.22162C10.3622 2.15196 10.4449 2.0967 10.5359 2.059C10.6269 2.0213 10.7245 2.00189 10.823 2.00189C10.9215 2.00189 11.019 2.02129 11.11 2.05899Z" fill="#FFFA50"/>
</svg>
