<svg width="120" height="120" viewBox="0 0 120 120" fill="none" xmlns="http://www.w3.org/2000/svg">
<path d="M85.1875 68.6C85.0949 68.6 85.0178 68.6306 84.9406 68.6306C85.1104 67.8344 85.1875 67.0075 85.1875 66.15C85.1875 59.3819 79.6637 53.9 72.8438 53.9C69.048 53.9 65.6998 55.6303 63.4316 58.31C60.5617 52.7975 54.8373 49 48.1562 49C38.6053 49 30.875 56.6716 30.875 66.15C30.875 67.2678 30.9984 68.3397 31.199 69.3962C25.2895 71.3256 21 76.7922 21 83.3C21 91.4156 27.6348 98 35.8125 98H85.1875C93.3652 98 100 91.4156 100 83.3C100 75.1844 93.3652 68.6 85.1875 68.6Z" fill="#FF99FF"/>
<path fill-rule="evenodd" clip-rule="evenodd" d="M60 36.7364C67.4272 40.6849 72.4844 48.5019 72.4844 57.5C72.4844 66.4981 67.4272 74.3151 60 78.2636C63.2856 80.0103 67.035 81 71.0156 81C83.9943 81 94.5156 70.4787 94.5156 57.5C94.5156 44.5213 83.9943 34 71.0156 34C67.035 34 63.2856 34.9897 60 36.7364Z" fill="#D580FF"/>
<path fill-rule="evenodd" clip-rule="evenodd" d="M91.0462 69.7956C89.2491 69.0263 87.2682 68.6 85.1875 68.6C85.1391 68.6 85.0949 68.6084 85.0528 68.6164C85.0143 68.6236 84.9774 68.6306 84.9406 68.6306C85.1103 67.8344 85.1875 67.0075 85.1875 66.15C85.1875 59.3819 79.6637 53.9 72.8438 53.9C72.632 53.9 72.4217 53.9054 72.2128 53.916C72.3916 55.0846 72.4844 56.2814 72.4844 57.5C72.4844 66.4981 67.4272 74.315 60 78.2635C63.2856 80.0103 67.035 81 71.0156 81C79.4868 81 86.911 76.5178 91.0462 69.7956Z" fill="#9966FF"/>
</svg>
