<svg width="120" height="120" viewBox="0 0 120 120" fill="none" xmlns="http://www.w3.org/2000/svg">
<path d="M41.2308 58.6484C39.8769 63.2726 37 64.5224 37 67.7822C37 70.6671 39.274 73 42.0769 73C44.8798 73 47.1538 70.6671 47.1538 67.7822C47.1538 64.5119 44.2769 63.2934 42.9231 58.6484C42.6904 57.8048 41.4952 57.7632 41.2308 58.6484ZM58.1538 58.6484C56.8 63.2726 53.9231 64.5224 53.9231 67.7822C53.9231 70.6671 56.1971 73 59 73C61.8029 73 64.0769 70.6671 64.0769 67.7822C64.0769 64.5119 61.2 63.2934 59.8462 58.6484C59.6135 57.8048 58.4183 57.7632 58.1538 58.6484ZM75.0769 58.6484C73.7231 63.2726 70.8462 64.5224 70.8462 67.7822C70.8462 70.6671 73.1202 73 75.9231 73C78.726 73 81 70.6671 81 67.7822C81 64.5119 78.1231 63.2934 76.7692 58.6484C76.5365 57.8048 75.3413 57.7632 75.0769 58.6484Z" fill="#6A9CFF"/>
<path d="M82.9375 39.8C82.8496 39.8 82.7764 39.8294 82.7031 39.8294C82.8643 39.0656 82.9375 38.2725 82.9375 37.45C82.9375 30.9581 77.6934 25.7 71.2188 25.7C67.6152 25.7 64.4365 27.3597 62.2832 29.93C59.5586 24.6425 54.124 21 47.7812 21C38.7139 21 31.375 28.3584 31.375 37.45C31.375 38.5222 31.4922 39.5503 31.6826 40.5638C26.0723 42.4144 22 47.6578 22 53.9C22 61.6844 28.2988 68 36.0625 68H82.9375C90.7012 68 97 61.6844 97 53.9C97 46.1156 90.7012 39.8 82.9375 39.8Z" fill="#3FD5FE"/>
<path fill-rule="evenodd" clip-rule="evenodd" d="M80.9957 68C80.9985 67.9278 81 67.8552 81 67.7822C81 66.0656 80.2073 64.9143 79.2583 63.536C78.3994 62.2886 77.4124 60.8552 76.7692 58.6484C76.5365 57.8048 75.3413 57.7632 75.0769 58.6484C74.4349 60.8414 73.4503 62.2754 72.5924 63.5249C71.6414 64.91 70.8462 66.0683 70.8462 67.7822C70.8462 67.8552 70.8476 67.9278 70.8505 68H80.9957ZM64.0726 68C64.0755 67.9278 64.0769 67.8552 64.0769 67.7822C64.0769 66.0656 63.2842 64.9143 62.3352 63.536C61.4763 62.2886 60.4893 60.8552 59.8462 58.6484C59.6135 57.8048 58.4183 57.7632 58.1538 58.6484C57.5118 60.8414 56.5272 62.2754 55.6693 63.5249C54.7183 64.91 53.9231 66.0683 53.9231 67.7822C53.9231 67.8552 53.9245 67.9278 53.9274 68H64.0726ZM47.1495 68C47.1524 67.9278 47.1538 67.8552 47.1538 67.7822C47.1538 66.0656 46.3611 64.9143 45.4121 63.536C44.5532 62.2886 43.5663 60.8552 42.9231 58.6484C42.6904 57.8048 41.4952 57.7632 41.2308 58.6484C40.5887 60.8414 39.6041 62.2754 38.7463 63.5249C37.7952 64.91 37 66.0683 37 67.7822C37 67.8552 37.0015 67.9278 37.0043 68H47.1495Z" fill="#3377FF"/>
<path d="M58.1539 85.6484C56.8 90.2726 53.9231 91.5224 53.9231 94.7822C53.9231 97.6671 56.1971 100 59 100C61.8029 100 64.0769 97.6671 64.0769 94.7822C64.0769 91.5119 61.2 90.2934 59.8462 85.6484C59.6135 84.8048 58.4183 84.7632 58.1539 85.6484Z" fill="#6A9CFF"/>
<path d="M50.0625 72.6484C48.7625 77.2726 46 78.5224 46 81.7822C46 84.6671 48.1836 87 50.875 87C53.5664 87 55.75 84.6671 55.75 81.7822C55.75 78.5119 52.9875 77.2934 51.6875 72.6484C51.4641 71.8048 50.3164 71.7632 50.0625 72.6484ZM66.3125 72.6484C65.0125 77.2726 62.25 78.5224 62.25 81.7822C62.25 84.6671 64.4336 87 67.125 87C69.8164 87 72 84.6671 72 81.7822C72 78.5119 69.2375 77.2934 67.9375 72.6484C67.7141 71.8048 66.5664 71.7632 66.3125 72.6484Z" fill="#6A9CFF"/>
</svg>
