<svg width="120" height="120" viewBox="0 0 120 120" fill="none" xmlns="http://www.w3.org/2000/svg">
<path d="M51.4835 38C51.4835 47.1113 58.8953 54.5231 68.0066 54.5231C77.1179 54.5231 84.5297 47.1113 84.5297 38C84.5297 28.8887 77.1179 21.4769 68.0066 21.4769C58.8953 21.4769 51.4835 28.8887 51.4835 38ZM64.7 5H71.3V14.9H64.7V5ZM35 34.7H44.9V41.3H35V34.7ZM91.1 34.7H101V41.3H91.1V34.7ZM81.9986 19.3352L89.0012 12.3326L93.6674 16.9988L86.6648 24.0014L81.9986 19.3352ZM49.3352 24.0047L42.3359 17.0021L47.0054 12.3359L54.0014 19.3385L49.3352 24.0047Z" fill="#F7D056"/>
<path d="M83.1875 49.6C83.0949 49.6 83.0178 49.6306 82.9406 49.6306C83.1104 48.8344 83.1875 48.0075 83.1875 47.15C83.1875 40.3819 77.6637 34.9 70.8438 34.9C67.048 34.9 63.6998 36.6303 61.4316 39.31C58.5617 33.7975 52.8373 30 46.1562 30C36.6053 30 28.875 37.6716 28.875 47.15C28.875 48.2678 28.9984 49.3397 29.199 50.3962C23.2895 52.3256 19 57.7922 19 64.3C19 72.4156 25.6348 79 33.8125 79H83.1875C91.3652 79 98 72.4156 98 64.3C98 56.1844 91.3652 49.6 83.1875 49.6Z" fill="#FFFA50"/>
<path d="M78 82.2222V70L69 85.7778H78V98L87 82.2222H78Z" fill="#F7D056"/>
<path d="M36 82.2222V70L27 85.7778H36V98L45 82.2222H36Z" fill="#F7D056"/>
<path d="M57 91.2222V79L48 94.7778H57V107L66 91.2222H57Z" fill="#F7D056"/>
<path d="M45.1539 100.648C43.8 105.273 40.9231 106.522 40.9231 109.782C40.9231 112.667 43.1971 115 46 115C48.8029 115 51.0769 112.667 51.0769 109.782C51.0769 106.512 48.2 105.293 46.8462 100.648C46.6135 99.8048 45.4183 99.7632 45.1539 100.648ZM67.0769 100.648C65.7231 105.273 62.8462 106.522 62.8462 109.782C62.8462 112.667 65.1202 115 67.9231 115C70.726 115 73 112.667 73 109.782C73 106.512 70.1231 105.293 68.7692 100.648C68.5366 99.8048 67.3414 99.7632 67.0769 100.648Z" fill="#F7D056"/>
<path fill-rule="evenodd" clip-rule="evenodd" d="M78 79V70L72.8662 79H78ZM36 79V70L31.0512 78.6757C32.0214 78.8881 33.029 79 34.0625 79H36Z" fill="#FEB800"/>
<path fill-rule="evenodd" clip-rule="evenodd" d="M68.0066 54.5231C58.8953 54.5231 51.4835 47.1113 51.4835 38C51.4835 35.641 51.9804 33.3958 52.875 31.3638C56.5692 32.9379 59.5889 35.7704 61.4317 39.31C63.6998 36.6303 67.0481 34.9 70.8438 34.9C76.9107 34.9 81.9519 39.2382 82.9912 44.9608C80.3597 50.6034 74.6326 54.5231 68.0066 54.5231Z" fill="#FEB800"/>
</svg>
