<svg width="120" height="120" viewBox="0 0 120 120" fill="none" xmlns="http://www.w3.org/2000/svg">
<path d="M51.4835 44C51.4835 53.1113 58.8953 60.5231 68.0066 60.5231C77.1179 60.5231 84.5297 53.1113 84.5297 44C84.5297 34.8887 77.1179 27.4769 68.0066 27.4769C58.8953 27.4769 51.4835 34.8887 51.4835 44ZM64.7 11H71.3V20.9H64.7V11ZM35 40.7H44.9V47.3H35V40.7ZM91.1 40.7H101V47.3H91.1V40.7ZM81.9986 25.3352L89.0012 18.3326L93.6674 22.9988L86.6648 30.0014L81.9986 25.3352ZM49.3352 30.0047L42.3359 23.0021L47.0054 18.3359L54.0014 25.3385L49.3352 30.0047Z" fill="#F7D056"/>
<path d="M82.1875 53.6C82.0949 53.6 82.0178 53.6306 81.9406 53.6306C82.1104 52.8344 82.1875 52.0075 82.1875 51.15C82.1875 44.3819 76.6637 38.9 69.8438 38.9C66.048 38.9 62.6998 40.6303 60.4316 43.31C57.5617 37.7975 51.8373 34 45.1562 34C35.6053 34 27.875 41.6716 27.875 51.15C27.875 52.2678 27.9984 53.3397 28.199 54.3962C22.2895 56.3256 18 61.7922 18 68.3C18 76.4156 24.6348 83 32.8125 83H82.1875C90.3652 83 97 76.4156 97 68.3C97 60.1844 90.3652 53.6 82.1875 53.6Z" fill="#FFFA50"/>
<g style="mix-blend-mode:multiply">
<path fill-rule="evenodd" clip-rule="evenodd" d="M68.0066 60.5231C58.8953 60.5231 51.4835 53.1113 51.4835 44C51.4835 41.1588 52.2042 38.4829 53.4725 36.1454C56.439 37.7936 58.8621 40.2954 60.4316 43.31C62.6998 40.6303 66.048 38.9 69.8437 38.9C76.6637 38.9 82.1875 44.3819 82.1875 51.15C82.1875 51.6455 82.1617 52.1309 82.1072 52.606C79.2007 57.3509 73.9673 60.5231 68.0066 60.5231Z" fill="#FEB800"/>
</g>
<rect x="54.3612" y="75" width="4" height="17" fill="#F7D056"/>
<rect x="48" y="80.9821" width="4" height="17" transform="rotate(-60 48 80.9821)" fill="#F7D056"/>
<rect width="4" height="17" transform="matrix(-0.5 -0.866025 -0.866025 0.5 65.0836 80.4641)" fill="#F7D056"/>
<path fill-rule="evenodd" clip-rule="evenodd" d="M60.6913 83L65.0836 80.4641L63.0836 77L58.3612 79.7265V75H54.3612V80.0359L50 77.518L48 80.9821L51.4952 83H60.6913Z" fill="#FEB800"/>
<rect x="38.3612" y="92" width="4" height="17" fill="#F7D056"/>
<rect x="32" y="97.9821" width="4" height="17" transform="rotate(-60 32 97.9821)" fill="#F7D056"/>
<rect width="4" height="17" transform="matrix(-0.5 -0.866025 -0.866025 0.5 49.0836 97.4641)" fill="#F7D056"/>
<rect x="70.3612" y="92" width="4" height="17" fill="#F7D056"/>
<rect x="64" y="97.9821" width="4" height="17" transform="rotate(-60 64 97.9821)" fill="#F7D056"/>
<rect width="4" height="17" transform="matrix(-0.5 -0.866025 -0.866025 0.5 81.0836 97.4641)" fill="#F7D056"/>
</svg>
