<svg width="120" height="125" viewBox="0 0 120 125" fill="none" xmlns="http://www.w3.org/2000/svg">
<g filter="url(#filter0_d_158_3836)">
<path d="M51.4835 44C51.4835 53.1113 58.8953 60.5231 68.0066 60.5231C77.1179 60.5231 84.5297 53.1113 84.5297 44C84.5297 34.8887 77.1179 27.4769 68.0066 27.4769C58.8953 27.4769 51.4835 34.8887 51.4835 44ZM64.7 13C64.7 11.8954 65.5954 11 66.7 11H69.3C70.4046 11 71.3 11.8954 71.3 13V18.9C71.3 20.0046 70.4046 20.9 69.3 20.9H66.7C65.5954 20.9 64.7 20.0046 64.7 18.9V13ZM35 42.7C35 41.5954 35.8954 40.7 37 40.7H42.9C44.0046 40.7 44.9 41.5954 44.9 42.7V45.3C44.9 46.4046 44.0046 47.3 42.9 47.3H37C35.8954 47.3 35 46.4046 35 45.3V42.7ZM91.1 42.7C91.1 41.5954 91.9954 40.7 93.1 40.7H99C100.105 40.7 101 41.5954 101 42.7V45.3C101 46.4046 100.105 47.3 99 47.3H93.1C91.9954 47.3 91.1 46.4046 91.1 45.3V42.7ZM83.4128 26.7494C82.6318 25.9684 82.6318 24.702 83.4128 23.921L87.587 19.7468C88.368 18.9658 89.6344 18.9658 90.4154 19.7468L92.2532 21.5846C93.0342 22.3656 93.0342 23.632 92.2532 24.413L88.079 28.5872C87.298 29.3682 86.0316 29.3682 85.2506 28.5872L83.4128 26.7494ZM50.7497 28.5902C49.9686 29.3713 48.702 29.3712 47.921 28.5898L43.7499 24.4168C42.969 23.6355 42.9694 22.3691 43.7508 21.5882L45.5905 19.7498C46.3719 18.9689 47.6384 18.9695 48.4191 19.7509L52.5885 23.9243C53.3689 24.7054 53.3686 25.9713 52.5879 26.752L50.7497 28.5902Z" fill="#FFFA50"/>
</g>
<path d="M83.1875 55.6C83.0949 55.6 83.0178 55.6306 82.9406 55.6306C83.1104 54.8344 83.1875 54.0075 83.1875 53.15C83.1875 46.3819 77.6637 40.9 70.8438 40.9C67.048 40.9 63.6998 42.6303 61.4316 45.31C58.5617 39.7975 52.8373 36 46.1562 36C36.6053 36 28.875 43.6716 28.875 53.15C28.875 54.2678 28.9984 55.3397 29.199 56.3962C23.2895 58.3256 19 63.7922 19 70.3C19 78.4156 25.6348 85 33.8125 85H83.1875C91.3652 85 98 78.4156 98 70.3C98 62.1844 91.3652 55.6 83.1875 55.6Z" fill="url(#paint0_radial_158_3836)"/>
<path fill-rule="evenodd" clip-rule="evenodd" d="M68.0066 60.5231C58.8953 60.5231 51.4835 53.1113 51.4835 44C51.4835 41.641 51.9804 39.3958 52.875 37.3638C56.5692 38.9379 59.5889 41.7704 61.4317 45.31C63.6998 42.6303 67.0481 40.9 70.8438 40.9C76.9107 40.9 81.9519 45.2382 82.9912 50.9608C80.3597 56.6034 74.6326 60.5231 68.0066 60.5231Z" fill="#F7D056"/>
<rect x="40.5853" y="76" width="3.51214" height="15" rx="1" fill="url(#paint1_radial_158_3836)"/>
<rect width="3.5251" height="14.945" rx="1" transform="matrix(0.498161 -0.867085 0.86496 0.501841 35 81.2783)" fill="url(#paint2_radial_158_3836)"/>
<rect width="3.5251" height="14.945" rx="1" transform="matrix(-0.498161 -0.867085 -0.86496 0.501841 50 80.8213)" fill="url(#paint3_radial_158_3836)"/>
<rect x="68.5853" y="76" width="3.51214" height="15" rx="1" fill="url(#paint4_radial_158_3836)"/>
<rect width="3.5251" height="14.945" rx="1" transform="matrix(0.498161 -0.867085 0.86496 0.501841 63 81.2783)" fill="url(#paint5_radial_158_3836)"/>
<rect width="3.5251" height="14.945" rx="1" transform="matrix(-0.498161 -0.867085 -0.86496 0.501841 78 80.8213)" fill="url(#paint6_radial_158_3836)"/>
<rect x="54.5853" y="91" width="3.51214" height="15" rx="1" fill="url(#paint7_radial_158_3836)"/>
<rect width="3.5251" height="14.945" rx="1" transform="matrix(0.498161 -0.867085 0.86496 0.501841 49 96.2783)" fill="url(#paint8_radial_158_3836)"/>
<rect width="3.5251" height="14.945" rx="1" transform="matrix(-0.498161 -0.867085 -0.86496 0.501841 64 95.8213)" fill="url(#paint9_radial_158_3836)"/>
<path fill-rule="evenodd" clip-rule="evenodd" d="M48.5986 85.1308L45.6574 83.4327L49.1547 81.4136C49.633 81.1374 49.7969 80.5258 49.5207 80.0476L48.772 78.7508C48.4959 78.2725 47.8843 78.1086 47.406 78.3847L44.143 80.2686V77.136C44.143 76.5837 43.6952 76.136 43.143 76.136H41.6456C41.0933 76.136 40.6456 76.5837 40.6456 77.136V80.5392L37.6983 78.8376C37.2201 78.5615 36.6085 78.7253 36.3323 79.2036L35.5836 80.5004C35.3075 80.9787 35.4714 81.5903 35.9496 81.8664L38.6626 83.4327L35.7214 85.1308H48.5986Z" fill="#F7D056"/>
<path fill-rule="evenodd" clip-rule="evenodd" d="M76.5778 85.1308L73.6366 83.4327L77.1339 81.4136C77.6122 81.1374 77.7761 80.5258 77.5 80.0476L76.7513 78.7508C76.4751 78.2725 75.8635 78.1086 75.3852 78.3847L72.1222 80.2686V77.136C72.1222 76.5837 71.6745 76.136 71.1222 76.136H69.6248C69.0725 76.136 68.6248 76.5837 68.6248 77.136V80.5392L65.6776 78.8376C65.1993 78.5615 64.5877 78.7253 64.3116 79.2036L63.5629 80.5004C63.2867 80.9787 63.4506 81.5903 63.9289 81.8664L66.6418 83.4327L63.7006 85.1308H76.5778Z" fill="#F7D056"/>
<path d="M44.2308 102.648C42.8769 107.273 40 108.522 40 111.782C40 114.667 42.274 117 45.0769 117C47.8798 117 50.1538 114.667 50.1538 111.782C50.1538 108.512 47.2769 107.293 45.9231 102.648C45.6904 101.805 44.4952 101.763 44.2308 102.648Z" fill="url(#paint10_radial_158_3836)"/>
<path d="M66.2308 102.648C64.8769 107.273 62 108.522 62 111.782C62 114.667 64.274 117 67.0769 117C69.8798 117 72.1538 114.667 72.1538 111.782C72.1538 108.512 69.2769 107.293 67.9231 102.648C67.6904 101.805 66.4952 101.763 66.2308 102.648Z" fill="url(#paint11_radial_158_3836)"/>
<defs>
<filter id="filter0_d_158_3836" x="20" y="0" width="96" height="79.5231" filterUnits="userSpaceOnUse" color-interpolation-filters="sRGB">
<feFlood flood-opacity="0" result="BackgroundImageFix"/>
<feColorMatrix in="SourceAlpha" type="matrix" values="0 0 0 0 0 0 0 0 0 0 0 0 0 0 0 0 0 0 127 0" result="hardAlpha"/>
<feOffset dy="4"/>
<feGaussianBlur stdDeviation="7.5"/>
<feComposite in2="hardAlpha" operator="out"/>
<feColorMatrix type="matrix" values="0 0 0 0 1 0 0 0 0 0.980392 0 0 0 0 0.313725 0 0 0 0.36 0"/>
<feBlend mode="normal" in2="BackgroundImageFix" result="effect1_dropShadow_158_3836"/>
<feBlend mode="normal" in="SourceGraphic" in2="effect1_dropShadow_158_3836" result="shape"/>
</filter>
<radialGradient id="paint0_radial_158_3836" cx="0" cy="0" r="1" gradientUnits="userSpaceOnUse" gradientTransform="translate(60.5 86.5) rotate(-91.4688) scale(58.5192 94.3473)">
<stop stop-color="white"/>
<stop offset="1" stop-color="#FFFA50"/>
</radialGradient>
<radialGradient id="paint1_radial_158_3836" cx="0" cy="0" r="1" gradientUnits="userSpaceOnUse" gradientTransform="translate(42.4303 91.4592) rotate(-90.2134) scale(17.9083 4.19579)">
<stop stop-color="white"/>
<stop offset="1" stop-color="#FFFA50"/>
</radialGradient>
<radialGradient id="paint2_radial_158_3836" cx="0" cy="0" r="1" gradientUnits="userSpaceOnUse" gradientTransform="translate(1.85179 15.4025) rotate(-90.2149) scale(17.8426 4.21128)">
<stop stop-color="white"/>
<stop offset="1" stop-color="#FFFA50"/>
</radialGradient>
<radialGradient id="paint3_radial_158_3836" cx="0" cy="0" r="1" gradientUnits="userSpaceOnUse" gradientTransform="translate(1.85179 15.4025) rotate(-90.2149) scale(17.8426 4.21128)">
<stop stop-color="white"/>
<stop offset="1" stop-color="#FFFA50"/>
</radialGradient>
<radialGradient id="paint4_radial_158_3836" cx="0" cy="0" r="1" gradientUnits="userSpaceOnUse" gradientTransform="translate(70.4303 91.4592) rotate(-90.2134) scale(17.9083 4.19579)">
<stop stop-color="white"/>
<stop offset="1" stop-color="#FFFA50"/>
</radialGradient>
<radialGradient id="paint5_radial_158_3836" cx="0" cy="0" r="1" gradientUnits="userSpaceOnUse" gradientTransform="translate(1.85179 15.4025) rotate(-90.2149) scale(17.8426 4.21128)">
<stop stop-color="white"/>
<stop offset="1" stop-color="#FFFA50"/>
</radialGradient>
<radialGradient id="paint6_radial_158_3836" cx="0" cy="0" r="1" gradientUnits="userSpaceOnUse" gradientTransform="translate(1.85179 15.4025) rotate(-90.2149) scale(17.8426 4.21128)">
<stop stop-color="white"/>
<stop offset="1" stop-color="#FFFA50"/>
</radialGradient>
<radialGradient id="paint7_radial_158_3836" cx="0" cy="0" r="1" gradientUnits="userSpaceOnUse" gradientTransform="translate(56.4303 106.459) rotate(-90.2134) scale(17.9083 4.19579)">
<stop stop-color="white"/>
<stop offset="1" stop-color="#FFFA50"/>
</radialGradient>
<radialGradient id="paint8_radial_158_3836" cx="0" cy="0" r="1" gradientUnits="userSpaceOnUse" gradientTransform="translate(1.85179 15.4025) rotate(-90.2149) scale(17.8426 4.21128)">
<stop stop-color="white"/>
<stop offset="1" stop-color="#FFFA50"/>
</radialGradient>
<radialGradient id="paint9_radial_158_3836" cx="0" cy="0" r="1" gradientUnits="userSpaceOnUse" gradientTransform="translate(1.85179 15.4025) rotate(-90.2149) scale(17.8426 4.21128)">
<stop stop-color="white"/>
<stop offset="1" stop-color="#FFFA50"/>
</radialGradient>
<radialGradient id="paint10_radial_158_3836" cx="0" cy="0" r="1" gradientUnits="userSpaceOnUse" gradientTransform="translate(45.334 117.459) rotate(-90.6168) scale(17.9092 12.1297)">
<stop stop-color="white"/>
<stop offset="1" stop-color="#FFFA50"/>
</radialGradient>
<radialGradient id="paint11_radial_158_3836" cx="0" cy="0" r="1" gradientUnits="userSpaceOnUse" gradientTransform="translate(67.334 117.459) rotate(-90.6168) scale(17.9092 12.1297)">
<stop stop-color="white"/>
<stop offset="1" stop-color="#FFFA50"/>
</radialGradient>
</defs>
</svg>
