<svg width="120" height="131" viewBox="0 0 120 131" fill="none" xmlns="http://www.w3.org/2000/svg">
<g filter="url(#filter0_d_158_3834)">
<path fill-rule="evenodd" clip-rule="evenodd" d="M59 24.7364C66.4272 28.6849 71.4844 36.5019 71.4844 45.5C71.4844 54.4981 66.4272 62.3151 59 66.2636C62.2856 68.0103 66.035 69 70.0156 69C82.9943 69 93.5156 58.4787 93.5156 45.5C93.5156 32.5213 82.9943 22 70.0156 22C66.035 22 62.2856 22.9897 59 24.7364Z" fill="#D580FF"/>
</g>
<path d="M84.1875 56.6C84.0949 56.6 84.0178 56.6306 83.9406 56.6306C84.1104 55.8344 84.1875 55.0075 84.1875 54.15C84.1875 47.3819 78.6637 41.9 71.8438 41.9C68.048 41.9 64.6998 43.6303 62.4316 46.31C59.5617 40.7975 53.8373 37 47.1562 37C37.6053 37 29.875 44.6716 29.875 54.15C29.875 55.2678 29.9984 56.3397 30.199 57.3962C24.2895 59.3256 20 64.7922 20 71.3C20 79.4156 26.6348 86 34.8125 86H84.1875C92.3652 86 99 79.4156 99 71.3C99 63.1844 92.3652 56.6 84.1875 56.6Z" fill="#FF99FF"/>
<rect x="43.5853" y="79" width="3.51214" height="15" rx="1" fill="#D580FF"/>
<rect width="3.5251" height="14.945" rx="1" transform="matrix(0.498161 -0.867085 0.86496 0.501841 38 84.2783)" fill="#D580FF"/>
<rect width="3.5251" height="14.945" rx="1" transform="matrix(-0.498161 -0.867085 -0.86496 0.501841 53 83.8213)" fill="#D580FF"/>
<rect x="71.5853" y="79" width="3.51214" height="15" rx="1" fill="#D580FF"/>
<rect width="3.5251" height="14.945" rx="1" transform="matrix(0.498161 -0.867085 0.86496 0.501841 66 84.2783)" fill="#D580FF"/>
<rect width="3.5251" height="14.945" rx="1" transform="matrix(-0.498161 -0.867085 -0.86496 0.501841 81 83.8213)" fill="#D580FF"/>
<rect x="57.5853" y="94" width="3.51214" height="15" rx="1" fill="#D580FF"/>
<rect width="3.5251" height="14.945" rx="1" transform="matrix(0.498161 -0.867085 0.86496 0.501841 52 99.2783)" fill="#D580FF"/>
<rect width="3.5251" height="14.945" rx="1" transform="matrix(-0.498161 -0.867085 -0.86496 0.501841 67 98.8213)" fill="#D580FF"/>
<path fill-rule="evenodd" clip-rule="evenodd" d="M49.1803 86.1308L53.0207 83.9136L51.272 80.8847L47.143 83.2686V79.136H43.6456V83.5392L39.8323 81.3376L38.0836 84.3664L41.1396 86.1308H49.1803Z" fill="#9966FF"/>
<path fill-rule="evenodd" clip-rule="evenodd" d="M77.1596 86.1308L81 83.9136L79.2513 80.8847L75.1222 83.2686V79.136H71.6248V83.5392L67.8116 81.3376L66.0629 84.3664L69.1189 86.1308H77.1596Z" fill="#9966FF"/>
<path fill-rule="evenodd" clip-rule="evenodd" d="M90.0462 57.7956C88.2491 57.0263 86.2682 56.6 84.1875 56.6C84.1391 56.6 84.0949 56.6084 84.0528 56.6164C84.0143 56.6236 83.9774 56.6306 83.9406 56.6306C84.1103 55.8344 84.1875 55.0075 84.1875 54.15C84.1875 47.3819 78.6637 41.9 71.8438 41.9C71.632 41.9 71.4217 41.9054 71.2128 41.916C71.3916 43.0846 71.4844 44.2814 71.4844 45.5C71.4844 54.4981 66.4272 62.315 59 66.2635C62.2856 68.0103 66.035 69 70.0156 69C78.4868 69 85.911 64.5178 90.0462 57.7956Z" fill="#9966FF"/>
<path d="M47.2308 105.648C45.8769 110.273 43 111.522 43 114.782C43 117.667 45.274 120 48.0769 120C50.8798 120 53.1538 117.667 53.1538 114.782C53.1538 111.512 50.2769 110.293 48.9231 105.648C48.6904 104.805 47.4952 104.763 47.2308 105.648Z" fill="#D580FF"/>
<path d="M69.2308 105.648C67.8769 110.273 65 111.522 65 114.782C65 117.667 67.274 120 70.0769 120C72.8798 120 75.1538 117.667 75.1538 114.782C75.1538 111.512 72.2769 110.293 70.9231 105.648C70.6904 104.805 69.4952 104.763 69.2308 105.648Z" fill="#D580FF"/>
<defs>
<filter id="filter0_d_158_3834" x="37" y="0" width="78.5156" height="91" filterUnits="userSpaceOnUse" color-interpolation-filters="sRGB">
<feFlood flood-opacity="0" result="BackgroundImageFix"/>
<feColorMatrix in="SourceAlpha" type="matrix" values="0 0 0 0 0 0 0 0 0 0 0 0 0 0 0 0 0 0 127 0" result="hardAlpha"/>
<feOffset/>
<feGaussianBlur stdDeviation="11"/>
<feComposite in2="hardAlpha" operator="out"/>
<feColorMatrix type="matrix" values="0 0 0 0 0.9375 0 0 0 0 0.195312 0 0 0 0 0.81875 0 0 0 1 0"/>
<feBlend mode="color" in2="BackgroundImageFix" result="effect1_dropShadow_158_3834"/>
<feBlend mode="normal" in="SourceGraphic" in2="effect1_dropShadow_158_3834" result="shape"/>
</filter>
</defs>
</svg>
