<svg width="120" height="127" viewBox="0 0 120 127" fill="none" xmlns="http://www.w3.org/2000/svg">
<g filter="url(#filter0_d_158_3840)">
<path fill-rule="evenodd" clip-rule="evenodd" d="M59 24.7364C66.4272 28.6849 71.4844 36.5019 71.4844 45.5C71.4844 54.4981 66.4272 62.3151 59 66.2636C62.2856 68.0103 66.035 69 70.0156 69C82.9943 69 93.5156 58.4787 93.5156 45.5C93.5156 32.5213 82.9943 22 70.0156 22C66.035 22 62.2856 22.9897 59 24.7364Z" fill="#D580FF"/>
</g>
<path d="M84.1875 56.6C84.0949 56.6 84.0178 56.6306 83.9406 56.6306C84.1104 55.8344 84.1875 55.0075 84.1875 54.15C84.1875 47.3819 78.6637 41.9 71.8438 41.9C68.048 41.9 64.6998 43.6303 62.4316 46.31C59.5617 40.7975 53.8373 37 47.1562 37C37.6053 37 29.875 44.6716 29.875 54.15C29.875 55.2678 29.9984 56.3397 30.199 57.3962C24.2895 59.3256 20 64.7922 20 71.3C20 79.4156 26.6348 86 34.8125 86H84.1875C92.3652 86 99 79.4156 99 71.3C99 63.1844 92.3652 56.6 84.1875 56.6Z" fill="#FF99FF"/>
<path fill-rule="evenodd" clip-rule="evenodd" d="M90.0462 57.7956C88.2491 57.0263 86.2682 56.6 84.1875 56.6C84.1391 56.6 84.0949 56.6084 84.0528 56.6164C84.0143 56.6237 83.9774 56.6306 83.9406 56.6306C84.1103 55.8344 84.1875 55.0075 84.1875 54.15C84.1875 47.3819 78.6637 41.9 71.8438 41.9C71.632 41.9 71.4217 41.9054 71.2128 41.916C71.3916 43.0846 71.4844 44.2815 71.4844 45.5C71.4844 54.4981 66.4272 62.3151 59 66.2636C62.2856 68.0103 66.035 69 70.0156 69C78.4868 69 85.911 64.5178 90.0462 57.7956Z" fill="#9966FF"/>
<rect x="53.8406" y="78" width="3.04385" height="13" rx="1" fill="#D580FF"/>
<rect width="3.05509" height="12.9523" rx="1" transform="matrix(0.498161 -0.867085 0.86496 0.501841 49 82.5745)" fill="#D580FF"/>
<rect width="3.05509" height="12.9523" rx="1" transform="matrix(-0.498161 -0.867085 -0.86496 0.501841 62 82.1785)" fill="#D580FF"/>
<path fill-rule="evenodd" clip-rule="evenodd" d="M61.2115 86L58.2025 84.2628L61.134 82.5703C61.6123 82.2941 61.7761 81.6825 61.5 81.2043L60.9781 80.3003C60.7019 79.822 60.0903 79.6581 59.612 79.9342L56.8845 81.509V78.9123C56.8845 78.36 56.4368 77.9123 55.8845 77.9123H54.8406C54.2883 77.9123 53.8406 78.36 53.8406 78.9123V81.7444L51.3879 80.3284C50.9097 80.0522 50.2981 80.2161 50.0219 80.6944L49.5 81.5984C49.2238 82.0767 49.3877 82.6883 49.866 82.9644L52.1148 84.2628L49.2748 85.9024L49.3312 86H61.2115Z" fill="#9966FF"/>
<rect x="37.8406" y="95" width="3.04385" height="13" rx="1" fill="#D580FF"/>
<rect width="3.05509" height="12.9523" rx="1" transform="matrix(0.498161 -0.867085 0.86496 0.501841 33 99.5745)" fill="#D580FF"/>
<rect width="3.05509" height="12.9523" rx="1" transform="matrix(-0.498161 -0.867085 -0.86496 0.501841 46 99.1785)" fill="#D580FF"/>
<rect x="69.8406" y="95" width="3.04385" height="13" rx="1" fill="#D580FF"/>
<rect width="3.05509" height="12.9523" rx="1" transform="matrix(0.498161 -0.867085 0.86496 0.501841 65 99.5745)" fill="#D580FF"/>
<rect width="3.05509" height="12.9523" rx="1" transform="matrix(-0.498161 -0.867085 -0.86496 0.501841 78 99.1785)" fill="#D580FF"/>
<defs>
<filter id="filter0_d_158_3840" x="37" y="0" width="78.5156" height="91" filterUnits="userSpaceOnUse" color-interpolation-filters="sRGB">
<feFlood flood-opacity="0" result="BackgroundImageFix"/>
<feColorMatrix in="SourceAlpha" type="matrix" values="0 0 0 0 0 0 0 0 0 0 0 0 0 0 0 0 0 0 127 0" result="hardAlpha"/>
<feOffset/>
<feGaussianBlur stdDeviation="11"/>
<feComposite in2="hardAlpha" operator="out"/>
<feColorMatrix type="matrix" values="0 0 0 0 0.9375 0 0 0 0 0.195312 0 0 0 0 0.81875 0 0 0 1 0"/>
<feBlend mode="color" in2="BackgroundImageFix" result="effect1_dropShadow_158_3840"/>
<feBlend mode="normal" in="SourceGraphic" in2="effect1_dropShadow_158_3840" result="shape"/>
</filter>
</defs>
</svg>
