<svg width="18" height="18" viewBox="0 0 18 18" fill="none" xmlns="http://www.w3.org/2000/svg">
<path d="M9.17923 2.28564C9.28979 2.28564 9.39582 2.33174 9.47399 2.41379C9.55217 2.49583 9.59609 2.60711 9.59609 2.72314V3.59581C9.59609 3.71184 9.55217 3.82312 9.47399 3.90517C9.39582 3.98722 9.28979 4.03331 9.17923 4.03331C9.06867 4.03331 8.96264 3.98722 8.88446 3.90517C8.80628 3.82312 8.76236 3.71184 8.76236 3.59581V2.72314C8.76236 2.60711 8.80628 2.49583 8.88446 2.41379C8.96264 2.33174 9.06867 2.28564 9.17923 2.28564ZM15.4322 9.72314C15.5427 9.72314 15.6488 9.67705 15.7269 9.595C15.8051 9.51296 15.849 9.40168 15.849 9.28564C15.849 9.16961 15.8051 9.05833 15.7269 8.97629C15.6488 8.89424 15.5427 8.84814 15.4322 8.84814H14.6001C14.4896 8.84814 14.3835 8.89424 14.3053 8.97629C14.2272 9.05833 14.1833 9.16961 14.1833 9.28564C14.1833 9.40168 14.2272 9.51296 14.3053 9.595C14.3835 9.67705 14.4896 9.72314 14.6001 9.72314H15.4322ZM9.17923 14.538C9.28979 14.538 9.39582 14.5841 9.47399 14.6661C9.55217 14.7482 9.59609 14.8594 9.59609 14.9755V15.8481C9.59609 15.9642 9.55217 16.0755 9.47399 16.1575C9.39582 16.2396 9.28979 16.2856 9.17923 16.2856C9.06867 16.2856 8.96264 16.2396 8.88446 16.1575C8.80628 16.0755 8.76236 15.9642 8.76236 15.8481V14.9755C8.76236 14.8594 8.80628 14.7482 8.88446 14.6661C8.96264 14.5841 9.06867 14.538 9.17923 14.538ZM3.76 9.72314C3.87056 9.72314 3.97659 9.67705 4.05477 9.595C4.13295 9.51296 4.17687 9.40168 4.17687 9.28564C4.17687 9.16961 4.13295 9.05833 4.05477 8.97629C3.97659 8.89424 3.87056 8.84814 3.76 8.84814H2.92628C2.81572 8.84814 2.70969 8.89424 2.63151 8.97629C2.55333 9.05833 2.50941 9.16961 2.50941 9.28564C2.50941 9.40168 2.55333 9.51296 2.63151 9.595C2.70969 9.67705 2.81572 9.72314 2.92628 9.72314H3.76ZM4.29859 4.16339C4.37675 4.08146 4.48271 4.03545 4.59317 4.03545C4.70364 4.03545 4.8096 4.08146 4.88776 4.16339L5.72148 5.03839C5.79512 5.12133 5.83521 5.23102 5.8333 5.34437C5.8314 5.45771 5.78765 5.56585 5.71127 5.64601C5.63489 5.72617 5.53185 5.77208 5.42386 5.77408C5.31586 5.77608 5.21134 5.73401 5.13232 5.65673L4.29859 4.78173C4.22053 4.6997 4.17668 4.5885 4.17668 4.47256C4.17668 4.35662 4.22053 4.24543 4.29859 4.16339ZM4.88776 14.4067C4.80873 14.484 4.70422 14.5261 4.59622 14.5241C4.48822 14.5221 4.38518 14.4762 4.30881 14.396C4.23243 14.3158 4.18868 14.2077 4.18678 14.0944C4.18487 13.981 4.22496 13.8713 4.29859 13.7884L5.13232 12.9134C5.21134 12.8361 5.31586 12.794 5.42386 12.796C5.53185 12.798 5.63489 12.844 5.71127 12.9241C5.78765 13.0043 5.8314 13.1124 5.8333 13.2258C5.83521 13.3391 5.79512 13.4488 5.72148 13.5317L4.88776 14.4067ZM14.0587 4.16339C13.9806 4.08146 13.8746 4.03545 13.7642 4.03545C13.6537 4.03545 13.5477 4.08146 13.4696 4.16339L12.6359 5.03839C12.5622 5.12133 12.5221 5.23102 12.524 5.34437C12.5259 5.45771 12.5697 5.56585 12.6461 5.64601C12.7224 5.72617 12.8255 5.77208 12.9335 5.77408C13.0415 5.77608 13.146 5.73401 13.225 5.65673L14.0587 4.78173C14.1368 4.6997 14.1807 4.5885 14.1807 4.47256C14.1807 4.35662 14.1368 4.24543 14.0587 4.16339ZM13.4701 14.4073C13.5083 14.4503 13.5543 14.4848 13.6055 14.5087C13.6566 14.5326 13.7118 14.5455 13.7678 14.5465C13.8237 14.5475 13.8793 14.5367 13.9312 14.5147C13.9831 14.4927 14.0303 14.46 14.0699 14.4184C14.1095 14.3769 14.1407 14.3274 14.1616 14.2729C14.1826 14.2184 14.1929 14.1601 14.1919 14.1013C14.1909 14.0426 14.1787 13.9847 14.1559 13.931C14.1331 13.8773 14.1003 13.829 14.0593 13.789L13.2256 12.914C13.1874 12.871 13.1414 12.8365 13.0903 12.8126C13.0391 12.7887 12.9839 12.7758 12.928 12.7748C12.872 12.7738 12.8164 12.7846 12.7645 12.8066C12.7126 12.8286 12.6654 12.8613 12.6258 12.9029C12.5862 12.9444 12.555 12.9939 12.5341 13.0484C12.5131 13.1029 12.5028 13.1612 12.5038 13.2199C12.5048 13.2787 12.517 13.3366 12.5398 13.3903C12.5626 13.444 12.5955 13.4923 12.6364 13.5323L13.4701 14.4073Z" fill="#FEB800"/>
</svg>
