<svg width="25" height="24" viewBox="0 0 25 24" fill="none" xmlns="http://www.w3.org/2000/svg">
<path d="M18.1569 16.6569C17.2202 17.5935 15.2616 19.5521 13.9138 20.8999C13.1327 21.681 11.8677 21.6814 11.0866 20.9003C9.76234 19.576 7.84159 17.6553 6.84315 16.6569C3.71895 13.5327 3.71895 8.46734 6.84315 5.34315C9.96734 2.21895 15.0327 2.21895 18.1569 5.34315C21.281 8.46734 21.281 13.5327 18.1569 16.6569Z" stroke="#6892B9" stroke-width="1.5" stroke-linecap="round" stroke-linejoin="round"/>
<path d="M14.3425 9C14.0579 9.00003 13.7762 9.05552 13.514 9.16319C13.2518 9.27086 13.0145 9.42854 12.816 9.62689L12.5016 9.94189L12.184 9.62689C11.9855 9.42858 11.7482 9.27094 11.486 9.16331C11.2238 9.05567 10.9421 9.00022 10.6575 9.00022C10.3729 9.00022 10.0912 9.05567 9.82899 9.16331C9.5668 9.27094 9.32946 9.42858 9.131 9.62689C8.72629 10.0331 8.5 10.5765 8.5 11.142C8.5 11.7075 8.72629 12.2509 9.131 12.6571L12.5016 16L15.869 12.6571C16.2737 12.2509 16.5 11.7075 16.5 11.142C16.5 10.5765 16.2737 10.0331 15.869 9.62689C15.6706 9.42854 15.4332 9.27086 15.171 9.16319C14.9089 9.05552 14.6271 9.00003 14.3425 9V9Z" stroke="#6892B9" stroke-width="1.5"/>
</svg>
