<svg width="25" height="25" viewBox="0 0 25 25" fill="none" xmlns="http://www.w3.org/2000/svg">
<path fill-rule="evenodd" clip-rule="evenodd" d="M12.6204 3.80691C12.532 3.77024 12.435 3.75 12.3333 3.75C12.2316 3.75 12.1347 3.77024 12.0462 3.80691C11.9578 3.84351 11.8749 3.89776 11.803 3.96967L11.8029 3.96977L9.80298 5.96967C9.51009 6.26256 9.51009 6.73744 9.80298 7.03033C10.0959 7.32322 10.5707 7.32322 10.8636 7.03033L11.5833 6.31066V8.5C11.5833 8.91421 11.9191 9.25 12.3333 9.25C12.7475 9.25 13.0833 8.91421 13.0833 8.5V6.31066L13.803 7.03033C14.0959 7.32322 14.5707 7.32322 14.8636 7.03033C15.1565 6.73744 15.1565 6.26256 14.8636 5.96967L12.8636 3.96967C12.7917 3.89776 12.7089 3.84351 12.6204 3.80691ZM12.3333 10.9962C13.1759 10.9961 14.0038 11.2178 14.7335 11.6391C15.4633 12.0603 16.0694 12.6662 16.4907 13.3959C16.9121 14.1257 17.1339 14.9534 17.134 15.7961C17.134 16.6387 16.9122 17.4665 16.4909 18.1962H19.7333C19.9455 18.1962 20.149 18.2805 20.299 18.4306C20.449 18.5806 20.5333 18.7841 20.5333 18.9962C20.5333 19.2084 20.449 19.4119 20.299 19.5619C20.149 19.712 19.9455 19.7962 19.7333 19.7962L4.9333 19.7962C4.72113 19.7962 4.51764 19.712 4.36762 19.5619C4.21759 19.4119 4.1333 19.2084 4.1333 18.9962C4.1333 18.7841 4.21759 18.5806 4.36762 18.4306C4.51764 18.2805 4.72113 18.1962 4.9333 18.1962H8.1757C7.75438 17.4665 7.53259 16.6387 7.53262 15.7961C7.53265 14.9534 7.7545 14.1257 8.17587 13.3959C8.59724 12.6662 9.20328 12.0603 9.93306 11.6391C10.6628 11.2178 11.4907 10.9961 12.3333 10.9962ZM12.3333 12.5962C11.6984 12.5962 11.0778 12.785 10.5505 13.1387C10.0232 13.4924 9.61309 13.9949 9.37224 14.5823C9.13139 15.1698 9.07074 15.8156 9.198 16.4376C9.32526 17.0597 9.63469 17.6298 10.0869 18.0754L10.2173 18.1954H14.4493C14.9365 17.7655 15.2812 17.1974 15.4376 16.5668C15.5941 15.9361 15.5549 15.2728 15.3252 14.665C15.0955 14.0572 14.6862 13.5337 14.1518 13.1642C13.6173 12.7946 12.9831 12.5965 12.3333 12.5962Z" fill="#AAD9E9"/>
</svg>
