<svg width="25" height="25" viewBox="0 0 25 25" fill="none" xmlns="http://www.w3.org/2000/svg">
<path fill-rule="evenodd" clip-rule="evenodd" d="M12.6202 9.19309C12.5318 9.22976 12.4348 9.25 12.3331 9.25C12.2314 9.25 12.1345 9.22976 12.046 9.19309C11.9576 9.15649 11.8747 9.10224 11.8028 9.03033L9.8028 7.03033C9.50991 6.73744 9.50991 6.26256 9.8028 5.96967C10.0957 5.67678 10.5706 5.67678 10.8635 5.96967L11.5831 6.68934V4.5C11.5831 4.08579 11.9189 3.75 12.3331 3.75C12.7473 3.75 13.0831 4.08579 13.0831 4.5V6.68934L13.8028 5.96967C14.0957 5.67678 14.5706 5.67678 14.8635 5.96967C15.1564 6.26256 15.1564 6.73744 14.8635 7.03033L12.8635 9.03033C12.7916 9.10224 12.7087 9.15649 12.6202 9.19309ZM12.3331 10.9975C13.1758 10.9974 14.0038 11.2191 14.7336 11.6404C15.4635 12.0617 16.0696 12.6677 16.491 13.3975C16.9124 14.1273 17.1343 14.9551 17.1343 15.7979C17.1344 16.6406 16.9125 17.4685 16.4912 18.1983H19.7338C19.946 18.1983 20.1495 18.2826 20.2996 18.4326C20.4496 18.5827 20.5339 18.7862 20.5339 18.9984C20.5339 19.2106 20.4496 19.4141 20.2996 19.5641C20.1495 19.7142 19.946 19.7985 19.7338 19.7985L4.93241 19.7985C4.72022 19.7985 4.51671 19.7142 4.36666 19.5641C4.21662 19.4141 4.13232 19.2106 4.13232 18.9984C4.13232 18.7862 4.21662 18.5827 4.36666 18.4326C4.51671 18.2826 4.72022 18.1983 4.93241 18.1983H8.17506C7.7537 17.4685 7.53188 16.6406 7.53191 15.7979C7.53194 14.9551 7.75382 14.1273 8.17523 13.3975C8.59665 12.6677 9.20275 12.0617 9.93262 11.6404C10.6625 11.2191 11.4904 10.9974 12.3331 10.9975ZM12.3331 12.5977C11.6981 12.5976 11.0775 12.7865 10.5502 13.1402C10.0228 13.4939 9.61261 13.9965 9.37174 14.584C9.13086 15.1715 9.0702 15.8174 9.19748 16.4395C9.32475 17.0616 9.63421 17.6318 10.0865 18.0775L10.2169 18.1975H14.4494C14.9366 17.7675 15.2813 17.1994 15.4378 16.5687C15.5943 15.9379 15.555 15.2745 15.3253 14.6667C15.0956 14.0588 14.6863 13.5353 14.1518 13.1657C13.6173 12.7961 12.983 12.598 12.3331 12.5977Z" fill="#AAD9E9"/>
</svg>
