<svg width="120" height="120" viewBox="0 0 120 120" fill="none" xmlns="http://www.w3.org/2000/svg">
<path d="M43.4835 51C43.4835 60.1113 50.8953 67.5231 60.0066 67.5231C69.1179 67.5231 76.5297 60.1113 76.5297 51C76.5297 41.8887 69.1179 34.4769 60.0066 34.4769C50.8953 34.4769 43.4835 41.8887 43.4835 51ZM56.7 18H63.3V27.9H56.7V18ZM27 47.7H36.9V54.3H27V47.7ZM83.1 47.7H93V54.3H83.1V47.7ZM73.9986 32.3352L81.0012 25.3326L85.6674 29.9988L78.6648 37.0014L73.9986 32.3352ZM41.3352 37.0047L34.3359 30.0021L39.0054 25.3359L46.0014 32.3385L41.3352 37.0047Z" fill="#F7D056"/>
<path d="M85.1875 70.6C85.0949 70.6 85.0178 70.6306 84.9406 70.6306C85.1104 69.8344 85.1875 69.0075 85.1875 68.15C85.1875 61.3819 79.6637 55.9 72.8438 55.9C69.048 55.9 65.6998 57.6303 63.4316 60.31C60.5617 54.7975 54.8373 51 48.1562 51C38.6053 51 30.875 58.6716 30.875 68.15C30.875 69.2678 30.9984 70.3397 31.199 71.3962C25.2895 73.3256 21 78.7922 21 85.3C21 93.4156 27.6348 100 35.8125 100H85.1875C93.3652 100 100 93.4156 100 85.3C100 77.1844 93.3652 70.6 85.1875 70.6Z" fill="#FFFA50"/>
<g style="mix-blend-mode:multiply">
<path fill-rule="evenodd" clip-rule="evenodd" d="M75.6833 56.2253C74.7717 56.0126 73.821 55.9 72.8438 55.9C69.048 55.9 65.6998 57.6303 63.4316 60.31C60.5617 54.7975 54.8373 51 48.1563 51C46.541 51 44.9779 51.2194 43.4954 51.6299C43.8275 60.4504 51.1062 67.5231 60.0066 67.5231C67.2926 67.5231 73.4919 62.7835 75.6833 56.2253Z" fill="#FEB800"/>
</g>
</svg>
