<svg width="120" height="120" viewBox="0 0 120 120" fill="none" xmlns="http://www.w3.org/2000/svg">
<path d="M51.4835 39C51.4835 48.1113 58.8953 55.5231 68.0066 55.5231C77.1179 55.5231 84.5297 48.1113 84.5297 39C84.5297 29.8887 77.1179 22.4769 68.0066 22.4769C58.8953 22.4769 51.4835 29.8887 51.4835 39ZM64.7 6H71.3V15.9H64.7V6ZM35 35.7H44.9V42.3H35V35.7ZM91.1 35.7H101V42.3H91.1V35.7ZM81.9986 20.3352L89.0012 13.3326L93.6674 17.9988L86.6648 25.0014L81.9986 20.3352ZM49.3352 25.0047L42.3359 18.0021L47.0054 13.3359L54.0014 20.3385L49.3352 25.0047Z" fill="#F7D056"/>
<path d="M83.1875 50.6C83.0949 50.6 83.0178 50.6306 82.9406 50.6306C83.1104 49.8344 83.1875 49.0075 83.1875 48.15C83.1875 41.3819 77.6637 35.9 70.8438 35.9C67.048 35.9 63.6998 37.6303 61.4316 40.31C58.5617 34.7975 52.8373 31 46.1562 31C36.6053 31 28.875 38.6716 28.875 48.15C28.875 49.2678 28.9984 50.3397 29.199 51.3962C23.2895 53.3256 19 58.7922 19 65.3C19 73.4156 25.6348 80 33.8125 80H83.1875C91.3652 80 98 73.4156 98 65.3C98 57.1844 91.3652 50.6 83.1875 50.6Z" fill="#FFFA50"/>
<path fill-rule="evenodd" clip-rule="evenodd" d="M68.0066 55.5231C58.8953 55.5231 51.4835 48.1113 51.4835 39C51.4835 36.641 51.9804 34.3958 52.875 32.3638C56.5692 33.9379 59.5889 36.7704 61.4317 40.31C63.6998 37.6303 67.0481 35.9 70.8438 35.9C76.9107 35.9 81.9519 40.2382 82.9912 45.9608C80.3597 51.6034 74.6326 55.5231 68.0066 55.5231Z" fill="#FEB800"/>
<rect x="40.5853" y="73" width="3.51214" height="15" fill="#F7D056"/>
<rect width="3.5251" height="14.945" transform="matrix(0.498161 -0.867085 0.86496 0.501841 35 78.2783)" fill="#F7D056"/>
<rect width="3.5251" height="14.945" transform="matrix(-0.498161 -0.867085 -0.86496 0.501841 50 77.8213)" fill="#F7D056"/>
<rect x="68.5853" y="73" width="3.51214" height="15" fill="#F7D056"/>
<rect width="3.5251" height="14.945" transform="matrix(0.498161 -0.867085 0.86496 0.501841 63 78.2783)" fill="#F7D056"/>
<rect width="3.5251" height="14.945" transform="matrix(-0.498161 -0.867085 -0.86496 0.501841 78 77.8213)" fill="#F7D056"/>
<rect x="54.5853" y="88" width="3.51214" height="15" fill="#F7D056"/>
<rect width="3.5251" height="14.945" transform="matrix(0.498161 -0.867085 0.86496 0.501841 49 93.2783)" fill="#F7D056"/>
<rect width="3.5251" height="14.945" transform="matrix(-0.498161 -0.867085 -0.86496 0.501841 64 92.8213)" fill="#F7D056"/>
<path fill-rule="evenodd" clip-rule="evenodd" d="M46.1803 80.1308L50.0207 77.9136L48.272 74.8847L44.143 77.2686V73.136H40.6456V77.5392L36.8323 75.3376L35.0836 78.3664L38.1396 80.1308H46.1803Z" fill="#FEB800"/>
<path fill-rule="evenodd" clip-rule="evenodd" d="M74.1596 80.1308L78 77.9136L76.2513 74.8847L72.1222 77.2686V73.136H68.6248V77.5392L64.8116 75.3376L63.0629 78.3664L66.1189 80.1308H74.1596Z" fill="#FEB800"/>
<path d="M44.2308 99.6484C42.8769 104.273 40 105.522 40 108.782C40 111.667 42.274 114 45.0769 114C47.8798 114 50.1538 111.667 50.1538 108.782C50.1538 105.512 47.2769 104.293 45.9231 99.6484C45.6904 98.8048 44.4952 98.7632 44.2308 99.6484ZM66.1538 99.6484C64.8 104.273 61.9231 105.522 61.9231 108.782C61.9231 111.667 64.1971 114 67 114C69.8029 114 72.0769 111.667 72.0769 108.782C72.0769 105.512 69.2 104.293 67.8462 99.6484C67.6135 98.8048 66.4183 98.7632 66.1538 99.6484Z" fill="#F7D056"/>
</svg>
