<svg width="120" height="120" viewBox="0 0 120 120" fill="none" xmlns="http://www.w3.org/2000/svg">
<path d="M51.4835 39C51.4835 48.1113 58.8953 55.5231 68.0066 55.5231C77.1179 55.5231 84.5297 48.1113 84.5297 39C84.5297 29.8887 77.1179 22.4769 68.0066 22.4769C58.8953 22.4769 51.4835 29.8887 51.4835 39ZM64.7 8C64.7 6.89543 65.5954 6 66.7 6H69.3C70.4046 6 71.3 6.89543 71.3 8V13.9C71.3 15.0046 70.4046 15.9 69.3 15.9H66.7C65.5954 15.9 64.7 15.0046 64.7 13.9V8ZM35 37.7C35 36.5954 35.8954 35.7 37 35.7H42.9C44.0046 35.7 44.9 36.5954 44.9 37.7V40.3C44.9 41.4046 44.0046 42.3 42.9 42.3H37C35.8954 42.3 35 41.4046 35 40.3V37.7ZM91.1 37.7C91.1 36.5954 91.9954 35.7 93.1 35.7H99C100.105 35.7 101 36.5954 101 37.7V40.3C101 41.4046 100.105 42.3 99 42.3H93.1C91.9954 42.3 91.1 41.4046 91.1 40.3V37.7ZM83.4128 21.7494C82.6318 20.9684 82.6318 19.702 83.4128 18.921L87.587 14.7468C88.368 13.9658 89.6344 13.9658 90.4154 14.7468L92.2532 16.5846C93.0342 17.3656 93.0342 18.632 92.2532 19.413L88.079 23.5872C87.298 24.3682 86.0316 24.3682 85.2506 23.5872L83.4128 21.7494ZM50.7497 23.5902C49.9686 24.3713 48.702 24.3712 47.921 23.5898L43.7499 19.4168C42.969 18.6355 42.9694 17.3691 43.7508 16.5882L45.5905 14.7498C46.3719 13.9689 47.6384 13.9695 48.4191 14.7509L52.5885 18.9243C53.3689 19.7054 53.3686 20.9713 52.5879 21.752L50.7497 23.5902Z" fill="#F7D056"/>
<path d="M83.1875 50.6C83.0949 50.6 83.0178 50.6306 82.9406 50.6306C83.1104 49.8344 83.1875 49.0075 83.1875 48.15C83.1875 41.3819 77.6637 35.9 70.8438 35.9C67.048 35.9 63.6998 37.6303 61.4316 40.31C58.5617 34.7975 52.8373 31 46.1562 31C36.6053 31 28.875 38.6716 28.875 48.15C28.875 49.2678 28.9984 50.3397 29.199 51.3962C23.2895 53.3256 19 58.7922 19 65.3C19 73.4156 25.6348 80 33.8125 80H83.1875C91.3652 80 98 73.4156 98 65.3C98 57.1844 91.3652 50.6 83.1875 50.6Z" fill="#FFFA50"/>
<path fill-rule="evenodd" clip-rule="evenodd" d="M68.0066 55.5231C58.8953 55.5231 51.4835 48.1113 51.4835 39C51.4835 36.641 51.9804 34.3958 52.875 32.3638C56.5692 33.9379 59.5889 36.7704 61.4317 40.31C63.6998 37.6303 67.0481 35.9 70.8438 35.9C76.9107 35.9 81.9519 40.2382 82.9912 45.9608C80.3597 51.6034 74.6326 55.5231 68.0066 55.5231Z" fill="#FEB800"/>
<rect x="40.5853" y="73" width="3.51214" height="15" fill="#F7D056"/>
<rect width="3.5251" height="14.945" transform="matrix(0.498161 -0.867085 0.86496 0.501841 35 78.2783)" fill="#F7D056"/>
<rect width="3.5251" height="14.945" transform="matrix(-0.498161 -0.867085 -0.86496 0.501841 50 77.8213)" fill="#F7D056"/>
<rect x="68.5853" y="73" width="3.51214" height="15" fill="#F7D056"/>
<rect width="3.5251" height="14.945" transform="matrix(0.498161 -0.867085 0.86496 0.501841 63 78.2783)" fill="#F7D056"/>
<rect width="3.5251" height="14.945" transform="matrix(-0.498161 -0.867085 -0.86496 0.501841 78 77.8213)" fill="#F7D056"/>
<rect x="54.5853" y="88" width="3.51214" height="15" fill="#F7D056"/>
<rect width="3.5251" height="14.945" transform="matrix(0.498161 -0.867085 0.86496 0.501841 49 93.2783)" fill="#F7D056"/>
<rect width="3.5251" height="14.945" transform="matrix(-0.498161 -0.867085 -0.86496 0.501841 64 92.8213)" fill="#F7D056"/>
<path fill-rule="evenodd" clip-rule="evenodd" d="M46.1803 80.1308L50.0207 77.9136L48.272 74.8847L44.143 77.2686V73.136H40.6456V77.5392L36.8323 75.3376L35.0836 78.3664L38.1396 80.1308H46.1803Z" fill="#FEB800"/>
<path fill-rule="evenodd" clip-rule="evenodd" d="M74.1596 80.1308L78 77.9136L76.2513 74.8847L72.1222 77.2686V73.136H68.6248V77.5392L64.8116 75.3376L63.0629 78.3664L66.1189 80.1308H74.1596Z" fill="#FEB800"/>
<path d="M44.2308 99.6484C42.8769 104.273 40 105.522 40 108.782C40 111.667 42.274 114 45.0769 114C47.8798 114 50.1538 111.667 50.1538 108.782C50.1538 105.512 47.2769 104.293 45.9231 99.6484C45.6904 98.8048 44.4952 98.7632 44.2308 99.6484ZM66.1538 99.6484C64.8 104.273 61.9231 105.522 61.9231 108.782C61.9231 111.667 64.1971 114 67 114C69.8029 114 72.0769 111.667 72.0769 108.782C72.0769 105.512 69.2 104.293 67.8462 99.6484C67.6135 98.8048 66.4183 98.7632 66.1538 99.6484Z" fill="#F7D056"/>
</svg>
