<svg width="120" height="120" viewBox="0 0 120 120" fill="none" xmlns="http://www.w3.org/2000/svg">
<path d="M42.2308 85.6484C40.8769 90.2726 38 91.5224 38 94.7822C38 97.6671 40.274 100 43.0769 100C45.8798 100 48.1538 97.6671 48.1538 94.7822C48.1538 91.5119 45.2769 90.2934 43.9231 85.6484C43.6904 84.8048 42.4952 84.7632 42.2308 85.6484ZM59.1538 85.6484C57.8 90.2726 54.9231 91.5224 54.9231 94.7822C54.9231 97.6671 57.1971 100 60 100C62.8029 100 65.0769 97.6671 65.0769 94.7822C65.0769 91.5119 62.2 90.2934 60.8462 85.6484C60.6135 84.8048 59.4183 84.7632 59.1538 85.6484ZM76.0769 85.6484C74.7231 90.2726 71.8462 91.5224 71.8462 94.7822C71.8462 97.6671 74.1202 100 76.9231 100C79.726 100 82 97.6671 82 94.7822C82 91.5119 79.1231 90.2934 77.7692 85.6484C77.5365 84.8048 76.3413 84.7632 76.0769 85.6484Z" fill="#F7D056"/>
<path d="M53.4835 52C53.4835 61.1113 60.8953 68.5231 70.0066 68.5231C79.1179 68.5231 86.5297 61.1113 86.5297 52C86.5297 42.8887 79.1179 35.4769 70.0066 35.4769C60.8953 35.4769 53.4835 42.8887 53.4835 52ZM66.7 21C66.7 19.8954 67.5954 19 68.7 19H71.3C72.4046 19 73.3 19.8954 73.3 21V26.9C73.3 28.0046 72.4046 28.9 71.3 28.9H68.7C67.5954 28.9 66.7 28.0046 66.7 26.9V21ZM37 50.7C37 49.5954 37.8954 48.7 39 48.7H44.9C46.0046 48.7 46.9 49.5954 46.9 50.7V53.3C46.9 54.4046 46.0046 55.3 44.9 55.3H39C37.8954 55.3 37 54.4046 37 53.3V50.7ZM93.1 50.7C93.1 49.5954 93.9954 48.7 95.1 48.7H101C102.105 48.7 103 49.5954 103 50.7V53.3C103 54.4046 102.105 55.3 101 55.3H95.1C93.9954 55.3 93.1 54.4046 93.1 53.3V50.7ZM85.4128 34.7494C84.6318 33.9684 84.6318 32.702 85.4128 31.921L89.587 27.7468C90.368 26.9658 91.6344 26.9658 92.4154 27.7468L94.2532 29.5846C95.0342 30.3656 95.0342 31.632 94.2532 32.413L90.079 36.5872C89.298 37.3682 88.0316 37.3682 87.2506 36.5872L85.4128 34.7494ZM52.7497 36.5902C51.9686 37.3713 50.702 37.3712 49.921 36.5898L45.7499 32.4168C44.969 31.6355 44.9694 30.3691 45.7508 29.5882L47.5905 27.7498C48.3719 26.9689 49.6384 26.9695 50.4191 27.7509L54.5885 31.9243C55.3689 32.7054 55.3686 33.9713 54.5879 34.752L52.7497 36.5902Z" fill="#F7D056"/>
<path d="M85.1875 63.6C85.0949 63.6 85.0178 63.6306 84.9406 63.6306C85.1104 62.8344 85.1875 62.0075 85.1875 61.15C85.1875 54.3819 79.6637 48.9 72.8438 48.9C69.048 48.9 65.6998 50.6303 63.4316 53.31C60.5617 47.7975 54.8373 44 48.1562 44C38.6053 44 30.875 51.6716 30.875 61.15C30.875 62.2678 30.9984 63.3397 31.199 64.3962C25.2895 66.3256 21 71.7922 21 78.3C21 86.4156 27.6348 93 35.8125 93H85.1875C93.3652 93 100 86.4156 100 78.3C100 70.1844 93.3652 63.6 85.1875 63.6Z" fill="#FFFA50"/>
<path fill-rule="evenodd" clip-rule="evenodd" d="M81.6817 93C81.3642 92.1421 80.8407 91.3818 80.2583 90.536C79.3994 89.2886 78.4124 87.8552 77.7693 85.6484C77.5366 84.8048 76.3414 84.7632 76.0769 85.6484C75.4349 87.8414 74.4503 89.2754 73.5924 90.5249C73.0087 91.3751 72.4837 92.1398 72.1652 93H81.6817ZM64.7587 93C64.4411 92.1421 63.9176 91.3818 63.3352 90.536C62.4763 89.2886 61.4894 87.8552 60.8462 85.6484C60.6135 84.8048 59.4183 84.7632 59.1539 85.6484C58.5118 87.8414 57.5272 89.2754 56.6694 90.5249C56.0856 91.3751 55.5606 92.1398 55.2421 93H64.7587ZM47.8356 93C47.518 92.1421 46.9945 91.3818 46.4121 90.536C45.5532 89.2886 44.5663 87.8552 43.9231 85.6484C43.6904 84.8048 42.4952 84.7632 42.2308 85.6484C41.5887 87.8414 40.6041 89.2754 39.7463 90.5249C39.1626 91.3751 38.6375 92.1398 38.319 93H47.8356Z" fill="#FEB800"/>
<path fill-rule="evenodd" clip-rule="evenodd" d="M70.0066 68.5231C60.8953 68.5231 53.4835 61.1113 53.4835 52C53.4835 49.641 53.9804 47.3958 54.875 45.3638C58.5692 46.9379 61.5889 49.7704 63.4317 53.31C65.6998 50.6303 69.0481 48.9 72.8438 48.9C78.9107 48.9 83.9519 53.2382 84.9912 58.9608C82.3597 64.6034 76.6326 68.5231 70.0066 68.5231Z" fill="#FEB800"/>
</svg>
