<svg width="120" height="120" viewBox="0 0 120 120" fill="none" xmlns="http://www.w3.org/2000/svg">
<path d="M42.2308 85.6484C40.8769 90.2726 38 91.5224 38 94.7822C38 97.6671 40.274 100 43.0769 100C45.8798 100 48.1538 97.6671 48.1538 94.7822C48.1538 91.5119 45.2769 90.2934 43.9231 85.6484C43.6904 84.8048 42.4952 84.7632 42.2308 85.6484ZM59.1538 85.6484C57.8 90.2726 54.9231 91.5224 54.9231 94.7822C54.9231 97.6671 57.1971 100 60 100C62.8029 100 65.0769 97.6671 65.0769 94.7822C65.0769 91.5119 62.2 90.2934 60.8462 85.6484C60.6135 84.8048 59.4183 84.7632 59.1538 85.6484ZM76.0769 85.6484C74.7231 90.2726 71.8462 91.5224 71.8462 94.7822C71.8462 97.6671 74.1202 100 76.9231 100C79.726 100 82 97.6671 82 94.7822C82 91.5119 79.1231 90.2934 77.7692 85.6484C77.5365 84.8048 76.3413 84.7632 76.0769 85.6484Z" fill="#D580FF"/>
<path d="M85.1875 63.6C85.0949 63.6 85.0178 63.6306 84.9406 63.6306C85.1104 62.8344 85.1875 62.0075 85.1875 61.15C85.1875 54.3819 79.6637 48.9 72.8438 48.9C69.048 48.9 65.6998 50.6303 63.4316 53.31C60.5617 47.7975 54.8373 44 48.1562 44C38.6053 44 30.875 51.6716 30.875 61.15C30.875 62.2678 30.9984 63.3397 31.199 64.3962C25.2895 66.3256 21 71.7922 21 78.3C21 86.4156 27.6348 93 35.8125 93H85.1875C93.3652 93 100 86.4156 100 78.3C100 70.1844 93.3652 63.6 85.1875 63.6Z" fill="#FF99FF"/>
<path fill-rule="evenodd" clip-rule="evenodd" d="M81.6817 93C81.3641 92.1421 80.8406 91.3818 80.2582 90.536C79.3993 89.2886 78.4124 87.8552 77.7692 85.6484C77.5365 84.8048 76.3413 84.7632 76.0769 85.6484C75.4348 87.8414 74.4502 89.2754 73.5924 90.5249C73.0087 91.3751 72.4836 92.1398 72.1651 93H81.6817ZM64.7586 93C64.441 92.1421 63.9175 91.3818 63.3352 90.536C62.4763 89.2886 61.4893 87.8552 60.8461 85.6484C60.6134 84.8048 59.4182 84.7632 59.1538 85.6484C58.5118 87.8414 57.5272 89.2754 56.6693 90.5249C56.0856 91.3751 55.5605 92.1398 55.242 93H64.7586ZM47.8355 93C47.518 92.1421 46.9944 91.3818 46.4121 90.536C45.5532 89.2886 44.5662 87.8552 43.923 85.6484C43.6903 84.8048 42.4952 84.7632 42.2307 85.6484C41.5887 87.8414 40.6041 89.2754 39.7462 90.5249C39.1625 91.3751 38.6375 92.1398 38.319 93H47.8355Z" fill="#9966FF"/>
<path fill-rule="evenodd" clip-rule="evenodd" d="M60 31.7364C67.4272 35.6849 72.4844 43.5019 72.4844 52.5C72.4844 61.4981 67.4272 69.3151 60 73.2636C63.2856 75.0103 67.035 76 71.0156 76C83.9943 76 94.5156 65.4787 94.5156 52.5C94.5156 39.5213 83.9943 29 71.0156 29C67.035 29 63.2856 29.9897 60 31.7364Z" fill="#D580FF"/>
<path fill-rule="evenodd" clip-rule="evenodd" d="M91.0462 64.7956C89.2491 64.0263 87.2682 63.6 85.1875 63.6C85.1391 63.6 85.0949 63.6084 85.0528 63.6164C85.0143 63.6237 84.9774 63.6306 84.9406 63.6306C85.1103 62.8344 85.1875 62.0075 85.1875 61.15C85.1875 54.3819 79.6637 48.9 72.8438 48.9C72.632 48.9 72.4217 48.9054 72.2128 48.916C72.3916 50.0846 72.4844 51.2815 72.4844 52.5C72.4844 61.4981 67.4272 69.3151 60 73.2636C63.2856 75.0103 67.035 76 71.0156 76C79.4868 76 86.911 71.5178 91.0462 64.7956Z" fill="#9966FF"/>
</svg>
