<svg width="120" height="120" viewBox="0 0 120 120" fill="none" xmlns="http://www.w3.org/2000/svg">
<path d="M86.5996 44.7375C86.498 44.7375 86.4133 44.7715 86.3286 44.7715C86.5149 43.8884 86.5996 42.9713 86.5996 42.0203C86.5996 34.5141 80.5361 28.4344 73.0498 28.4344C68.8832 28.4344 65.2079 30.3534 62.7181 33.3253C59.5677 27.2116 53.284 23 45.9502 23C35.466 23 26.9805 31.5082 26.9805 42.0203C26.9805 43.26 27.116 44.4488 27.3362 45.6206C20.8492 47.7604 16.1406 53.8231 16.1406 61.0406C16.1406 70.0413 23.4236 77.3438 32.4004 77.3438H86.5996C95.5764 77.3438 102.859 70.0413 102.859 61.0406C102.859 52.0399 95.5764 44.7375 86.5996 44.7375Z" fill="#3FD5FE"/>
<rect x="54.6751" y="58.8438" width="8.934" height="38.1562" fill="#6A9CFF"/>
<rect width="8.96698" height="38.0163" transform="matrix(0.498161 -0.867085 0.86496 0.501841 40.4673 72.2704)" fill="#6A9CFF"/>
<rect width="8.96698" height="38.0163" transform="matrix(-0.498161 -0.867085 -0.86496 0.501841 78.6236 71.1078)" fill="#6A9CFF"/>
<path fill-rule="evenodd" clip-rule="evenodd" d="M68.9074 76.7996L78.7658 71.1079L74.2768 63.3327L63.6775 69.4523V58.8438H54.6995V70.1467L44.9108 64.4953L40.4219 72.2704L48.2668 76.7996H68.9074Z" fill="#3377FF"/>
</svg>
