<svg width="120" height="120" viewBox="0 0 120 120" fill="none" xmlns="http://www.w3.org/2000/svg">
<path d="M84.1875 49.6C84.0949 49.6 84.0178 49.6306 83.9406 49.6306C84.1104 48.8344 84.1875 48.0075 84.1875 47.15C84.1875 40.3819 78.6637 34.9 71.8438 34.9C68.048 34.9 64.6998 36.6303 62.4316 39.31C59.5617 33.7975 53.8373 30 47.1562 30C37.6053 30 29.875 37.6716 29.875 47.15C29.875 48.2678 29.9984 49.3397 30.199 50.3962C24.2895 52.3256 20 57.7922 20 64.3C20 72.4156 26.6348 79 34.8125 79H84.1875C92.3652 79 99 72.4156 99 64.3C99 56.1844 92.3652 49.6 84.1875 49.6Z" fill="#FF99FF"/>
<path fill-rule="evenodd" clip-rule="evenodd" d="M59 17.7364C66.4272 21.6849 71.4844 29.5019 71.4844 38.5C71.4844 47.4981 66.4272 55.3151 59 59.2636C62.2856 61.0103 66.035 62 70.0156 62C82.9943 62 93.5156 51.4787 93.5156 38.5C93.5156 25.5213 82.9943 15 70.0156 15C66.035 15 62.2856 15.9897 59 17.7364Z" fill="#D580FF"/>
<path fill-rule="evenodd" clip-rule="evenodd" d="M90.0462 50.7956C88.2491 50.0263 86.2682 49.6 84.1875 49.6C84.1391 49.6 84.0949 49.6084 84.0528 49.6164C84.0143 49.6237 83.9774 49.6306 83.9406 49.6306C84.1103 48.8344 84.1875 48.0075 84.1875 47.15C84.1875 40.3819 78.6637 34.9 71.8438 34.9C71.632 34.9 71.4217 34.9054 71.2128 34.916C71.3916 36.0846 71.4844 37.2815 71.4844 38.5C71.4844 47.4981 66.4272 55.3151 59 59.2636C62.2856 61.0103 66.035 62 70.0156 62C78.4868 62 85.911 57.5178 90.0462 50.7956Z" fill="#9966FF"/>
<rect x="55.3612" y="71" width="4" height="17" fill="#D580FF"/>
<rect x="49" y="76.9821" width="4" height="17" transform="rotate(-60 49 76.9821)" fill="#D580FF"/>
<rect width="4" height="17" transform="matrix(-0.5 -0.866025 -0.866025 0.5 66.0836 76.4641)" fill="#D580FF"/>
<path fill-rule="evenodd" clip-rule="evenodd" d="M61.6913 79L66.0836 76.4641L64.0836 73L59.3612 75.7265V71H55.3612V76.0359L51 73.518L49 76.9821L52.4952 79H61.6913Z" fill="#9966FF"/>
<rect x="39.3612" y="88" width="4" height="17" fill="#D580FF"/>
<rect x="33" y="93.9821" width="4" height="17" transform="rotate(-60 33 93.9821)" fill="#D580FF"/>
<rect width="4" height="17" transform="matrix(-0.5 -0.866025 -0.866025 0.5 50.0836 93.4641)" fill="#D580FF"/>
<rect x="71.3612" y="88" width="4" height="17" fill="#D580FF"/>
<rect x="65" y="93.9821" width="4" height="17" transform="rotate(-60 65 93.9821)" fill="#D580FF"/>
<rect width="4" height="17" transform="matrix(-0.5 -0.866025 -0.866025 0.5 82.0836 93.4641)" fill="#D580FF"/>
</svg>
