<svg width="120" height="120" viewBox="0 0 120 120" fill="none" xmlns="http://www.w3.org/2000/svg">
<path d="M82.9375 44.8C82.8496 44.8 82.7764 44.8294 82.7031 44.8294C82.8643 44.0656 82.9375 43.2725 82.9375 42.45C82.9375 35.9581 77.6934 30.7 71.2188 30.7C67.6152 30.7 64.4365 32.3597 62.2832 34.93C59.5586 29.6425 54.124 26 47.7812 26C38.7139 26 31.375 33.3584 31.375 42.45C31.375 43.5222 31.4922 44.5503 31.6826 45.5638C26.0723 47.4144 22 52.6578 22 58.9C22 66.6844 28.2988 73 36.0625 73H82.9375C90.7012 73 97 66.6844 97 58.9C97 51.1156 90.7012 44.8 82.9375 44.8Z" fill="#3FD5FE"/>
<path d="M80 76.2222V64L71 79.7778H80V92L89 76.2222H80Z" fill="#6A9CFF"/>
<path d="M38 76.2222V64L29 79.7778H38V92L47 76.2222H38Z" fill="#6A9CFF"/>
<path d="M59 85.2222V73L50 88.7778H59V101L68 85.2222H59Z" fill="#6A9CFF"/>
<path d="M47.1539 94.6484C45.8 99.2726 42.9231 100.522 42.9231 103.782C42.9231 106.667 45.1971 109 48 109C50.8029 109 53.0769 106.667 53.0769 103.782C53.0769 100.512 50.2 99.2934 48.8462 94.6484C48.6135 93.8048 47.4183 93.7632 47.1539 94.6484ZM69.0769 94.6484C67.7231 99.2726 64.8462 100.522 64.8462 103.782C64.8462 106.667 67.1202 109 69.9231 109C72.726 109 75 106.667 75 103.782C75 100.512 72.1231 99.2934 70.7692 94.6484C70.5366 93.8048 69.3414 93.7632 69.0769 94.6484Z" fill="#6A9CFF"/>
<path fill-rule="evenodd" clip-rule="evenodd" d="M79.9999 73V64L74.8661 73H79.9999ZM37.9999 73V64L33.0511 72.6757C34.0213 72.8881 35.0289 73 36.0624 73H37.9999Z" fill="#3377FF"/>
</svg>
