<svg width="120" height="120" viewBox="0 0 120 120" fill="none" xmlns="http://www.w3.org/2000/svg">
<path d="M37.8531 59.75C37.8531 71.8294 47.6794 81.6556 59.7588 81.6556C71.8381 81.6556 81.6644 71.8294 81.6644 59.75C81.6644 47.6706 71.8381 37.8444 59.7588 37.8444C47.6794 37.8444 37.8531 47.6706 37.8531 59.75ZM55.375 91.375C55.375 90.8227 55.8227 90.375 56.375 90.375H63.125C63.6773 90.375 64.125 90.8227 64.125 91.375V102.5C64.125 103.052 63.6773 103.5 63.125 103.5H56.375C55.8227 103.5 55.375 103.052 55.375 102.5V91.375ZM55.375 17C55.375 16.4477 55.8227 16 56.375 16H63.125C63.6773 16 64.125 16.4477 64.125 17V28.125C64.125 28.6773 63.6773 29.125 63.125 29.125H56.375C55.8227 29.125 55.375 28.6773 55.375 28.125V17ZM16 56.375C16 55.8227 16.4477 55.375 17 55.375H28.125C28.6773 55.375 29.125 55.8227 29.125 56.375V63.125C29.125 63.6773 28.6773 64.125 28.125 64.125H17C16.4477 64.125 16 63.6773 16 63.125V56.375ZM90.375 56.375C90.375 55.8227 90.8227 55.375 91.375 55.375H102.5C103.052 55.375 103.5 55.8227 103.5 56.375V63.125C103.5 63.6773 103.052 64.125 102.5 64.125H91.375C90.8227 64.125 90.375 63.6773 90.375 63.125V56.375ZM32.619 93.0716C32.2285 93.4622 31.5953 93.4622 31.2048 93.0716L26.4327 88.2996C26.0422 87.9091 26.0422 87.2759 26.4327 86.8854L34.2979 79.0202C34.6884 78.6297 35.3216 78.6297 35.7121 79.0202L40.4841 83.7923C40.8747 84.1828 40.8747 84.816 40.4841 85.2065L32.619 93.0716ZM79.0159 35.7121C78.6253 35.3216 78.6253 34.6884 79.0159 34.2979L86.8854 26.4284C87.2759 26.0378 87.9091 26.0378 88.2996 26.4284L93.0716 31.2004C93.4622 31.5909 93.4622 32.2241 93.0716 32.6146L85.2021 40.4841C84.8116 40.8747 84.1784 40.8747 83.7879 40.4841L79.0159 35.7121ZM35.7123 40.4883C35.3217 40.8789 34.6884 40.8789 34.2979 40.4882L26.4326 32.6192C26.0422 32.2286 26.0424 31.5954 26.4331 31.2049L31.2088 26.4326C31.5995 26.0421 32.2327 26.0424 32.6231 26.4331L40.4848 34.3023C40.875 34.6928 40.8749 35.3258 40.4845 35.7161L35.7123 40.4883ZM93.0716 86.8854C93.4622 87.2759 93.4622 87.9091 93.0716 88.2996L88.2996 93.0716C87.9091 93.4622 87.2759 93.4622 86.8854 93.0716L79.0159 85.2021C78.6253 84.8116 78.6253 84.1784 79.0159 83.7879L83.7879 79.0159C84.1784 78.6253 84.8116 78.6253 85.2021 79.0159L93.0716 86.8854Z" fill="#F7D056"/>
<circle cx="60" cy="60" r="23" fill="#FFFA50"/>
<path fill-rule="evenodd" clip-rule="evenodd" d="M60 71C63.0812 71 65.7761 69.6811 67.4838 67.6958L70.5163 70.3042C68.0337 73.1903 64.2233 75 60 75C55.7767 75 51.9663 73.1903 49.4838 70.3042L52.5163 67.6958C54.2239 69.6811 56.9188 71 60 71Z" fill="#F7D056"/>
<path fill-rule="evenodd" clip-rule="evenodd" d="M33 51C33 48.2386 35.2386 46 38 46H50C52.0503 46 53.8124 47.2341 54.584 49H64.416C65.1876 47.2341 66.9497 46 69 46H81C83.7614 46 86 48.2386 86 51V58C86 60.7614 83.7614 63 81 63H69C66.2386 63 64 60.7614 64 58V55H55V58C55 60.7614 52.7614 63 50 63H38C35.2386 63 33 60.7614 33 58V51Z" fill="#F7D056"/>
<path fill-rule="evenodd" clip-rule="evenodd" d="M82.8493 62.6468C82.9489 61.7784 83 60.8951 83 60C83 54.732 81.2289 49.8777 78.2497 46H69C66.9497 46 65.1876 47.2341 64.416 49H54.584C53.8124 47.2341 52.0503 46 50 46H41.7502C38.7711 49.8777 37 54.732 37 60C37 60.994 37.0631 61.9732 37.1854 62.934C37.4505 62.9774 37.7226 63 38 63H50C52.7614 63 55 60.7614 55 58V55H64V58C64 60.7614 66.2386 63 69 63H81C81.6533 63 82.2773 62.8747 82.8493 62.6468Z" fill="#FEB800"/>
</svg>
