<svg width="24" height="24" viewBox="0 0 24 24" fill="none" xmlns="http://www.w3.org/2000/svg">
<path d="M12.0001 1.71436C12.1706 1.71436 12.3341 1.78208 12.4546 1.90264C12.5752 2.0232 12.6429 2.18672 12.6429 2.35721V3.6395C12.6429 3.80999 12.5752 3.97351 12.4546 4.09407C12.3341 4.21463 12.1706 4.28236 12.0001 4.28236C11.8296 4.28236 11.6661 4.21463 11.5455 4.09407C11.4249 3.97351 11.3572 3.80999 11.3572 3.6395V2.35721C11.3572 2.18672 11.4249 2.0232 11.5455 1.90264C11.6661 1.78208 11.8296 1.71436 12.0001 1.71436ZM17.1429 12.0001C17.1429 12.6754 17.0099 13.3442 16.7515 13.9682C16.493 14.5921 16.1142 15.1591 15.6366 15.6366C15.1591 16.1142 14.5921 16.493 13.9682 16.7515C13.3442 17.0099 12.6754 17.1429 12.0001 17.1429C11.3247 17.1429 10.6559 17.0099 10.032 16.7515C9.40802 16.493 8.84108 16.1142 8.36352 15.6366C7.88596 15.1591 7.50714 14.5921 7.24869 13.9682C6.99024 13.3442 6.85721 12.6754 6.85721 12.0001C6.85721 10.6361 7.39905 9.32799 8.36352 8.36352C9.32799 7.39905 10.6361 6.85721 12.0001 6.85721C13.364 6.85721 14.6721 7.39905 15.6366 8.36352C16.6011 9.32799 17.1429 10.6361 17.1429 12.0001ZM21.6429 12.6429C21.8134 12.6429 21.9769 12.5752 22.0975 12.4546C22.2181 12.3341 22.2858 12.1706 22.2858 12.0001C22.2858 11.8296 22.2181 11.6661 22.0975 11.5455C21.9769 11.4249 21.8134 11.3572 21.6429 11.3572H20.3598C20.1893 11.3572 20.0258 11.4249 19.9052 11.5455C19.7847 11.6661 19.7169 11.8296 19.7169 12.0001C19.7169 12.1706 19.7847 12.3341 19.9052 12.4546C20.0258 12.5752 20.1893 12.6429 20.3598 12.6429H21.6421H21.6429ZM12.0001 19.7178C12.1706 19.7178 12.3341 19.7855 12.4546 19.9061C12.5752 20.0266 12.6429 20.1901 12.6429 20.3606V21.6429C12.6429 21.8134 12.5752 21.9769 12.4546 22.0975C12.3341 22.2181 12.1706 22.2858 12.0001 22.2858C11.8296 22.2858 11.6661 22.2181 11.5455 22.0975C11.4249 21.9769 11.3572 21.8134 11.3572 21.6429V20.3606C11.3572 20.1901 11.4249 20.0266 11.5455 19.9061C11.6661 19.7855 11.8296 19.7178 12.0001 19.7178ZM3.64293 12.6429C3.81342 12.6429 3.97694 12.5752 4.0975 12.4546C4.21805 12.3341 4.28578 12.1706 4.28578 12.0001C4.28578 11.8296 4.21805 11.6661 4.0975 11.5455C3.97694 11.4249 3.81342 11.3572 3.64293 11.3572H2.35721C2.18672 11.3572 2.0232 11.4249 1.90264 11.5455C1.78208 11.6661 1.71436 11.8296 1.71436 12.0001C1.71436 12.1706 1.78208 12.3341 1.90264 12.4546C2.0232 12.5752 2.18672 12.6429 2.35721 12.6429H3.64293ZM4.4735 4.4735C4.59403 4.35311 4.75743 4.28549 4.92778 4.28549C5.09814 4.28549 5.26153 4.35311 5.38207 4.4735L6.66778 5.75921C6.78134 5.88108 6.84316 6.04226 6.84022 6.2088C6.83728 6.37535 6.76981 6.53425 6.65203 6.65203C6.53425 6.76981 6.37535 6.83728 6.2088 6.84022C6.04226 6.84316 5.88108 6.78134 5.75921 6.66778L4.4735 5.38207C4.35311 5.26153 4.28549 5.09814 4.28549 4.92778C4.28549 4.75743 4.35311 4.59403 4.4735 4.4735ZM5.38207 19.5249C5.26021 19.6385 5.09902 19.7003 4.93248 19.6974C4.76594 19.6944 4.60703 19.627 4.48925 19.5092C4.37147 19.3914 4.304 19.2325 4.30106 19.0659C4.29812 18.8994 4.35994 18.7382 4.4735 18.6164L5.75921 17.3306C5.88108 17.2171 6.04226 17.1553 6.2088 17.1582C6.37535 17.1611 6.53425 17.2286 6.65203 17.3464C6.76981 17.4642 6.83728 17.6231 6.84022 17.7896C6.84316 17.9562 6.78134 18.1173 6.66778 18.2392L5.38207 19.5249ZM19.5249 4.4735C19.4044 4.35311 19.241 4.28549 19.0706 4.28549C18.9003 4.28549 18.7369 4.35311 18.6164 4.4735L17.3306 5.75921C17.2171 5.88108 17.1553 6.04226 17.1582 6.2088C17.1611 6.37535 17.2286 6.53425 17.3464 6.65203C17.4642 6.76981 17.6231 6.83728 17.7896 6.84022C17.9562 6.84316 18.1173 6.78134 18.2392 6.66778L19.5249 5.38207C19.6453 5.26153 19.7129 5.09814 19.7129 4.92778C19.7129 4.75743 19.6453 4.59403 19.5249 4.4735ZM18.6172 19.5258C18.6761 19.5889 18.747 19.6396 18.8259 19.6747C18.9048 19.7099 18.9899 19.7288 19.0762 19.7303C19.1625 19.7318 19.2482 19.7159 19.3283 19.6836C19.4083 19.6513 19.4811 19.6031 19.5421 19.5421C19.6031 19.4811 19.6513 19.4083 19.6836 19.3283C19.7159 19.2482 19.7318 19.1625 19.7303 19.0762C19.7288 18.9899 19.7099 18.9048 19.6747 18.8259C19.6396 18.747 19.5889 18.6761 19.5258 18.6172L18.2401 17.3315C18.1812 17.2683 18.1102 17.2177 18.0314 17.1825C17.9525 17.1474 17.8674 17.1285 17.7811 17.127C17.6948 17.1255 17.609 17.1413 17.529 17.1737C17.4489 17.206 17.3762 17.2541 17.3152 17.3152C17.2541 17.3762 17.206 17.4489 17.1737 17.529C17.1413 17.609 17.1255 17.6948 17.127 17.7811C17.1285 17.8674 17.1474 17.9525 17.1825 18.0314C17.2177 18.1102 17.2683 18.1812 17.3315 18.2401L18.6172 19.5258Z" fill="#FEB800"/>
</svg>
