<svg width="24" height="24" viewBox="0 0 24 24" fill="none" xmlns="http://www.w3.org/2000/svg">
<path d="M18.8577 16.2572C16.5072 20.3285 11.3014 21.7233 7.23014 19.3728C6.13546 18.7423 5.19544 17.8753 4.47878 16.835C4.42325 16.7545 4.38697 16.6623 4.37275 16.5655C4.35853 16.4687 4.36674 16.3699 4.39676 16.2768C4.42679 16.1837 4.47781 16.0988 4.54589 16.0285C4.61397 15.9583 4.69729 15.9046 4.7894 15.8717C7.99521 14.7245 9.71258 13.3952 10.7091 11.4923C11.7576 9.48983 12.0291 7.29674 11.2955 4.29007C11.2718 4.1933 11.2712 4.09233 11.2935 3.99525C11.3159 3.89817 11.3607 3.80767 11.4243 3.731C11.4879 3.65432 11.5685 3.5936 11.6598 3.5537C11.7511 3.51379 11.8504 3.4958 11.9499 3.50117C13.2857 3.57307 14.5854 3.96005 15.7429 4.63048C19.8142 6.98101 21.2091 12.1867 18.8577 16.2572Z" fill="#D580FF"/>
</svg>
