<svg width="16" height="17" viewBox="0 0 16 17" fill="none" xmlns="http://www.w3.org/2000/svg">
<g opacity="0.5" clip-path="url(#clip0_193_3073)">
<path d="M14 14.5L11.0093 11.504L14 14.5ZM12.6667 7.50004C12.6667 9.00293 12.0696 10.4443 11.0069 11.507C9.94423 12.5697 8.50289 13.1667 7 13.1667C5.4971 13.1667 4.05576 12.5697 2.99306 11.507C1.93035 10.4443 1.33333 9.00293 1.33333 7.50004C1.33333 5.99715 1.93035 4.55581 2.99306 3.4931C4.05576 2.4304 5.4971 1.83337 7 1.83337C8.50289 1.83337 9.94423 2.4304 11.0069 3.4931C12.0696 4.55581 12.6667 5.99715 12.6667 7.50004V7.50004Z" stroke="white" stroke-width="2" stroke-linecap="round"/>
</g>
<defs>
<clipPath id="clip0_193_3073">
<rect width="16" height="16" fill="white" transform="translate(0 0.5)"/>
</clipPath>
</defs>
</svg>
