<svg xmlns="http://www.w3.org/2000/svg" version="1.1" xmlns:xlink="http://www.w3.org/1999/xlink" xmlns:svgjs="http://svgjs.com/svgjs" width="1000" height="1000"><rect width="1000" height="1000" rx="200" ry="200" fill="#184a8b"></rect><g transform="matrix(7.5,0,0,7.5,50,50)"><svg xmlns="http://www.w3.org/2000/svg" version="1.1" xmlns:xlink="http://www.w3.org/1999/xlink" xmlns:svgjs="http://svgjs.com/svgjs" width="120" height="120"><svg width="120" height="120" viewBox="0 0 120 120" fill="none" xmlns="http://www.w3.org/2000/svg">
<path d="M51.4835 45C51.4835 54.1113 58.8953 61.5231 68.0066 61.5231C77.1179 61.5231 84.5297 54.1113 84.5297 45C84.5297 35.8887 77.1179 28.4769 68.0066 28.4769C58.8953 28.4769 51.4835 35.8887 51.4835 45ZM64.7 14C64.7 12.8954 65.5954 12 66.7 12H69.3C70.4046 12 71.3 12.8954 71.3 14V19.9C71.3 21.0046 70.4046 21.9 69.3 21.9H66.7C65.5954 21.9 64.7 21.0046 64.7 19.9V14ZM35 43.7C35 42.5954 35.8954 41.7 37 41.7H42.9C44.0046 41.7 44.9 42.5954 44.9 43.7V46.3C44.9 47.4046 44.0046 48.3 42.9 48.3H37C35.8954 48.3 35 47.4046 35 46.3V43.7ZM91.1 43.7C91.1 42.5954 91.9954 41.7 93.1 41.7H99C100.105 41.7 101 42.5954 101 43.7V46.3C101 47.4046 100.105 48.3 99 48.3H93.1C91.9954 48.3 91.1 47.4046 91.1 46.3V43.7ZM83.4128 27.7494C82.6318 26.9684 82.6318 25.702 83.4128 24.921L87.587 20.7468C88.368 19.9658 89.6344 19.9658 90.4154 20.7468L92.2532 22.5846C93.0342 23.3656 93.0342 24.632 92.2532 25.413L88.079 29.5872C87.298 30.3682 86.0316 30.3682 85.2506 29.5872L83.4128 27.7494ZM50.7497 29.5902C49.9686 30.3713 48.702 30.3712 47.921 29.5898L43.7499 25.4168C42.969 24.6355 42.9694 23.3691 43.7508 22.5882L45.5905 20.7498C46.3719 19.9689 47.6384 19.9695 48.4191 20.7509L52.5885 24.9243C53.3689 25.7054 53.3686 26.9713 52.5879 27.752L50.7497 29.5902Z" fill="#FFFA50"></path>
<path d="M83.1875 56.6C83.0949 56.6 83.0178 56.6306 82.9406 56.6306C83.1104 55.8344 83.1875 55.0075 83.1875 54.15C83.1875 47.3819 77.6637 41.9 70.8438 41.9C67.048 41.9 63.6998 43.6303 61.4316 46.31C58.5617 40.7975 52.8373 37 46.1562 37C36.6053 37 28.875 44.6716 28.875 54.15C28.875 55.2678 28.9984 56.3397 29.199 57.3962C23.2895 59.3256 19 64.7922 19 71.3C19 79.4156 25.6348 86 33.8125 86H83.1875C91.3652 86 98 79.4156 98 71.3C98 63.1844 91.3652 56.6 83.1875 56.6Z" fill="url(#paint0_radial_116_3582)"></path>
<path fill-rule="evenodd" clip-rule="evenodd" d="M68.0066 61.5231C58.8953 61.5231 51.4835 54.1113 51.4835 45C51.4835 42.641 51.9804 40.3958 52.875 38.3638C56.5692 39.9379 59.5889 42.7704 61.4317 46.31C63.6998 43.6303 67.0481 41.9 70.8438 41.9C76.9107 41.9 81.9519 46.2382 82.9912 51.9608C80.3597 57.6034 74.6326 61.5231 68.0066 61.5231Z" fill="#F7D056"></path>
<path d="M40.2308 93.6484C38.8769 98.2726 36 99.5224 36 102.782C36 105.667 38.274 108 41.0769 108C43.8798 108 46.1538 105.667 46.1538 102.782C46.1538 99.5119 43.2769 98.2934 41.9231 93.6484C41.6904 92.8048 40.4952 92.7632 40.2308 93.6484Z" fill="url(#paint1_radial_116_3582)"></path>
<path d="M74.2308 93.6484C72.8769 98.2726 70 99.5224 70 102.782C70 105.667 72.274 108 75.0769 108C77.8798 108 80.1538 105.667 80.1538 102.782C80.1538 99.5119 77.2769 98.2934 75.9231 93.6484C75.6904 92.8048 74.4952 92.7632 74.2308 93.6484Z" fill="url(#paint2_radial_116_3582)"></path>
<path d="M57.2308 93.6484C55.8769 98.2726 53 99.5224 53 102.782C53 105.667 55.274 108 58.0769 108C60.8798 108 63.1538 105.667 63.1538 102.782C63.1538 99.5119 60.2769 98.2934 58.9231 93.6484C58.6904 92.8048 57.4952 92.7632 57.2308 93.6484Z" fill="url(#paint3_radial_116_3582)"></path>
<defs>
<radialGradient id="paint0_radial_116_3582" cx="0" cy="0" r="1" gradientUnits="userSpaceOnUse" gradientTransform="translate(60.5 87.5) rotate(-91.4688) scale(58.5192 94.3473)">
<stop stop-color="white"></stop>
<stop offset="1" stop-color="#FFFA50"></stop>
</radialGradient>
<radialGradient id="paint1_radial_116_3582" cx="0" cy="0" r="1" gradientUnits="userSpaceOnUse" gradientTransform="translate(41.334 108.459) rotate(-90.6168) scale(17.9092 12.1297)">
<stop stop-color="white"></stop>
<stop offset="1" stop-color="#FFFA50"></stop>
</radialGradient>
<radialGradient id="paint2_radial_116_3582" cx="0" cy="0" r="1" gradientUnits="userSpaceOnUse" gradientTransform="translate(75.334 108.459) rotate(-90.6168) scale(17.9092 12.1297)">
<stop stop-color="white"></stop>
<stop offset="1" stop-color="#FFFA50"></stop>
</radialGradient>
<radialGradient id="paint3_radial_116_3582" cx="0" cy="0" r="1" gradientUnits="userSpaceOnUse" gradientTransform="translate(58.334 108.459) rotate(-90.6168) scale(17.9092 12.1297)">
<stop stop-color="white"></stop>
<stop offset="1" stop-color="#FFFA50"></stop>
</radialGradient>
</defs>
</svg></svg></g></svg>