<?xml version="1.0" standalone="no"?>
<!DOCTYPE svg PUBLIC "-//W3C//DTD SVG 20010904//EN"
 "http://www.w3.org/TR/2001/REC-SVG-20010904/DTD/svg10.dtd">
<svg version="1.0" xmlns="http://www.w3.org/2000/svg"
 width="512.000000pt" height="512.000000pt" viewBox="0 0 512.000000 512.000000"
 preserveAspectRatio="xMidYMid meet">
<metadata>
Created by potrace 1.14, written by Peter Selinger 2001-2017
</metadata>
<g transform="translate(0.000000,512.000000) scale(0.100000,-0.100000)"
fill="#000000" stroke="none">
<path d="M2814 4599 c-47 -17 -54 -43 -54 -199 0 -96 5 -153 13 -170 17 -33
66 -48 151 -44 58 2 73 7 94 27 24 24 25 29 25 176 0 165 -7 193 -52 210 -31
11 -147 12 -177 0z"/>
<path d="M1965 4248 c-28 -16 -114 -109 -121 -131 -11 -36 7 -65 100 -159 115
-118 135 -132 175 -123 35 7 139 108 147 142 10 38 -6 63 -106 163 -124 124
-145 136 -195 108z"/>
<path d="M3752 4244 c-34 -24 -212 -205 -213 -218 -1 -6 -3 -22 -4 -35 -3 -32
104 -146 146 -155 42 -8 58 3 172 116 84 85 100 106 104 139 5 36 2 42 -60
104 -70 70 -101 80 -145 49z"/>
<path d="M2784 3893 c-90 -15 -184 -51 -264 -101 -78 -49 -189 -166 -228 -239
-18 -35 -36 -63 -39 -63 -2 0 -37 10 -76 22 -58 18 -96 23 -192 23 -168 0
-215 -9 -339 -69 -193 -93 -336 -266 -392 -476 -18 -68 -26 -245 -13 -292 6
-24 4 -27 -39 -43 -26 -10 -54 -23 -62 -29 -8 -7 -28 -18 -45 -26 -16 -8 -61
-47 -100 -85 -127 -127 -193 -300 -181 -477 19 -287 221 -516 505 -573 66 -14
220 -15 1216 -13 l1140 3 75 28 c106 39 173 82 250 159 148 148 212 374 165
577 -53 224 -238 410 -462 466 -35 9 -84 17 -110 18 l-48 2 1 105 c1 81 7 120
24 170 27 80 33 113 33 215 2 132 -21 227 -80 335 -148 272 -434 413 -739 363z"/>
<path d="M3916 3315 c-19 -18 -26 -34 -27 -65 -3 -121 -1 -139 26 -165 24 -24
27 -25 182 -25 145 1 160 2 183 21 21 18 25 31 28 90 9 158 -4 169 -216 169
-144 0 -150 -1 -176 -25z"/>
<path d="M1726 1142 c-3 -5 -14 -34 -26 -65 -12 -31 -47 -96 -79 -144 -83
-128 -94 -162 -79 -242 24 -129 148 -204 273 -166 85 26 141 95 152 184 7 65
-12 118 -84 225 -29 44 -65 111 -80 148 -22 56 -30 68 -49 68 -13 0 -25 -4
-28 -8z"/>
<path d="M2455 1143 c-6 -5 -17 -28 -25 -53 -8 -24 -37 -80 -64 -125 -97 -157
-108 -183 -102 -247 12 -124 93 -201 211 -202 126 -1 216 89 217 217 0 61 -12
91 -81 197 -30 47 -67 114 -81 150 -26 64 -48 82 -75 63z"/>
<path d="M3168 1123 c-12 -31 -68 -148 -83 -175 -5 -10 -13 -18 -17 -18 -5 0
-8 -7 -8 -15 0 -8 -4 -15 -9 -15 -18 0 -62 -120 -63 -170 0 -79 45 -156 114
-191 56 -29 109 -34 165 -15 85 28 139 96 150 186 8 65 -11 115 -83 225 -33
50 -70 119 -82 153 -20 53 -27 62 -48 62 -17 0 -28 -8 -36 -27z"/>
</g>
</svg>
