<svg width="58" height="64" viewBox="0 0 58 64" fill="none" xmlns="http://www.w3.org/2000/svg">
<g filter="url(#filter0_d_507_1262)">
<path d="M17.9252 27.9925C17.9252 32.4448 21.5488 36.0667 26.0032 36.0667C30.4576 36.0667 34.0812 32.4448 34.0812 27.9925C34.0812 23.5402 30.4576 19.9183 26.0032 19.9183C21.5488 19.9183 17.9252 23.5402 17.9252 27.9925ZM24.3866 13.48C24.3866 12.589 25.109 11.8667 26 11.8667C26.891 11.8667 27.6133 12.589 27.6133 13.48V15.0911C27.6133 15.9821 26.891 16.7044 26 16.7044C25.109 16.7044 24.3866 15.9821 24.3866 15.0911V13.48ZM9.86664 27.9925C9.86664 27.1019 10.5886 26.3799 11.4792 26.3799H13.0941C13.9847 26.3799 14.7066 27.1019 14.7066 27.9925C14.7066 28.8831 13.9847 29.6051 13.0941 29.6051H11.4792C10.5886 29.6051 9.86664 28.8831 9.86664 27.9925ZM37.2933 27.9925C37.2933 27.1019 38.0153 26.3799 38.9059 26.3799H40.5207C41.4113 26.3799 42.1333 27.1019 42.1333 27.9925C42.1333 28.8831 41.4113 29.6051 40.5207 29.6051H38.9059C38.0153 29.6051 37.2933 28.8831 37.2933 27.9925ZM33.9849 20.0124C33.3547 19.3825 33.3547 18.361 33.9849 17.7311L35.1271 16.5894C35.7569 15.96 36.7776 15.96 37.4073 16.5894C38.0375 17.2193 38.0375 18.2408 37.4073 18.8707L36.2651 20.0124C35.6353 20.6418 34.6146 20.6418 33.9849 20.0124ZM18.0155 20.0136C17.3855 20.6432 16.3645 20.6431 15.7347 20.0133L14.5944 18.873C13.9642 18.2427 13.9645 17.2209 14.595 16.591C15.2252 15.9616 16.2463 15.962 16.8759 16.592L18.016 17.7326C18.6457 18.3626 18.6455 19.3839 18.0155 20.0136Z" fill="#F7D056"/>
<path d="M17.9252 28.0076C17.9252 23.5553 21.5488 19.9334 26.0032 19.9334C30.4576 19.9334 34.0812 23.5553 34.0812 28.0076C34.0812 32.4599 30.4576 36.0818 26.0032 36.0818C21.5488 36.0818 17.9252 32.4599 17.9252 28.0076ZM24.3866 42.5201C24.3866 43.4111 25.109 44.1334 26 44.1334C26.891 44.1334 27.6133 43.4111 27.6133 42.5201V40.909C27.6133 40.018 26.891 39.2957 26 39.2957C25.109 39.2957 24.3866 40.018 24.3866 40.909V42.5201ZM9.86664 28.0076C9.86664 28.8982 10.5886 29.6202 11.4792 29.6202H13.0941C13.9847 29.6202 14.7066 28.8982 14.7066 28.0076C14.7066 27.117 13.9847 26.395 13.0941 26.395H11.4792C10.5886 26.395 9.86664 27.117 9.86664 28.0076ZM37.2933 28.0076C37.2933 28.8982 38.0153 29.6202 38.9059 29.6202H40.5207C41.4113 29.6202 42.1333 28.8982 42.1333 28.0076C42.1333 27.117 41.4113 26.395 40.5207 26.395H38.9059C38.0153 26.395 37.2933 27.117 37.2933 28.0076ZM33.9849 35.9877C33.3547 36.6176 33.3547 37.6391 33.9849 38.269L35.1271 39.4107C35.7569 40.0402 36.7776 40.0402 37.4073 39.4107C38.0375 38.7808 38.0375 37.7593 37.4073 37.1295L36.2651 35.9877C35.6353 35.3583 34.6146 35.3583 33.9849 35.9877ZM18.0155 35.9865C17.3855 35.3569 16.3645 35.357 15.7347 35.9868L14.5944 37.1272C13.9642 37.7574 13.9645 38.7792 14.595 39.4091C15.2252 40.0385 16.2463 40.0381 16.8759 39.4082L18.016 38.2675C18.6457 37.6375 18.6455 36.6163 18.0155 35.9865Z" fill="#F7D056"/>
<circle cx="26" cy="28" r="8.43333" fill="#FFFA50"/>
<path fill-rule="evenodd" clip-rule="evenodd" d="M26 32.0333C27.1298 32.0333 28.1179 31.5497 28.744 30.8218L29.856 31.7782C28.9457 32.8365 27.5485 33.5 26 33.5C24.4515 33.5 23.0543 32.8365 22.144 31.7782L23.256 30.8218C23.8821 31.5497 24.8702 32.0333 26 32.0333Z" fill="#F7D056"/>
<path fill-rule="evenodd" clip-rule="evenodd" d="M16.1 24.7C16.1 23.6875 16.9208 22.8667 17.9333 22.8667H22.3333C23.0851 22.8667 23.7312 23.3192 24.0141 23.9667H27.6192C27.9021 23.3192 28.5482 22.8667 29.3 22.8667H33.7C34.7125 22.8667 35.5333 23.6875 35.5333 24.7V27.2667C35.5333 28.2792 34.7125 29.1 33.7 29.1H29.3C28.2875 29.1 27.4666 28.2792 27.4666 27.2667V26.1667H24.1666V27.2667C24.1666 28.2792 23.3458 29.1 22.3333 29.1H17.9333C16.9208 29.1 16.1 28.2792 16.1 27.2667V24.7Z" fill="#F7D056"/>
<path fill-rule="evenodd" clip-rule="evenodd" d="M34.3781 28.9705C34.4146 28.6521 34.4333 28.3283 34.4333 28C34.4333 26.0684 33.7839 24.2885 32.6916 22.8667H29.3C28.5482 22.8667 27.9021 23.3192 27.6192 23.9667H24.0141C23.7312 23.3192 23.0851 22.8667 22.3333 22.8667H19.3084C18.216 24.2885 17.5667 26.0684 17.5667 28C17.5667 28.3645 17.5898 28.7235 17.6346 29.0758C17.7318 29.0917 17.8316 29.1 17.9333 29.1H22.3333C23.3458 29.1 24.1666 28.2792 24.1666 27.2667V26.1667H27.4666V27.2667C27.4666 28.2792 28.2875 29.1 29.3 29.1H33.7C33.9395 29.1 34.1683 29.0541 34.3781 28.9705Z" fill="#FEB800"/>
</g>
<defs>
<filter id="filter0_d_507_1262" x="-5.13336" y="0.866699" width="62.2667" height="62.2667" filterUnits="userSpaceOnUse" color-interpolation-filters="sRGB">
<feFlood flood-opacity="0" result="BackgroundImageFix"/>
<feColorMatrix in="SourceAlpha" type="matrix" values="0 0 0 0 0 0 0 0 0 0 0 0 0 0 0 0 0 0 127 0" result="hardAlpha"/>
<feOffset dy="4"/>
<feGaussianBlur stdDeviation="7.5"/>
<feComposite in2="hardAlpha" operator="out"/>
<feColorMatrix type="matrix" values="0 0 0 0 1 0 0 0 0 0.980392 0 0 0 0 0.313725 0 0 0 0.36 0"/>
<feBlend mode="normal" in2="BackgroundImageFix" result="effect1_dropShadow_507_1262"/>
<feBlend mode="normal" in="SourceGraphic" in2="effect1_dropShadow_507_1262" result="shape"/>
</filter>
</defs>
</svg>
