<svg width="24" height="24" viewBox="0 0 24 24" fill="none" xmlns="http://www.w3.org/2000/svg">
<path d="M15.2286 11.755C15.4734 11.858 15.4734 12.2049 15.2286 12.308L8.93934 14.9554C8.67413 15.0671 8.41911 14.7775 8.56339 14.5285L9.92331 12.1819C9.97724 12.0889 9.97723 11.9741 9.9233 11.8811L8.56316 9.53453C8.41886 9.28557 8.67388 8.99595 8.9391 9.10759L15.2286 11.755Z" fill="url(#paint0_linear_321_6489)" fill-opacity="0.9"/>
<path d="M12 2.66663C10.154 2.66663 8.34953 3.21402 6.81467 4.23958C5.27981 5.26514 4.08354 6.7228 3.37712 8.42825C2.6707 10.1337 2.48587 12.0103 2.846 13.8208C3.20613 15.6313 4.09504 17.2943 5.40033 18.5996C6.70562 19.9049 8.36866 20.7938 10.1792 21.154C11.9896 21.5141 13.8663 21.3293 15.5717 20.6228C17.2771 19.9164 18.7348 18.7201 19.7604 17.1853C20.7859 15.6504 21.3333 13.8459 21.3333 12C21.3333 9.5246 20.35 7.15064 18.5997 5.4003C16.8493 3.64996 14.4753 2.66663 12 2.66663V2.66663ZM12.5833 20.1375L12.5833 18.7258H11.4167L11.4167 20.1375C9.46016 19.9955 7.62013 19.154 6.23304 17.7669C4.84594 16.3798 4.00447 14.5398 3.86249 12.5833H5.27416V11.4166H3.86249C4.00447 9.46012 4.84594 7.62009 6.23304 6.233C7.62013 4.84591 9.46016 4.00444 11.4167 3.86246V5.27413H12.5833V3.86246C14.5398 4.00444 16.3799 4.84591 17.7669 6.233C19.154 7.62009 19.9955 9.46012 20.1375 11.4166L18.7258 11.4166V12.5833L20.1375 12.5833C19.9955 14.5398 19.154 16.3798 17.7669 17.7669C16.3799 19.154 14.5398 19.9955 12.5833 20.1375V20.1375Z" fill="url(#paint1_linear_321_6489)" fill-opacity="0.9"/>
<path d="M12.7333 18.7258C12.7333 18.6429 12.6662 18.5758 12.5833 18.5758H11.4167C11.3338 18.5758 11.2667 18.6429 11.2667 18.7258L11.2667 19.9746C9.40627 19.8019 7.66264 18.9844 6.3391 17.6608C5.01557 16.3373 4.19809 14.5937 4.0254 12.7333H5.27416C5.357 12.7333 5.42416 12.6661 5.42416 12.5833V11.4166C5.42416 11.3338 5.357 11.2666 5.27416 11.2666H4.0254C4.19809 9.40624 5.01557 7.6626 6.3391 6.33907C7.66264 5.01553 9.40627 4.19806 11.2667 4.02537V5.27413C11.2667 5.35697 11.3338 5.42413 11.4167 5.42413H12.5833C12.6662 5.42413 12.7333 5.35697 12.7333 5.27413V4.02537C14.5937 4.19806 16.3373 5.01553 17.6609 6.33907C18.9844 7.6626 19.8019 9.40624 19.9746 11.2666L18.7258 11.2666C18.643 11.2666 18.5758 11.3338 18.5758 11.4166V12.5833C18.5758 12.6661 18.643 12.7333 18.7258 12.7333L19.9746 12.7333C19.8019 14.5937 18.9844 16.3373 17.6609 17.6608C16.3373 18.9844 14.5937 19.8019 12.7333 19.9746L12.7333 18.7258ZM12 2.51663C10.1244 2.51663 8.29086 3.07281 6.73134 4.11486C5.17181 5.1569 3.95631 6.63799 3.23854 8.37084C2.52077 10.1037 2.33296 12.0105 2.69888 13.8501C3.0648 15.6897 3.968 17.3794 5.29426 18.7057C6.62053 20.032 8.3103 20.9352 10.1499 21.3011C11.9895 21.667 13.8963 21.4792 15.6291 20.7614C17.362 20.0436 18.8431 18.8281 19.8851 17.2686C20.9271 15.7091 21.4833 13.8756 21.4833 12C21.4833 9.48482 20.4842 7.0727 18.7057 5.29423C16.9273 3.51576 14.5151 2.51663 12 2.51663Z" stroke="url(#paint2_linear_321_6489)" stroke-opacity="0.9" stroke-width="0.3" stroke-linejoin="round"/>
<defs>
<linearGradient id="paint0_linear_321_6489" x1="15.8855" y1="12.0315" x2="8.1145" y2="12.0315" gradientUnits="userSpaceOnUse">
<stop stop-color="#3FD5FE"/>
<stop offset="1" stop-color="#0090C3"/>
</linearGradient>
<linearGradient id="paint1_linear_321_6489" x1="12" y1="2.66663" x2="12" y2="21.3333" gradientUnits="userSpaceOnUse">
<stop stop-color="#3FD5FE"/>
<stop offset="1" stop-color="#0090C3"/>
</linearGradient>
<linearGradient id="paint2_linear_321_6489" x1="12" y1="2.66663" x2="12" y2="21.3333" gradientUnits="userSpaceOnUse">
<stop stop-color="#3FD5FE"/>
<stop offset="1" stop-color="#0090C3"/>
</linearGradient>
</defs>
</svg>
