<svg width="25" height="25" viewBox="0 0 25 25" fill="none" xmlns="http://www.w3.org/2000/svg">
<path fill-rule="evenodd" clip-rule="evenodd" d="M9.16079 8.7854C10.4435 6.69584 11.8907 4.89271 12.6669 3.97357C13.4429 4.89278 14.8899 6.69588 16.1726 8.78538C17.5583 11.0428 18.6667 13.5004 18.6667 15.5C18.6667 17.4116 18.0682 18.8946 17.0647 19.898C16.0612 20.9015 14.5783 21.5 12.6667 21.5C10.755 21.5 9.27207 20.9015 8.26861 19.898C7.26514 18.8946 6.66666 17.4116 6.66666 15.5C6.66666 13.5004 7.77504 11.0428 9.16079 8.7854ZM12.6669 2.37146C12.4774 2.37146 12.2902 2.41247 12.1182 2.49167C11.9461 2.57088 11.7932 2.6864 11.6699 2.8303L11.6696 2.83072C10.9154 3.7128 9.3067 5.68052 7.88244 8.00066C6.47772 10.289 5.16666 13.0544 5.16666 15.5C5.16666 17.7307 5.872 19.6227 7.20795 20.9587C8.5439 22.2946 10.4359 23 12.6667 23C14.8974 23 16.7894 22.2946 18.1254 20.9587C19.4613 19.6227 20.1667 17.7307 20.1667 15.5C20.1667 13.0544 18.8556 10.289 17.4509 8.00067C16.0267 5.68054 14.4182 3.71283 13.6643 2.83081L13.6638 2.8303C13.5406 2.6864 13.3877 2.57088 13.2156 2.49167C13.0435 2.41247 12.8563 2.37146 12.6669 2.37146ZM16.5238 15.6175C16.5238 17.9124 15.0337 19.3571 12.6667 19.3571C10.2996 19.3571 8.80951 17.9124 8.80951 15.6175C8.80951 15.1717 8.90016 14.6975 9.05366 14.2143L16.2797 14.2143C16.4332 14.6975 16.5238 15.1717 16.5238 15.6175Z" fill="url(#paint0_linear_321_4714)" fill-opacity="0.9"/>
<defs>
<linearGradient id="paint0_linear_321_4714" x1="12.6667" y1="2.37146" x2="12.6667" y2="23" gradientUnits="userSpaceOnUse">
<stop stop-color="#3FD5FE"/>
<stop offset="1" stop-color="#0090C3"/>
</linearGradient>
</defs>
</svg>
