<svg width="25" height="25" viewBox="0 0 25 25" fill="none" xmlns="http://www.w3.org/2000/svg">
<path fill-rule="evenodd" clip-rule="evenodd" d="M21.5156 6.49995C22.0127 6.49995 22.4156 6.09701 22.4156 5.59995C22.4156 5.1029 22.0127 4.69995 21.5156 4.69995L4.11563 4.69995C3.61857 4.69995 3.21563 5.10289 3.21563 5.59995C3.21563 6.09701 3.61857 6.49995 4.11563 6.49995L21.5156 6.49995ZM8.08631 10.0798C8.26259 9.61508 8.02875 9.09543 7.564 8.91914C7.09926 8.74286 6.5796 8.97671 6.40332 9.44145L6.04157 10.3952C5.86528 10.8599 6.09913 11.3796 6.56388 11.5558C7.02862 11.7321 7.54828 11.4983 7.72456 11.0335L8.08631 10.0798ZM6.63932 13.8946C6.8156 13.4299 6.58176 12.9102 6.11701 12.7339C5.65227 12.5577 5.13261 12.7915 4.95633 13.2562L4.23283 15.1636C4.05655 15.6284 4.29039 16.148 4.75514 16.3243C5.21989 16.5006 5.73954 16.2668 5.91583 15.802L6.63932 13.8946ZM4.83058 18.6631C5.00687 18.1984 4.77302 17.6787 4.30828 17.5024C3.84353 17.3261 3.32387 17.56 3.14759 18.0247L2.78584 18.9784C2.60956 19.4432 2.8434 19.9628 3.30815 20.1391C3.7729 20.3154 4.29255 20.0816 4.46884 19.6168L4.83058 18.6631ZM13.0932 10.0798C13.2695 9.61508 13.0356 9.09543 12.5709 8.91914C12.1061 8.74286 11.5865 8.97671 11.4102 9.44145L11.0484 10.3952C10.8722 10.8599 11.106 11.3796 11.5708 11.5558C12.0355 11.7321 12.5552 11.4983 12.7314 11.0335L13.0932 10.0798ZM11.6462 13.8946C11.8225 13.4299 11.5886 12.9102 11.1239 12.7339C10.6591 12.5577 10.1395 12.7915 9.9632 13.2562L9.2397 15.1636C9.06342 15.6284 9.29727 16.148 9.76201 16.3243C10.2268 16.5006 10.7464 16.2668 10.9227 15.802L11.6462 13.8946ZM9.83746 18.6631C10.0137 18.1984 9.7799 17.6787 9.31515 17.5024C8.8504 17.3261 8.33075 17.56 8.15446 18.0247L7.79272 18.9784C7.61643 19.4432 7.85028 19.9628 8.31502 20.1391C8.77977 20.3154 9.29943 20.0816 9.47571 19.6168L9.83746 18.6631ZM17.5777 8.91914C18.0425 9.09543 18.2763 9.61508 18.1 10.0798L17.7383 11.0335C17.562 11.4983 17.0424 11.7321 16.5776 11.5558C16.1129 11.3796 15.879 10.8599 16.0553 10.3952L16.417 9.44145C16.5933 8.97671 17.113 8.74286 17.5777 8.91914ZM16.1307 12.7339C16.5955 12.9102 16.8293 13.4299 16.653 13.8946L15.9296 15.802C15.7533 16.2668 15.2336 16.5006 14.7689 16.3243C14.3041 16.148 14.0703 15.6284 14.2466 15.1636L14.9701 13.2562C15.1463 12.7915 15.666 12.5577 16.1307 12.7339ZM14.322 17.5024C14.7867 17.6787 15.0206 18.1984 14.8443 18.6631L14.4826 19.6168C14.3063 20.0816 13.7866 20.3154 13.3219 20.1391C12.8571 19.9628 12.6233 19.4432 12.7996 18.9784L13.1613 18.0247C13.3376 17.56 13.8573 17.3261 14.322 17.5024Z" fill="url(#paint0_linear_321_4703)" fill-opacity="0.9"/>
<defs>
<linearGradient id="paint0_linear_321_4703" x1="12.5714" y1="4.69995" x2="12.5714" y2="20.1979" gradientUnits="userSpaceOnUse">
<stop stop-color="#3FD5FE"/>
<stop offset="1" stop-color="#0090C3"/>
</linearGradient>
</defs>
</svg>
