<svg width="24" height="24" viewBox="0 0 24 24" fill="none" xmlns="http://www.w3.org/2000/svg">
<path fill-rule="evenodd" clip-rule="evenodd" d="M12.2871 3.30691C12.1987 3.27024 12.1017 3.25 12 3.25C11.8983 3.25 11.8013 3.27024 11.7129 3.30691C11.6245 3.34351 11.5416 3.39776 11.4697 3.46967L11.4696 3.46977L9.46967 5.46967C9.17678 5.76256 9.17678 6.23744 9.46967 6.53033C9.76256 6.82322 10.2374 6.82322 10.5303 6.53033L11.25 5.81066V8C11.25 8.41421 11.5858 8.75 12 8.75C12.4142 8.75 12.75 8.41421 12.75 8V5.81066L13.4697 6.53033C13.7626 6.82322 14.2374 6.82322 14.5303 6.53033C14.8232 6.23744 14.8232 5.76256 14.5303 5.46967L12.5303 3.46967C12.4584 3.39776 12.3755 3.34351 12.2871 3.30691ZM12 10.4962C12.8426 10.4961 13.6704 10.7178 14.4002 11.1391C15.13 11.5603 15.7361 12.1662 16.1574 12.8959C16.5788 13.6257 16.8006 14.4534 16.8007 15.2961C16.8007 16.1387 16.5789 16.9665 16.1576 17.6962H19.4C19.6122 17.6962 19.8156 17.7805 19.9657 17.9306C20.1157 18.0806 20.2 18.2841 20.2 18.4962C20.2 18.7084 20.1157 18.9119 19.9657 19.0619C19.8156 19.212 19.6122 19.2962 19.4 19.2962H4.59999C4.38781 19.2962 4.18433 19.212 4.0343 19.0619C3.88427 18.9119 3.79999 18.7084 3.79999 18.4962C3.79999 18.2841 3.88427 18.0806 4.0343 17.9306C4.18433 17.7805 4.38781 17.6962 4.59999 17.6962H7.84239C7.42107 16.9665 7.19928 16.1387 7.19931 15.2961C7.19934 14.4534 7.42119 13.6257 7.84256 12.8959C8.26393 12.1662 8.86996 11.5603 9.59975 11.1391C10.3295 10.7178 11.1574 10.4961 12 10.4962ZM12 12.0962C11.3651 12.0962 10.7445 12.285 10.2172 12.6387C9.68994 12.9924 9.27978 13.4949 9.03893 14.0823C8.79808 14.6698 8.73743 15.3156 8.86469 15.9376C8.99195 16.5597 9.30137 17.1298 9.75359 17.5754L9.88399 17.6954H14.116C14.6031 17.2655 14.9479 16.6974 15.1043 16.0668C15.2608 15.4361 15.2216 14.7728 14.9919 14.165C14.7622 13.5572 14.3529 13.0337 13.8184 12.6642C13.284 12.2946 12.6497 12.0965 12 12.0962ZM19.2 14.4962C19.4122 14.4962 19.6156 14.5805 19.7657 14.7306C19.9157 14.8806 20 15.0841 20 15.2962C20 15.5084 19.9157 15.7119 19.7657 15.8619C19.6156 16.012 19.4122 16.0962 19.2 16.0962H18.4C18.1878 16.0962 17.9843 16.012 17.8343 15.8619C17.6843 15.7119 17.6 15.5084 17.6 15.2962C17.6 15.0841 17.6843 14.8806 17.8343 14.7306C17.9843 14.5805 18.1878 14.4962 18.4 14.4962H19.2ZM5.59999 14.4962C5.81216 14.4962 6.01564 14.5805 6.16567 14.7306C6.3157 14.8806 6.39999 15.0841 6.39999 15.2962C6.39999 15.5084 6.3157 15.7119 6.16567 15.8619C6.01564 16.012 5.81216 16.0962 5.59999 16.0962H4.79999C4.58781 16.0962 4.38433 16.012 4.2343 15.8619C4.08427 15.7119 3.99999 15.5084 3.99999 15.2962C3.99999 15.0841 4.08427 14.8806 4.2343 14.7306C4.38433 14.5805 4.58781 14.4962 4.79999 14.4962H5.59999ZM6.34319 9.63944C6.48094 9.5017 6.66422 9.41895 6.85864 9.40673C7.05306 9.3945 7.24527 9.45364 7.39919 9.57304L7.47439 9.63944L8.03999 10.205C8.18347 10.349 8.26677 10.5422 8.27297 10.7453C8.27917 10.9485 8.20782 11.1464 8.07339 11.2989C7.93896 11.4513 7.75155 11.5469 7.54921 11.5662C7.34687 11.5854 7.14478 11.527 6.98399 11.4026L6.90879 11.3362L6.34319 10.7706C6.19321 10.6206 6.10896 10.4172 6.10896 10.205C6.10896 9.99291 6.19321 9.78946 6.34319 9.63944ZM17.6568 9.63944C17.8068 9.78946 17.891 9.99291 17.891 10.205C17.891 10.4172 17.8068 10.6206 17.6568 10.7706L17.0912 11.3362C16.9403 11.482 16.7382 11.5626 16.5285 11.5608C16.3187 11.559 16.1181 11.4748 15.9697 11.3265C15.8214 11.1782 15.7373 10.9775 15.7354 10.7678C15.7336 10.558 15.8143 10.3559 15.96 10.205L16.5256 9.63944C16.6756 9.48946 16.8791 9.40521 17.0912 9.40521C17.3033 9.40521 17.5068 9.48946 17.6568 9.63944Z" fill="url(#paint0_linear_203_4899)" fill-opacity="0.9"/>
<defs>
<linearGradient id="paint0_linear_203_4899" x1="12" y1="3.25" x2="12" y2="19.2962" gradientUnits="userSpaceOnUse">
<stop stop-color="#3FD5FE"/>
<stop offset="1" stop-color="#0090C3"/>
</linearGradient>
</defs>
</svg>
