<svg width="24" height="24" viewBox="0 0 24 24" fill="none" xmlns="http://www.w3.org/2000/svg">
<path fill-rule="evenodd" clip-rule="evenodd" d="M12.2871 8.69309C12.1987 8.72976 12.1017 8.75 12 8.75C11.8983 8.75 11.8013 8.72976 11.7129 8.69309C11.6245 8.65649 11.5416 8.60224 11.4697 8.53033L9.46967 6.53033C9.17678 6.23744 9.17678 5.76256 9.46967 5.46967C9.76256 5.17678 10.2374 5.17678 10.5303 5.46967L11.25 6.18934V4C11.25 3.58579 11.5858 3.25 12 3.25C12.4142 3.25 12.75 3.58579 12.75 4V6.18934L13.4697 5.46967C13.7626 5.17678 14.2374 5.17678 14.5303 5.46967C14.8232 5.76256 14.8232 6.23744 14.5303 6.53033L12.5303 8.53033C12.4584 8.60224 12.3755 8.65649 12.2871 8.69309ZM12 10.4975C12.8427 10.4974 13.6706 10.7191 14.4005 11.1404C15.1304 11.5617 15.7365 12.1677 16.1579 12.8975C16.5793 13.6273 16.8012 14.4551 16.8012 15.2979C16.8012 16.1406 16.5794 16.9685 16.1581 17.6983H19.4007C19.6129 17.6983 19.8164 17.7826 19.9664 17.9326C20.1165 18.0827 20.2008 18.2862 20.2008 18.4984C20.2008 18.7106 20.1165 18.9141 19.9664 19.0641C19.8164 19.2142 19.6129 19.2985 19.4007 19.2985H4.59928C4.38709 19.2985 4.18358 19.2142 4.03353 19.0641C3.88349 18.9141 3.79919 18.7106 3.79919 18.4984C3.79919 18.2862 3.88349 18.0827 4.03353 17.9326C4.18358 17.7826 4.38709 17.6983 4.59928 17.6983H7.84193C7.42057 16.9685 7.19875 16.1406 7.19878 15.2979C7.19881 14.4551 7.42069 13.6273 7.8421 12.8975C8.26352 12.1677 8.86962 11.5617 9.59949 11.1404C10.3294 10.7191 11.1573 10.4974 12 10.4975ZM12 12.0977C11.365 12.0976 10.7444 12.2865 10.217 12.6402C9.68969 12.9939 9.27948 13.4965 9.03861 14.084C8.79773 14.6715 8.73707 15.3174 8.86435 15.9395C8.99162 16.5616 9.30108 17.1318 9.75334 17.5775L9.88376 17.6975H14.1162C14.6034 17.2675 14.9482 16.6994 15.1047 16.0687C15.2611 15.4379 15.2219 14.7745 14.9922 14.1667C14.7625 13.5588 14.3532 13.0353 13.8187 12.6657C13.2842 12.2961 12.6498 12.098 12 12.0977ZM19.2008 14.4979C19.4047 14.4982 19.6009 14.5763 19.7491 14.7162C19.8974 14.8562 19.9867 15.0476 19.9986 15.2511C20.0106 15.4547 19.9443 15.6552 19.8134 15.8116C19.6826 15.9679 19.4969 16.0684 19.2944 16.0925L19.2008 16.0981H18.4007C18.1968 16.0979 18.0006 16.0198 17.8523 15.8798C17.7041 15.7398 17.6148 15.5485 17.6029 15.3449C17.5909 15.1413 17.6572 14.9409 17.788 14.7845C17.9189 14.6281 18.1046 14.5276 18.3071 14.5035L18.4007 14.4979H19.2008ZM5.59928 14.4979C5.80321 14.4982 5.99935 14.5763 6.14764 14.7162C6.29592 14.8562 6.38516 15.0476 6.39711 15.2511C6.40906 15.4547 6.34283 15.6552 6.21194 15.8116C6.08105 15.9679 5.89539 16.0684 5.69289 16.0925L5.59928 16.0981H4.79919C4.59527 16.0979 4.39912 16.0198 4.25084 15.8798C4.10255 15.7398 4.01332 15.5485 4.00137 15.3449C3.98942 15.1413 4.05565 14.9409 4.18654 14.7845C4.31743 14.6281 4.50308 14.5276 4.70558 14.5035L4.79919 14.4979H5.59928ZM7.47389 9.64061L8.03955 10.2063C8.1853 10.3572 8.26594 10.5593 8.26412 10.7691C8.26229 10.9788 8.17815 11.1795 8.02981 11.3279C7.88146 11.4762 7.68079 11.5603 7.47101 11.5622C7.26123 11.564 7.05913 11.4833 6.90823 11.3376L6.34257 10.7719C6.19682 10.621 6.11618 10.4189 6.118 10.2092C6.11982 9.99937 6.20397 9.7987 6.35231 9.65035C6.50065 9.50201 6.70133 9.41787 6.91111 9.41604C7.12089 9.41422 7.32299 9.49487 7.47389 9.64061ZM16.5261 9.64061C16.6701 9.49711 16.8633 9.4138 17.0665 9.4076C17.2696 9.4014 17.4676 9.47276 17.62 9.6072C17.7725 9.74165 17.8681 9.92908 17.8874 10.1314C17.9066 10.3338 17.8482 10.5359 17.7238 10.6967L17.6574 10.7719L17.0918 11.3376C16.9478 11.4811 16.7546 11.5644 16.5514 11.5706C16.3482 11.5768 16.1503 11.5054 15.9978 11.371C15.8453 11.2366 15.7498 11.0491 15.7305 10.8468C15.7112 10.6444 15.7697 10.4423 15.894 10.2815L15.9604 10.2063L16.5261 9.64061Z" fill="url(#paint0_linear_203_4898)" fill-opacity="0.9"/>
<defs>
<linearGradient id="paint0_linear_203_4898" x1="12" y1="3.25" x2="12" y2="19.2985" gradientUnits="userSpaceOnUse">
<stop stop-color="#3FD5FE"/>
<stop offset="1" stop-color="#0090C3"/>
</linearGradient>
</defs>
</svg>
