<svg width="24" height="24" viewBox="0 0 24 24" fill="none" xmlns="http://www.w3.org/2000/svg">
<path fill-rule="evenodd" clip-rule="evenodd" d="M12 3.75C8.54822 3.75 5.75 6.54822 5.75 10C5.75 13.4518 8.54822 16.25 12 16.25C15.4518 16.25 18.25 13.4518 18.25 10C18.25 6.54822 15.4518 3.75 12 3.75ZM14.75 17.2479C17.6727 16.1384 19.75 13.3118 19.75 10C19.75 5.71979 16.2802 2.25 12 2.25C7.71979 2.25 4.25 5.71979 4.25 10C4.25 13.3118 6.3273 16.1384 9.25 17.2479V21C9.25 21.4142 9.58579 21.75 10 21.75H14C14.4142 21.75 14.75 21.4142 14.75 21L14.75 17.2479ZM12 17.75H10.75V20.25H13.25L13.25 17.75H12ZM10.5 11.95C10.5 11.53 10.65 11.17 10.94 10.86C11.0966 10.6927 11.2735 10.569 11.4677 10.4891C11.7826 10.3595 12.107 10.2041 12.2839 9.91316L14.5328 6.21443C14.6435 6.03226 14.8771 5.96801 15.0654 6.06789C15.2493 6.16539 15.3285 6.38695 15.2482 6.57896L13.5859 10.5539C13.4517 10.8746 13.5206 11.2386 13.5932 11.5786C13.6181 11.6953 13.63 11.819 13.63 11.95C13.63 12.39 13.48 12.76 13.17 13.06C12.86 13.36 12.49 13.51 12.05 13.51C11.62 13.51 11.25 13.36 10.95 13.06C10.65 12.76 10.5 12.39 10.5 11.95ZM9 10.5C9 10.7761 8.77614 11 8.5 11H7.5C7.22386 11 7 10.7761 7 10.5C7 10.2239 7.22386 10 7.5 10H8.5C8.77614 10 9 10.2239 9 10.5ZM11.5 6.5C11.5 6.77614 11.7239 7 12 7C12.2761 7 12.5 6.77614 12.5 6.5V5.5C12.5 5.22386 12.2761 5 12 5C11.7239 5 11.5 5.22386 11.5 5.5V6.5ZM9.8464 8.0535C9.65114 8.24877 9.33455 8.24877 9.13929 8.0535L8.43218 7.3464C8.23692 7.15114 8.23692 6.83455 8.43218 6.63929C8.62745 6.44403 8.94403 6.44403 9.13929 6.63929L9.8464 7.3464C10.0417 7.54166 10.0417 7.85824 9.8464 8.0535ZM16.5 11C16.7761 11 17 10.7761 17 10.5C17 10.2239 16.7761 10 16.5 10H15.5C15.2239 10 15 10.2239 15 10.5C15 10.7761 15.2239 11 15.5 11H16.5Z" fill="url(#paint0_linear_321_6500)" fill-opacity="0.9"/>
<defs>
<linearGradient id="paint0_linear_321_6500" x1="12" y1="2.25" x2="12" y2="21.75" gradientUnits="userSpaceOnUse">
<stop stop-color="#3FD5FE"/>
<stop offset="1" stop-color="#0090C3"/>
</linearGradient>
</defs>
</svg>
