<svg width="25" height="25" viewBox="0 0 25 25" fill="none" xmlns="http://www.w3.org/2000/svg">
<path fill-rule="evenodd" clip-rule="evenodd" d="M12.066 4.46512C12.2205 4.394 12.3886 4.35718 12.5587 4.35718C12.7288 4.35718 12.8969 4.394 13.0514 4.46512C13.206 4.53624 13.3432 4.63996 13.4539 4.76917L13.4543 4.76968C14.0315 5.44494 15.2635 6.95185 16.3553 8.73051C17.4276 10.4773 18.4504 12.6206 18.4504 14.5367C18.4504 16.274 17.9004 17.764 16.8431 18.8213C15.7858 19.8786 14.2958 20.4286 12.5585 20.4286C10.8213 20.4286 9.33122 19.8786 8.27394 18.8213C7.21666 17.764 6.66663 16.274 6.66663 14.5367C6.66663 12.6206 7.68949 10.4773 8.76182 8.7305C9.85368 6.95184 11.0858 5.44491 11.6632 4.76959L11.6636 4.76917C11.7742 4.63996 11.9115 4.53624 12.066 4.46512ZM12.5587 6.03444C13.1694 6.76842 14.1771 8.04929 15.0769 9.51523C16.1303 11.2312 16.9504 13.0667 16.9504 14.5367C16.9504 15.9549 16.5073 17.0358 15.7825 17.7606C15.0577 18.4854 13.9767 18.9286 12.5585 18.9286C11.1403 18.9286 10.0594 18.4854 9.3346 17.7606C8.6098 17.0358 8.16663 15.9549 8.16663 14.5367C8.16663 13.0667 8.98681 11.2312 10.0402 9.51524C10.9401 8.04927 11.9479 6.76836 12.5587 6.03444Z" fill="#AAD9E9"/>
</svg>
