<svg width="25" height="25" viewBox="0 0 25 25" fill="none" xmlns="http://www.w3.org/2000/svg">
<path fill-rule="evenodd" clip-rule="evenodd" d="M20.3156 6.49995C20.8126 6.49995 21.2156 6.09701 21.2156 5.59995C21.2156 5.1029 20.8126 4.69995 20.3156 4.69995L5.31559 4.69995C4.81853 4.69995 4.41559 5.10289 4.41559 5.59995C4.41559 6.09701 4.81853 6.49995 5.31559 6.49995L20.3156 6.49995ZM8.08627 10.0798C8.26255 9.61509 8.0287 9.09543 7.56396 8.91914C7.09921 8.74286 6.57955 8.97671 6.40327 9.44145L6.04152 10.3952C5.86524 10.8599 6.09908 11.3796 6.56383 11.5558C7.02858 11.7321 7.54823 11.4983 7.72452 11.0335L8.08627 10.0798ZM6.63928 13.8946C6.81556 13.4299 6.58171 12.9102 6.11697 12.7339C5.65222 12.5577 5.13256 12.7915 4.95628 13.2562L4.23279 15.1636C4.0565 15.6284 4.29035 16.148 4.75509 16.3243C5.21984 16.5006 5.7395 16.2668 5.91578 15.802L6.63928 13.8946ZM4.83054 18.6631C5.00682 18.1984 4.77298 17.6787 4.30823 17.5024C3.84348 17.3261 3.32383 17.56 3.14754 18.0247L2.7858 18.9784C2.60951 19.4432 2.84336 19.9628 3.30811 20.1391C3.77285 20.3154 4.29251 20.0816 4.46879 19.6168L4.83054 18.6631ZM13.0931 10.0798C13.2694 9.61509 13.0356 9.09543 12.5708 8.91914C12.1061 8.74286 11.5864 8.97671 11.4101 9.44145L11.0484 10.3952C10.8721 10.8599 11.106 11.3796 11.5707 11.5558C12.0355 11.7321 12.5551 11.4983 12.7314 11.0335L13.0931 10.0798ZM11.6461 13.8946C11.8224 13.4299 11.5886 12.9102 11.1238 12.7339C10.6591 12.5577 10.1394 12.7915 9.96315 13.2562L9.23966 15.1636C9.06338 15.6284 9.29722 16.148 9.76197 16.3243C10.2267 16.5006 10.7464 16.2668 10.9227 15.802L11.6461 13.8946ZM17.5777 8.91914C18.0424 9.09543 18.2763 9.61508 18.1 10.0798L17.7382 11.0335C17.562 11.4983 17.0423 11.7321 16.5776 11.5558C16.1128 11.3796 15.879 10.8599 16.0552 10.3952L16.417 9.44145C16.5933 8.97671 17.1129 8.74286 17.5777 8.91914Z" fill="#AAD9E9"/>
</svg>
