<svg width="25" height="24" viewBox="0 0 25 24" fill="none" xmlns="http://www.w3.org/2000/svg">
<path fill-rule="evenodd" clip-rule="evenodd" d="M5.83325 11.75C5.83325 8.29822 8.63147 5.5 12.0833 5.5C15.535 5.5 18.3333 8.29822 18.3333 11.75C18.3333 15.2018 15.535 18 12.0833 18C8.63147 18 5.83325 15.2018 5.83325 11.75ZM12.0833 4C7.80305 4 4.33325 7.46979 4.33325 11.75C4.33325 16.0302 7.80305 19.5 12.0833 19.5C16.3635 19.5 19.8333 16.0302 19.8333 11.75C19.8333 7.46979 16.3635 4 12.0833 4ZM10.7733 10.97C10.4833 11.28 10.3333 11.64 10.3333 12.06C10.3333 12.5 10.4833 12.87 10.7833 13.17C11.0833 13.47 11.4533 13.62 11.8833 13.62C12.3233 13.62 12.6933 13.47 13.0033 13.17C13.3133 12.87 13.4633 12.5 13.4633 12.06C13.4633 11.72 13.3833 11.43 13.2033 11.18L14.8285 7.7026C14.9208 7.50505 14.842 7.26981 14.6494 7.16765C14.4684 7.07164 14.2442 7.12431 14.1249 7.29091L11.8333 10.49C11.4233 10.5 11.0633 10.66 10.7733 10.97Z" fill="#AAD9E9"/>
</svg>
