<?xml version="1.0" encoding="utf-8"?>
<!-- Svg Vector Icons : http://www.onlinewebfonts.com/icon -->
<!DOCTYPE svg PUBLIC "-//W3C//DTD SVG 1.1//EN" "http://www.w3.org/Graphics/SVG/1.1/DTD/svg11.dtd">
<svg version="1.1" xmlns="http://www.w3.org/2000/svg" xmlns:xlink="http://www.w3.org/1999/xlink" x="0px" y="0px" viewBox="0 0 1000 1000" enable-background="new 0 0 1000 1000" xml:space="preserve">
<metadata> Svg Vector Icons : http://www.onlinewebfonts.com/icon </metadata>
<g><g transform="translate(0.000000,511.000000) scale(0.100000,-0.100000)"><path d="M7034.7,2845.7c-116.9-80.4-164.8-237.6-113-373.6c9.6-28.7,469.4-503.9,1019.3-1053.8l1000.1-1002H5339.1l-3601.9,1.9l-563.3,616.9c-310.4,339.1-590.1,634.2-620.8,653.3c-76.6,49.8-216.5,49.8-302.7,0c-126.5-74.7-182-241.4-124.5-377.4c13.4-34.5,258.7-316.1,544.1-626.5c285.5-310.4,517.3-570.9,515.4-578.6c-1.9-5.7-239.5-268.2-526.9-582.4c-549.9-599.7-578.6-639.9-551.8-781.7c15.3-78.5,88.1-172.4,166.7-212.7c74.7-40.2,206.9-36.4,279.7,7.6c32.6,21.1,312.3,314.2,622.7,651.4l561.4,613.1l3601.9,1.9h3601.9L7941-1196.9c-549.9-551.8-1009.7-1026.9-1019.3-1055.7c-53.6-143.7-3.8-302.7,116.9-377.4c74.7-46,224.2-51.7,298.9-11.5c76.6,42.1,2485,2461.9,2525.2,2540.5c49.8,92,49.8,329.5,0,421.5C9822.4,397.2,7416,2818.9,7337.5,2861C7257,2903.2,7109.5,2895.5,7034.7,2845.7z"/></g></g>
</svg>