<svg width="24" height="44" viewBox="0 0 24 44" fill="none" xmlns="http://www.w3.org/2000/svg">
<path fill-rule="evenodd" clip-rule="evenodd" d="M11.8076 32.6152C5.88916 32.6152 1 27.7261 1 21.8076C1 15.8892 5.88086 11 11.7993 11C17.7178 11 22.6152 15.8892 22.6152 21.8076C22.6152 27.7261 17.7261 32.6152 11.8076 32.6152ZM7.10107 22.6128H16.4976C17.0288 22.6128 17.394 22.3306 17.394 21.8242C17.394 21.3013 17.0537 21.0024 16.4976 21.0024H7.10107C6.55322 21.0024 6.19629 21.3013 6.19629 21.8242C6.19629 22.3306 6.57812 22.6128 7.10107 22.6128Z" fill="#F5804E"/>
<line x1="6" y1="22" x2="18" y2="22" stroke="white" stroke-width="2" stroke-linecap="round"/>
</svg>
