<svg width="24" height="25" viewBox="0 0 24 25" fill="none" xmlns="http://www.w3.org/2000/svg">
<path d="M18.75 15.5C18.75 19.6423 16.1423 22.25 12 22.25C7.85766 22.25 5.25 19.6423 5.25 15.5C5.25 11.0548 10.0889 5.05389 11.573 3.3181C11.6258 3.25643 11.6913 3.20693 11.7651 3.17298C11.8388 3.13904 11.919 3.12146 12.0002 3.12146C12.0814 3.12146 12.1617 3.13904 12.2354 3.17298C12.3092 3.20693 12.3747 3.25643 12.4275 3.3181C13.9111 5.05389 18.75 11.0548 18.75 15.5Z" stroke="#3FD5FE" stroke-width="1.5" stroke-miterlimit="10"/>
<path d="M12 19.3571C14.3671 19.3571 15.8572 17.9124 15.8572 15.6175C15.8572 15.1716 15.7665 14.6975 15.613 14.2142L8.38703 14.2142C8.23353 14.6975 8.14288 15.1716 8.14288 15.6175C8.14288 17.9124 9.63297 19.3571 12 19.3571Z" fill="#3FD5FE" stroke="#3FD5FE" stroke-width="1.5" stroke-miterlimit="10"/>
</svg>
