<svg width="24" height="25" viewBox="0 0 24 25" fill="none" xmlns="http://www.w3.org/2000/svg">
<path fill-rule="evenodd" clip-rule="evenodd" d="M8.24835 7.41921C8.71309 7.5955 8.94694 8.11515 8.77065 8.5799L8.40891 9.5336C8.23262 9.99834 7.71297 10.2322 7.24822 10.0559C6.78347 9.87962 6.54963 9.35997 6.72591 8.89522L7.08766 7.94152C7.26394 7.47678 7.7836 7.24293 8.24835 7.41921ZM6.80136 11.234C7.2661 11.4103 7.49995 11.9299 7.32367 12.3947L6.60017 14.3021C6.42389 14.7668 5.90423 15.0007 5.43948 14.8244C4.97474 14.6481 4.74089 14.1285 4.91717 13.6637L5.64067 11.7563C5.81695 11.2916 6.33661 11.0577 6.80136 11.234ZM4.99262 16.0025C5.45737 16.1788 5.69121 16.6984 5.51493 17.1632L5.15318 18.1169C4.9769 18.5816 4.45724 18.8155 3.99249 18.6392C3.52775 18.4629 3.2939 17.9432 3.47019 17.4785L3.83193 16.5248C4.00822 16.0601 4.52787 15.8262 4.99262 16.0025Z" fill="#3FD5FE"/>
<path fill-rule="evenodd" clip-rule="evenodd" d="M13.2552 7.41921C13.72 7.5955 13.9538 8.11515 13.7776 8.5799L13.4158 9.5336C13.2395 9.99834 12.7199 10.2322 12.2551 10.0559C11.7904 9.87962 11.5565 9.35997 11.7328 8.89522L12.0946 7.94152C12.2708 7.47678 12.7905 7.24293 13.2552 7.41921ZM11.8083 11.234C12.273 11.4103 12.5068 11.9299 12.3306 12.3947L11.6071 14.3021C11.4308 14.7668 10.9111 15.0007 10.4464 14.8244C9.98163 14.6481 9.74779 14.1285 9.92407 13.6637L10.6476 11.7563C10.8239 11.2916 11.3435 11.0577 11.8083 11.234ZM9.99952 16.0025C10.4643 16.1788 10.6981 16.6984 10.5218 17.1632L10.1601 18.1169C9.9838 18.5816 9.46414 18.8155 8.99939 18.6392C8.53465 18.4629 8.3008 17.9432 8.47708 17.4785L8.83883 16.5248C9.01511 16.0601 9.53477 15.8262 9.99952 16.0025Z" fill="#3FD5FE"/>
<path fill-rule="evenodd" clip-rule="evenodd" d="M18.2621 7.41921C18.7268 7.5955 18.9607 8.11515 18.7844 8.5799L18.4226 9.5336C18.2464 9.99834 17.7267 10.2322 17.262 10.0559C16.7972 9.87962 16.5634 9.35997 16.7396 8.89522L17.1014 7.94152C17.2777 7.47678 17.7973 7.24293 18.2621 7.41921ZM16.8151 11.234C17.2798 11.4103 17.5137 11.9299 17.3374 12.3947L16.6139 14.3021C16.4376 14.7668 15.918 15.0007 15.4532 14.8244C14.9885 14.6481 14.7546 14.1285 14.9309 13.6637L15.6544 11.7563C15.8307 11.2916 16.3503 11.0577 16.8151 11.234ZM15.0064 16.0025C15.4711 16.1788 15.7049 16.6984 15.5287 17.1632L15.1669 18.1169C14.9906 18.5816 14.471 18.8155 14.0062 18.6392C13.5415 18.4629 13.3076 17.9432 13.4839 17.4785L13.8457 16.5248C14.0219 16.0601 14.5416 15.8262 15.0064 16.0025Z" fill="#3FD5FE"/>
<path fill-rule="evenodd" clip-rule="evenodd" d="M23.1 4.1C23.1 4.59706 22.697 5 22.2 5L4.79997 5C4.30292 5 3.89997 4.59705 3.89997 4.1C3.89997 3.60294 4.30292 3.2 4.79998 3.2L22.2 3.2C22.697 3.2 23.1 3.60294 23.1 4.1Z" fill="#3FD5FE"/>
</svg>
