<svg width="24" height="25" viewBox="0 0 24 25" fill="none" xmlns="http://www.w3.org/2000/svg">
<path d="M10.5 12.45C10.5 12.03 10.65 11.67 10.94 11.36C11.0966 11.1927 11.2735 11.069 11.4677 10.9891C11.7826 10.8595 12.107 10.7041 12.2839 10.4132L14.5328 6.71443C14.6435 6.53226 14.8771 6.46801 15.0654 6.56789V6.56789C15.2493 6.66539 15.3285 6.88695 15.2482 7.07896L13.5859 11.0539C13.4517 11.3746 13.5206 11.7386 13.5932 12.0786C13.6181 12.1953 13.63 12.319 13.63 12.45C13.63 12.89 13.48 13.26 13.17 13.56C12.86 13.86 12.49 14.01 12.05 14.01C11.62 14.01 11.25 13.86 10.95 13.56C10.65 13.26 10.5 12.89 10.5 12.45Z" fill="#3FD5FE"/>
<circle cx="12" cy="10.5" r="7" stroke="#3FD5FE" stroke-width="1.5"/>
<rect x="10" y="17.5" width="4" height="4" stroke="#3FD5FE" stroke-width="1.5" stroke-linejoin="round"/>
<line x1="8.5" y1="11" x2="7.5" y2="11" stroke="#3FD5FE" stroke-linecap="round"/>
<line x1="12" y1="7" x2="12" y2="6" stroke="#3FD5FE" stroke-linecap="round"/>
<line x1="9.49284" y1="8.19995" x2="8.78574" y2="7.49284" stroke="#3FD5FE" stroke-linecap="round"/>
<line x1="16.5" y1="11" x2="15.5" y2="11" stroke="#3FD5FE" stroke-linecap="round"/>
</svg>
