<svg width="24" height="25" viewBox="0 0 24 25" fill="none" xmlns="http://www.w3.org/2000/svg">
<path d="M18.998 10.5C19.7739 10.507 20.517 10.8143 21.0713 11.3574C21.6255 11.9005 21.9479 12.6372 21.9706 13.4128C21.9934 14.1885 21.7149 14.9428 21.1934 15.5175C20.672 16.0922 19.9482 16.4425 19.174 16.495L18.967 16.5L18.865 16.507L17.7 16.507C17.89 16.88 17.998 17.302 17.998 17.749C17.998 19.279 16.845 20.506 15.323 20.506C13.818 20.506 12.908 19.624 12.663 18.403C12.6305 18.2108 12.6741 18.0134 12.7846 17.8528C12.895 17.6922 13.0638 17.5809 13.2549 17.5425C13.4461 17.5041 13.6447 17.5417 13.8086 17.6473C13.9725 17.7529 14.0888 17.9181 14.133 18.108C14.247 18.673 14.59 19.006 15.323 19.006C15.995 19.006 16.498 18.471 16.498 17.75C16.498 17.061 15.93 16.5 15.225 16.5L2.737 16.507C2.54562 16.509 2.36074 16.4377 2.22021 16.3077C2.07969 16.1778 1.99415 15.9991 1.98111 15.8081C1.96808 15.6172 2.02853 15.4285 2.15009 15.2807C2.27166 15.1329 2.44513 15.0371 2.635 15.013L2.737 15.007L15.124 15.007L15.225 15C15.29 15 15.353 15.002 15.416 15.006L18.888 15.008L18.942 15.002L19.142 14.993C19.4212 14.9656 19.6872 14.8603 19.9096 14.6893C20.132 14.5182 20.302 14.2882 20.4003 14.0254C20.4985 13.7626 20.5211 13.4775 20.4654 13.2025C20.4097 12.9275 20.278 12.6736 20.0852 12.4697C19.8924 12.2658 19.6463 12.1201 19.3749 12.0491C19.1034 11.978 18.8175 11.9846 18.5496 12.0679C18.2817 12.1513 18.0425 12.3081 17.8593 12.5206C17.676 12.7331 17.5561 12.9927 17.513 13.27L17.486 13.509C17.4524 13.6989 17.3469 13.8685 17.1915 13.9826C17.036 14.0968 16.8426 14.1467 16.6514 14.122C16.4602 14.0973 16.2858 13.9999 16.1645 13.85C16.0432 13.7001 15.9843 13.5092 16 13.317C16.0469 12.5539 16.3832 11.8375 16.9404 11.314C17.4975 10.7905 18.2335 10.4993 18.998 10.5ZM12 12.5L2.756 12.5C2.56597 12.5 2.38306 12.4278 2.24421 12.298C2.10536 12.1683 2.02092 11.9907 2.00797 11.8011C1.99502 11.6116 2.05451 11.4241 2.17443 11.2767C2.29435 11.1293 2.46575 11.0329 2.654 11.007L2.756 11L12 11C12.4945 11 12.9778 10.8534 13.3889 10.5787C13.8 10.304 14.1205 9.91354 14.3097 9.45672C14.4989 8.99991 14.5484 8.49724 14.452 8.01229C14.3555 7.52734 14.1174 7.08188 13.7678 6.73225C13.4181 6.38262 12.9727 6.14451 12.4877 6.04805C12.0028 5.95159 11.5001 6.0011 11.0433 6.19032C10.5865 6.37953 10.196 6.69997 9.92132 7.11109C9.64662 7.52221 9.5 8.00556 9.5 8.50001C9.5 8.69893 9.42098 8.88969 9.28033 9.03034C9.13968 9.171 8.94891 9.25001 8.75 9.25001C8.55109 9.25001 8.36032 9.171 8.21967 9.03034C8.07902 8.88969 8 8.69893 8 8.50001C8.00002 7.71831 8.22909 6.95374 8.6589 6.3008C9.0887 5.64786 9.70041 5.13516 10.4184 4.82608C11.1364 4.517 11.9293 4.42507 12.6989 4.56166C13.4686 4.69825 14.1814 5.05738 14.7492 5.59465C15.317 6.13192 15.715 6.82379 15.8939 7.58476C16.0727 8.34572 16.0247 9.14242 15.7558 9.8764C15.4868 10.6104 15.0087 11.2495 14.3805 11.7147C13.7523 12.1799 13.0015 12.4508 12.221 12.494L12.001 12.5L2.755 12.5L12 12.5Z" fill="#3FD5FE"/>
</svg>
