<svg width="24" height="25" viewBox="0 0 24 25" fill="none" xmlns="http://www.w3.org/2000/svg">
<path d="M10.7143 3.92859C11.4257 3.92853 12.1102 4.20063 12.6274 4.6891C13.1445 5.17758 13.4552 5.84539 13.4957 6.55562L13.5 6.71418L13.5009 13.5299L13.5694 13.589C14.3682 14.3011 14.871 15.2868 14.9786 16.3515L14.9949 16.5675L15 16.7852C15.0001 17.4913 14.8258 18.1864 14.4925 18.8089C14.1591 19.4314 13.6772 19.9619 13.0894 20.3532C12.5016 20.7445 11.8262 20.9845 11.1233 21.0519C10.4204 21.1193 9.71177 21.0119 9.06034 20.7394C8.40892 20.4669 7.83492 20.0377 7.38939 19.4899C6.94385 18.9421 6.64057 18.2927 6.50652 17.5995C6.37247 16.9062 6.4118 16.1906 6.62102 15.5162C6.83023 14.8418 7.20284 14.2295 7.70573 13.7339L7.86002 13.5882L7.92773 13.5299L7.92859 6.71418C7.92845 6.02961 8.1804 5.36897 8.63636 4.85833C9.09231 4.34769 9.72035 4.02282 10.4006 3.94573L10.5566 3.93287L10.7143 3.92859ZM10.7143 5.21425C10.3377 5.21428 9.97492 5.35595 9.69798 5.61113C9.42104 5.8663 9.25022 6.2163 9.21945 6.59161L9.2143 6.71418L9.2143 14.1658L8.94945 14.3587C8.44342 14.7268 8.06515 15.2438 7.86759 15.8376C7.67004 16.4313 7.66308 17.0719 7.8477 17.6697C8.03232 18.2676 8.39927 18.7928 8.89719 19.1717C9.39511 19.5507 9.99907 19.7645 10.6245 19.7832C11.25 19.8019 11.8656 19.6245 12.3853 19.276C12.905 18.9274 13.3026 18.4251 13.5226 17.8393C13.7426 17.2536 13.7739 16.6137 13.6122 16.0092C13.4504 15.4048 13.1037 14.866 12.6206 14.4684L12.4792 14.3596L12.216 14.1667L12.2143 6.71418C12.2143 6.31637 12.0563 5.93486 11.775 5.65357C11.4937 5.37227 11.1121 5.21425 10.7143 5.21425Z" fill="#AAD9E9"/>
<path d="M23.0584 5.49218C22.9457 6.35884 22.7334 7.01751 22.4214 7.46818C22.1094 7.91884 21.6544 8.14418 21.0564 8.14418C20.571 8.11818 20.2287 7.99251 20.0294 7.76718C19.83 7.53318 19.6567 7.16918 19.5094 6.67518C19.4487 6.43251 19.3924 6.26784 19.3404 6.18118C19.2884 6.08584 19.2147 6.03818 19.1194 6.03818C18.8854 6.03818 18.7207 6.52784 18.6254 7.50718C18.608 7.69784 18.5257 7.86251 18.3784 8.00118C18.231 8.13118 18.0577 8.19618 17.8584 8.19618C17.633 8.19618 17.4424 8.10951 17.2864 7.93618C17.1304 7.75418 17.0697 7.55051 17.1044 7.32518C17.2257 6.46718 17.4424 5.81284 17.7544 5.36218C18.0664 4.91151 18.5214 4.68618 19.1194 4.68618C19.6134 4.71218 19.96 4.84218 20.1594 5.07618C20.3587 5.31018 20.532 5.68284 20.6794 6.19418C20.792 6.60151 20.9177 6.80518 21.0564 6.80518C21.299 6.80518 21.468 6.31118 21.5634 5.32318C21.5807 5.13251 21.6587 4.97218 21.7974 4.84218C21.9447 4.71218 22.118 4.64718 22.3174 4.64718C22.5427 4.64718 22.729 4.73384 22.8764 4.90718C23.0237 5.07184 23.0844 5.26684 23.0584 5.49218Z" fill="#AAD9E9"/>
</svg>
