<svg width="24" height="25" viewBox="0 0 24 25" fill="none" xmlns="http://www.w3.org/2000/svg">
<path d="M10.7143 3.92859C11.4257 3.92853 12.1102 4.20063 12.6274 4.6891C13.1445 5.17758 13.4552 5.84539 13.4957 6.55562L13.5 6.71418L13.5009 13.5299L13.5694 13.589C14.3682 14.3011 14.871 15.2868 14.9786 16.3515L14.9949 16.5675L15 16.7852C15.0001 17.4913 14.8258 18.1864 14.4925 18.8089C14.1591 19.4314 13.6772 19.9619 13.0894 20.3532C12.5016 20.7445 11.8262 20.9845 11.1233 21.0519C10.4204 21.1193 9.71177 21.0119 9.06034 20.7394C8.40892 20.4669 7.83492 20.0377 7.38939 19.4899C6.94385 18.9421 6.64057 18.2927 6.50652 17.5995C6.37247 16.9062 6.4118 16.1906 6.62102 15.5162C6.83023 14.8418 7.20284 14.2295 7.70573 13.7339L7.86002 13.5882L7.92773 13.5299L7.92859 6.71418C7.92845 6.02961 8.1804 5.36897 8.63636 4.85833C9.09231 4.34769 9.72035 4.02282 10.4006 3.94573L10.5566 3.93287L10.7143 3.92859ZM10.7143 5.21425C10.3377 5.21428 9.97492 5.35595 9.69798 5.61113C9.42104 5.8663 9.25022 6.2163 9.21945 6.59161L9.2143 6.71418L9.2143 14.1658L8.94945 14.3587C8.44342 14.7268 8.06515 15.2438 7.86759 15.8376C7.67004 16.4313 7.66308 17.0719 7.8477 17.6697C8.03232 18.2676 8.39927 18.7928 8.89719 19.1717C9.39511 19.5507 9.99907 19.7645 10.6245 19.7832C11.25 19.8019 11.8656 19.6245 12.3853 19.276C12.905 18.9274 13.3026 18.4251 13.5226 17.8393C13.7426 17.2536 13.7739 16.6137 13.6122 16.0092C13.4504 15.4048 13.1037 14.866 12.6206 14.4684L12.4792 14.3596L12.216 14.1667L12.2143 6.71418C12.2143 6.31637 12.0563 5.93486 11.775 5.65357C11.4937 5.37227 11.1121 5.21425 10.7143 5.21425Z" fill="#AAD9E9"/>
<path d="M16.2858 6.92854L18.4286 8.64282L20.5715 6.92854" stroke="#AAD9E9" stroke-width="1.5" stroke-linecap="round" stroke-linejoin="round"/>
<path d="M18.4286 4.35718L18.4286 8.21432" stroke="#AAD9E9" stroke-width="1.5" stroke-linecap="round" stroke-linejoin="round"/>
</svg>
